<?xml version="1.0" encoding="UTF-8"?>
<svg version="1.1" viewBox="0 0 1968.2 336.44" xmlns="http://www.w3.org/2000/svg">
    <g transform="matrix(1.3333 0 0 -1.3333 -221.37 450.92)">
        <g transform="translate(384.91 288.14)">
            <path
                d="m0 0c0 42.139-35.541 50.055-70.452 50.055-18.418 0-49.382-5.927-61.224-21.726 24.365 3.302 43.451-7.249 43.451-34.224 0-29.64-20.392-38.868-46.081-38.868-28.329 0-47.419 21.736-47.419 48.71 0 5.115 0.469 9.915 1.328 14.425-23.83-25.048-38.483-58.979-38.483-96.275 0-27.403 7.895-52.919 21.517-74.52 6.405 119.45 197.36 61.147 197.36 152.42"
                fill="#84b414"/>
        </g>
        <g transform="translate(267.31 130.49)">
            <path
                d="m 0,0 c 0,-29.756 13.456,-44.628 42.524,-44.628 48.169,0 75.077,41.087 75.077,86.434 V 87.87 L 42.524,53.845 C 21.966,44.648 0,33.296 0,0"
                fill="#84b414"/>
        </g>
        <g transform="translate(506.6 216.52)">
            <path
                d="m0 0h-17.966l5.624 27.948c0.279 1.188 0.51 1.59 0.656 1.718 0.143 0.124 0.516 0.273 1.484 0.273h2.436c0.838 0 1.428-0.124 1.752-0.367 0.32-0.239 0.567-0.842 0.736-1.794zm1.359 31.531c-0.321 1.254-0.75 2.333-1.275 3.208-0.53 0.884-1.249 1.573-2.136 2.047-0.885 0.472-2.046 0.711-3.452 0.711h-7.047c-1.23 0-2.272-0.194-3.098-0.577-0.828-0.385-1.502-0.91-2.004-1.56-0.499-0.647-0.901-1.405-1.193-2.254-0.29-0.837-0.526-1.766-0.7-2.756l-11.224-55.071-0.03-0.15h7.737l3.567 17.313h20.674l3.132-17.313h7.824l-9.859 52.174c-0.289 1.555-0.597 2.978-0.916 4.228"
                fill="#84b414"/>
        </g>
        <g transform="translate(544.66 254.02)">
            <path d="m0 0h-7.558v-62.368h40.618v7.558h-33.06z" fill="#84b414"/>
        </g>
        <g transform="translate(598.26 191.65)">
            <path d="m0 0h7.558v54.81h16.791v7.558h-41.14v-7.558h16.791z" fill="#84b414"/>
        </g>
        <g transform="translate(648.45 219.4)">
            <path d="m0 0h21.576v7.558h-21.576v19.499h31.494v7.558h-39.052v-62.368h40.183v7.558h-32.625z"
                  fill="#84b414"/>
        </g>
        <g transform="translate(710.3 246.46)">
            <path
                d="m0 0h18.729c2.282 0 4.088-0.618 5.369-1.836 1.278-1.218 1.926-3.046 1.926-5.434v-5.481c0-2.389-0.648-4.217-1.926-5.434-1.279-1.218-3.085-1.836-5.369-1.836h-18.729zm25.259-26.395c2.514 1.053 4.546 2.751 6.041 5.05 1.514 2.33 2.282 5.221 2.282 8.594v5.481c0 2.266-0.384 4.346-1.141 6.181s-1.806 3.415-3.116 4.696c-1.313 1.282-2.893 2.272-4.699 2.943-1.807 0.669-3.782 1.008-5.872 1.008h-26.312v-62.368h7.558v27.231h17.677l8.614-27.144 0.027-0.087h7.918z"
                fill="#84b414"/>
        </g>
        <g transform="translate(810.53 254.02)">
            <path
                d="m0 0h-7.558v-50.165l-22.033 50.09-0.032 0.075h-10.473v-62.368h7.558v49.992l22.006-49.917 0.033-0.075h10.499z"
                fill="#84b414"/>
        </g>
        <g transform="translate(844.57 216.52)">
            <path
                d="m0 0 5.625 27.947c0.279 1.189 0.511 1.591 0.657 1.719 0.142 0.124 0.514 0.273 1.483 0.273h2.436c0.838 0 1.428-0.124 1.751-0.367 0.32-0.239 0.568-0.842 0.736-1.794l5.279-27.778zm-1.529-7.558h20.674l3.131-17.313h7.825l-9.859 52.174c-0.29 1.558-0.597 2.98-0.916 4.228-0.321 1.254-0.751 2.334-1.275 3.208-0.53 0.884-1.249 1.573-2.137 2.047-0.885 0.472-2.046 0.711-3.451 0.711h-7.047c-1.23 0-2.272-0.194-3.098-0.577-0.828-0.385-1.502-0.909-2.004-1.56-0.5-0.647-0.901-1.405-1.193-2.254-0.29-0.839-0.526-1.768-0.7-2.756l-11.224-55.071-0.031-0.15h7.737z"
                fill="#84b414"/>
        </g>
        <g transform="translate(928.06 254.02)">
            <path d="m0 0h-41.141v-7.558h16.791v-54.81h7.559v54.81h16.791z" fill="#84b414"/>
        </g>
        <g transform="translate(946.86 246.46)">
            <path d="m0 0h12.701v-47.252h-12.701v-7.558h32.962v7.558h-12.702v47.252h12.702v7.558h-32.962z"
                  fill="#84b414"/>
        </g>
        <g transform="translate(1024.1 201.19)">
            <path
                d="m0 0c-0.208-1.18-0.465-1.577-0.644-1.703-0.267-0.187-0.799-0.281-1.582-0.281h-3.741c-0.838 0-1.428 0.123-1.752 0.366-0.32 0.24-0.567 0.843-0.734 1.792l-9.484 52.549-0.018 0.103h-7.823l9.509-52.174c0.289-1.558 0.596-2.981 0.915-4.228 0.319-1.248 0.749-2.328 1.276-3.209 0.533-0.886 1.252-1.575 2.137-2.047 0.881-0.471 2.044-0.71 3.452-0.71h8.787c1.231 0 2.273 0.194 3.098 0.577 0.825 0.382 1.512 0.906 2.044 1.556 0.531 0.648 0.933 1.424 1.198 2.305 0.259 0.866 0.48 1.778 0.655 2.71l10.353 55.072 0.028 0.148h-7.736z"
                fill="#84b414"/>
        </g>
        <g transform="translate(1100.5 199.21)">
            <path d="m0 0h-32.625v20.195h21.576v7.558h-21.576v19.499h31.494v7.558h-39.053v-62.368h40.184z"
                  fill="#84b414"/>
        </g>
        <g transform="translate(503.1 101.21)">
            <path
                d="m0 0h-18.928v47.252h18.928c2.276 0 4.077-0.617 5.351-1.836 1.274-1.217 1.919-3.045 1.919-5.434v-32.711c0-2.39-0.645-4.219-1.919-5.434-1.274-1.219-3.075-1.837-5.351-1.837m10.571 50.86c-1.312 1.282-2.893 2.272-4.698 2.942-1.809 0.669-3.784 1.009-5.873 1.009h-26.486v-62.369h26.486c2.094 0 4.07 0.34 5.873 1.009 1.805 0.669 3.386 1.659 4.698 2.942 1.31 1.28 2.358 2.86 3.117 4.696 0.756 1.836 1.14 3.916 1.14 6.182v32.711c0 2.266-0.384 4.346-1.14 6.182-0.758 1.834-1.807 3.414-3.117 4.696"
                fill="#84b414"/>
        </g>
        <g transform="translate(536.29 148.46)">
            <path d="m0 0h12.702v-47.252h-12.702v-7.558h32.962v7.558h-12.702v47.252h12.702v7.559h-32.962z"
                  fill="#84b414"/>
        </g>
        <g transform="translate(594.83 121.4)">
            <path d="m0 0h21.576v7.558h-21.576v19.499h31.494v7.558h-39.052v-62.368h40.183v7.558h-32.625z"
                  fill="#84b414"/>
        </g>
        <g transform="translate(718.63 153.03)">
            <path
                d="m0 0c-2.133 1.984-5.22 2.991-9.176 2.991h-11.397c-2.033 0-3.98-0.34-5.786-1.009-1.806-0.67-3.4-1.644-4.74-2.896-1.341-1.254-2.405-2.82-3.162-4.654-0.757-1.833-1.14-3.942-1.14-6.269v-32.712c0-2.328 0.383-4.423 1.14-6.224 0.757-1.807 1.821-3.373 3.161-4.654 1.341-1.283 2.935-2.272 4.741-2.941 1.801-0.669 3.747-1.009 5.786-1.009h11.484c2.094 0 4.069 0.339 5.872 1.006 1.805 0.667 3.385 1.654 4.698 2.934 1.311 1.277 2.359 2.854 3.117 4.685 0.757 1.83 1.141 3.904 1.141 6.165v19.129h-19.652v-7.558h12.094v-11.533c0-2.446-0.648-4.289-1.925-5.476-1.281-1.191-3.088-1.794-5.37-1.794h-11.522c-2.17 0-3.933 0.618-5.239 1.838-1.306 1.214-1.968 3.043-1.968 5.432v32.712c0 2.389 0.662 4.216 1.968 5.433 1.307 1.218 3.069 1.837 5.239 1.837h11.609c2.052 0 3.581-0.443 4.542-1.316 0.969-0.881 1.839-2.401 2.586-4.518l1.783-4.902 6.903 2.479 0.119 0.042-1.698 4.557c-1.335 3.482-3.087 6.248-5.208 8.225"
                fill="#84b414"/>
        </g>
        <g transform="translate(750.83 148.46)">
            <path
                d="m0 0h18.729c2.283 0 4.089-0.617 5.37-1.836 1.277-1.218 1.924-3.046 1.924-5.434v-5.481c0-2.389-0.647-4.217-1.924-5.434-1.28-1.218-3.086-1.836-5.37-1.836h-18.729zm31.3-21.345c1.514 2.331 2.282 5.222 2.282 8.594v5.481c0 2.266-0.384 4.346-1.141 6.182-0.757 1.834-1.805 3.414-3.117 4.696-1.31 1.282-2.891 2.271-4.698 2.942-1.808 0.669-3.783 1.009-5.872 1.009h-26.312v-62.369h7.558v27.232h17.677l8.614-27.145 0.027-0.087h7.918l-8.978 28.416c2.514 1.052 4.546 2.75 6.042 5.049"
                fill="#84b414"/>
        </g>
        <g transform="translate(836.39 108.48)">
            <path
                d="m0 0c0-2.494-0.655-4.351-1.964-5.568-1.31-1.218-3.128-1.828-5.455-1.828h-11.522c-2.27 0-4.059 0.624-5.369 1.872-1.31 1.246-1.963 3.087-1.963 5.524v47.415h-7.309v-47.415c0-2.32 0.377-4.38 1.132-6.177 0.753-1.799 1.797-3.336 3.132-4.611 1.333-1.276 2.899-2.248 4.698-2.914 1.797-0.668 3.711-1.001 5.741-1.001h11.484c2.146 0 4.118 0.333 5.916 1.001 1.797 0.666 3.35 1.638 4.655 2.914 1.304 1.275 2.319 2.812 3.045 4.611 0.724 1.797 1.088 3.857 1.088 6.177v47.415h-7.309z"
                fill="#84b414"/>
        </g>
        <g transform="translate(830.43 163.68)">
            <path
                d="m0 0c0.376-0.435 0.942-0.726 1.696-0.87 0.753-0.146 1.797-0.217 3.132-0.217 1.334 0 2.378 0.071 3.132 0.217 0.754 0.144 1.319 0.435 1.697 0.87 0.376 0.436 0.609 1.015 0.696 1.74 0.086 0.725 0.13 1.638 0.13 2.74 0 1.161-0.058 2.118-0.173 2.872-0.118 0.752-0.364 1.362-0.74 1.827-0.378 0.463-0.943 0.783-1.697 0.957s-1.769 0.26-3.045 0.26-2.292-0.086-3.045-0.26c-0.754-0.174-1.319-0.494-1.696-0.957-0.378-0.465-0.624-1.075-0.739-1.827-0.118-0.754-0.174-1.711-0.174-2.872 0-1.102 0.043-2.015 0.13-2.74s0.318-1.304 0.696-1.74"
                fill="#84b414"/>
        </g>
        <g transform="translate(807.46 172.86)">
            <path
                d="m0 0c-0.378-0.465-0.624-1.074-0.74-1.827-0.116-0.754-0.174-1.711-0.174-2.871 0-1.103 0.044-2.016 0.131-2.74 0.087-0.726 0.318-1.305 0.696-1.741 0.376-0.434 0.941-0.725 1.696-0.87 0.753-0.145 1.797-0.217 3.132-0.217 1.334 0 2.378 0.072 3.132 0.217 0.753 0.145 1.318 0.436 1.696 0.87 0.377 0.436 0.61 1.015 0.697 1.741 0.087 0.724 0.13 1.637 0.13 2.74 0 1.16-0.058 2.117-0.174 2.871-0.117 0.753-0.363 1.362-0.74 1.827-0.378 0.463-0.943 0.783-1.696 0.957-0.755 0.174-1.769 0.261-3.045 0.261s-2.292-0.087-3.045-0.261c-0.755-0.174-1.32-0.494-1.696-0.957"
                fill="#84b414"/>
        </g>
        <g transform="translate(895.12 105.85)">
            <path
                d="m0 0-22.033 50.09-0.032 0.074h-10.473v-62.368h7.558v49.991l22.005-49.917 0.034-0.074h10.499v62.368h-7.558z"
                fill="#84b414"/>
        </g>
        <g transform="translate(929.83 121.4)">
            <path d="m0 0h21.576v7.558h-21.576v19.499h31.494v7.558h-39.053v-62.368h40.184v7.558h-32.625z"
                  fill="#84b414"/>
        </g>
        <g transform="translate(1013.1 105.85)">
            <path
                d="m0 0-22.033 50.09-0.032 0.074h-10.473v-62.368h7.558v49.991l22.005-49.917 0.034-0.074h10.499v62.368h-7.558z"
                fill="#84b414"/>
        </g>
        <g transform="translate(1113.2 108.48)">
            <path
                d="m0 0c0-2.446-0.647-4.289-1.924-5.477-1.281-1.19-3.088-1.794-5.37-1.794h-11.522c-2.227 0-4.003 0.619-5.283 1.837-1.277 1.214-1.924 3.042-1.924 5.434v47.54h-7.559v-47.54c0-2.327 0.384-4.422 1.142-6.225 0.755-1.806 1.819-3.372 3.16-4.653 1.34-1.283 2.935-2.272 4.741-2.941 1.801-0.669 3.747-1.009 5.785-1.009h11.484c2.152 0 4.158 0.34 5.959 1.009 1.807 0.67 3.388 1.659 4.699 2.941 1.31 1.281 2.344 2.848 3.074 4.654 0.727 1.805 1.097 3.9 1.097 6.224v47.54h-7.559z"
                fill="#84b414"/>
        </g>
        <g transform="translate(1172 105.85)">
            <path
                d="m0 0-22.033 50.09-0.032 0.074h-10.473v-62.368h7.558v49.991l22.005-49.917 0.034-0.074h10.499v62.368h-7.558z"
                fill="#84b414"/>
        </g>
        <g transform="translate(1194.4 148.46)">
            <path d="m0 0h16.791v-54.81h7.559v54.81h16.791v7.559h-41.141z" fill="#84b414"/>
        </g>
        <g transform="translate(1261.3 121.4)">
            <path d="m0 0h21.576v7.558h-21.576v19.499h31.494v7.558h-39.053v-62.368h40.184v7.558h-32.625z"
                  fill="#84b414"/>
        </g>
        <g transform="translate(1319.4 148.46)">
            <path
                d="m0 0h18.729c2.283 0 4.089-0.617 5.37-1.836 1.277-1.218 1.924-3.046 1.924-5.434v-5.481c0-2.389-0.647-4.217-1.924-5.434-1.28-1.218-3.086-1.836-5.37-1.836h-18.729zm31.3-21.345c1.514 2.331 2.282 5.222 2.282 8.594v5.481c0 2.266-0.384 4.346-1.141 6.182-0.757 1.834-1.805 3.414-3.117 4.696-1.31 1.282-2.891 2.271-4.698 2.942-1.808 0.669-3.783 1.009-5.872 1.009h-26.313v-62.369h7.559v27.232h17.677l8.614-27.145 0.027-0.087h7.918l-8.978 28.416c2.514 1.052 4.546 2.75 6.042 5.049"
                fill="#84b414"/>
        </g>
        <g transform="translate(1400 163.68)">
            <path
                d="m0 0c0.377-0.435 0.942-0.726 1.696-0.87 0.753-0.146 1.798-0.217 3.132-0.217s2.378 0.071 3.133 0.217c0.753 0.144 1.318 0.435 1.696 0.87 0.376 0.436 0.609 1.015 0.697 1.74 0.086 0.725 0.129 1.638 0.129 2.74 0 1.161-0.058 2.118-0.173 2.872-0.118 0.752-0.364 1.362-0.74 1.827-0.378 0.463-0.943 0.783-1.696 0.957-0.755 0.174-1.77 0.26-3.046 0.26s-2.291-0.086-3.045-0.26-1.319-0.494-1.696-0.957c-0.378-0.465-0.624-1.075-0.739-1.827-0.118-0.754-0.174-1.711-0.174-2.872 0-1.102 0.043-2.015 0.13-2.74s0.318-1.304 0.696-1.74"
                fill="#84b414"/>
        </g>
        <g transform="translate(1377 163.68)">
            <path
                d="m0 0c0.376-0.435 0.941-0.726 1.696-0.87 0.753-0.146 1.797-0.217 3.132-0.217 1.334 0 2.378 0.071 3.132 0.217 0.753 0.144 1.319 0.435 1.697 0.87 0.376 0.436 0.609 1.015 0.696 1.74 0.086 0.725 0.13 1.638 0.13 2.74 0 1.161-0.058 2.118-0.173 2.872-0.118 0.752-0.364 1.362-0.741 1.827-0.378 0.463-0.943 0.783-1.696 0.957-0.754 0.174-1.769 0.26-3.045 0.26s-2.292-0.086-3.045-0.26c-0.755-0.174-1.32-0.494-1.696-0.957-0.378-0.465-0.624-1.075-0.739-1.827-0.118-0.754-0.175-1.711-0.175-2.872 0-1.102 0.044-2.015 0.131-2.74s0.318-1.304 0.696-1.74"
                fill="#84b414"/>
        </g>
        <g transform="translate(1383.8 118.4)">
            <path
                d="m0 0 5.655 28.101c0.232 0.986 0.464 1.58 0.697 1.784 0.23 0.202 0.752 0.303 1.565 0.303h2.437c0.87 0 1.478-0.129 1.826-0.39 0.348-0.262 0.609-0.886 0.783-1.871l5.308-27.927zm19.357 31.624c-0.319 1.247-0.739 2.306-1.261 3.176s-1.218 1.536-2.088 2.001c-0.87 0.464-2.001 0.696-3.393 0.696h-7.047c-1.217 0-2.233-0.189-3.045-0.565-0.813-0.378-1.465-0.885-1.958-1.523-0.493-0.639-0.884-1.379-1.173-2.219-0.291-0.841-0.523-1.754-0.697-2.74l-11.223-55.071h7.482l3.567 17.313h20.88l3.132-17.313h7.57l-9.832 52.026c-0.291 1.566-0.595 2.972-0.914 4.219"
                fill="#84b414"/>
        </g>
        <g transform="translate(1466.2 153.03)">
            <path
                d="m0 0c-2.134 1.984-5.221 2.991-9.177 2.991h-11.397c-2.032 0-3.979-0.34-5.785-1.009-1.806-0.67-3.402-1.644-4.74-2.896-1.342-1.255-2.406-2.82-3.162-4.654-0.758-1.833-1.141-3.943-1.141-6.269v-32.712c0-2.327 0.383-4.422 1.141-6.224 0.756-1.807 1.82-3.372 3.16-4.654 1.34-1.283 2.936-2.272 4.742-2.941 1.8-0.669 3.747-1.009 5.785-1.009h11.484c2.094 0 4.07 0.339 5.872 1.006 1.806 0.667 3.387 1.654 4.698 2.934 1.311 1.278 2.36 2.854 3.118 4.685 0.756 1.83 1.14 3.904 1.14 6.165v19.129h-19.651v-7.558h12.093v-11.533c0-2.446-0.648-4.289-1.924-5.476-1.281-1.191-3.088-1.794-5.37-1.794h-11.523c-2.169 0-3.931 0.618-5.239 1.838-1.306 1.214-1.968 3.043-1.968 5.432v32.712c0 2.388 0.662 4.216 1.968 5.433 1.308 1.218 3.07 1.837 5.239 1.837h11.61c2.052 0 3.581-0.443 4.542-1.316 0.968-0.882 1.839-2.402 2.586-4.518l1.74-4.785 0.042-0.117 6.903 2.479 0.119 0.042-1.697 4.557c-1.336 3.482-3.088 6.248-5.208 8.225"
                fill="#84b414"/>
        </g>
        <g transform="translate(1499.2 121.4)">
            <path d="m0 0h21.576v7.558h-21.576v19.499h31.494v7.558h-39.053v-62.368h40.184v7.558h-32.625z"
                  fill="#84b414"/>
        </g>
        <g transform="translate(1557.3 148.46)">
            <path
                d="m0 0h18.729c2.283 0 4.089-0.617 5.37-1.836 1.277-1.218 1.924-3.046 1.924-5.434v-5.481c0-2.389-0.647-4.217-1.924-5.434-1.28-1.218-3.086-1.836-5.37-1.836h-18.729zm31.3-21.345c1.514 2.331 2.282 5.222 2.282 8.594v5.481c0 2.266-0.384 4.346-1.141 6.182-0.757 1.834-1.805 3.414-3.117 4.696-1.31 1.282-2.891 2.271-4.698 2.942-1.808 0.669-3.783 1.009-5.872 1.009h-26.313v-62.369h7.559v27.232h17.677l8.614-27.145 0.027-0.087h7.918l-8.978 28.416c2.514 1.052 4.546 2.75 6.042 5.049"
                fill="#84b414"/>
        </g>
        <g transform="translate(1642.2 148.46)">
            <path d="m0 0v7.559h-32.962v-7.559h12.701v-47.252h-12.701v-7.558h32.962v7.558h-12.702v47.252z"
                  fill="#84b414"/>
        </g>
    </g>
</svg>
