<?xml version="1.0" encoding="UTF-8"?>
<svg version="1.1" viewBox="0 0 1583.6 336.44" xmlns="http://www.w3.org/2000/svg">
    <g transform="matrix(1.3333 0 0 -1.3333 -221.37 450.92)">
        <g transform="translate(384.91 288.14)">
            <path
                d="m0 0c0 42.139-35.541 50.055-70.452 50.055-18.418 0-49.382-5.927-61.224-21.726 24.365 3.302 43.451-7.249 43.451-34.224 0-29.64-20.392-38.868-46.081-38.868-28.329 0-47.419 21.736-47.419 48.71 0 5.115 0.469 9.915 1.328 14.425-23.83-25.048-38.483-58.979-38.483-96.275 0-27.403 7.895-52.919 21.517-74.52 6.405 119.45 197.36 61.147 197.36 152.42"
                fill="#fff"/>
        </g>
        <g transform="translate(267.31 130.49)">
            <path
                d="m 0,0 c 0,-29.756 13.456,-44.628 42.524,-44.628 48.169,0 75.077,41.087 75.077,86.434 V 87.87 L 42.524,53.845 C 21.966,44.648 0,33.296 0,0"
                fill="#fff"/>
        </g>
        <g transform="translate(517.29 249.81)">
            <path
                d="m0 0 0.079 0.097-5.752 4.689-0.097 0.08-27.349-33.754v33.094h-7.558v-62.369h7.558v17.22l8.917 10.889 20.785-28.666 0.074-0.102 6.03 4.499-22.028 30.472z"
                fill="#fff"/>
        </g>
        <g transform="translate(544.86 246.46)">
            <path
                d="m0 0h18.729c2.282 0 4.088-0.618 5.369-1.836 1.278-1.218 1.926-3.046 1.926-5.434v-5.481c0-2.389-0.648-4.217-1.926-5.434-1.279-1.218-3.085-1.836-5.369-1.836h-18.729zm0-27.579h17.677l8.614-27.144 0.027-0.087h7.918l-8.977 28.415c2.514 1.053 4.546 2.751 6.041 5.05 1.514 2.33 2.282 5.221 2.282 8.594v5.481c0 2.266-0.384 4.346-1.141 6.181s-1.806 3.415-3.116 4.696c-1.313 1.282-2.893 2.272-4.699 2.943-1.807 0.669-3.782 1.008-5.872 1.008h-26.312v-62.368h7.558z"
                fill="#fff"/>
        </g>
        <g transform="translate(598.84 246.46)">
            <path d="m0 0h12.702v-47.252h-12.702v-7.558h32.962v7.558h-12.702v47.252h12.702v7.558h-32.962z" fill="#fff"/>
        </g>
        <g transform="translate(653.52 191.65)">
            <path d="m0 0h7.558v27.753h20.184v7.558h-20.184v19.499h30.102v7.558h-37.66z" fill="#fff"/>
        </g>
        <g transform="translate(738.95 206.48)">
            <path
                d="m0 0c0-2.39-0.648-4.218-1.926-5.434-1.279-1.218-3.085-1.836-5.368-1.836h-11.522c-2.171 0-3.934 0.618-5.24 1.837-1.306 1.215-1.968 3.043-1.968 5.433v32.712c0 2.388 0.662 4.216 1.968 5.433 1.308 1.219 3.071 1.837 5.24 1.837h11.522c2.281 0 4.087-0.618 5.368-1.836 1.278-1.218 1.926-3.046 1.926-5.434zm3.301 43.589c-1.313 1.282-2.893 2.272-4.698 2.943-1.808 0.669-3.783 1.008-5.873 1.008h-11.484c-2.034 0-3.98-0.339-5.786-1.008-1.805-0.67-3.4-1.645-4.739-2.897-1.343-1.255-2.407-2.821-3.163-4.655-0.756-1.833-1.14-3.941-1.14-6.268v-32.712c0-2.328 0.384-4.422 1.141-6.226 0.757-1.807 1.82-3.372 3.161-4.652 1.341-1.284 2.936-2.273 4.74-2.942 1.802-0.669 3.748-1.008 5.786-1.008h11.484c2.094 0 4.069 0.339 5.873 1.008 1.805 0.669 3.385 1.659 4.698 2.943 1.309 1.278 2.358 2.858 3.116 4.695 0.757 1.836 1.141 3.916 1.141 6.182v32.712c0 2.266-0.384 4.346-1.141 6.181s-1.806 3.415-3.116 4.696"
                fill="#fff"/>
        </g>
        <g transform="translate(488.63 118.52)">
            <path
                d="m0 0 5.624 27.947c0.278 1.189 0.511 1.591 0.657 1.719 0.142 0.124 0.514 0.272 1.483 0.272h2.436c0.839 0 1.428-0.123 1.752-0.365 0.32-0.241 0.568-0.844 0.736-1.795l5.278-27.778zm19.326 31.53c-0.322 1.254-0.75 2.334-1.275 3.209-0.531 0.884-1.249 1.573-2.137 2.047-0.885 0.472-2.046 0.711-3.452 0.711h-7.046c-1.23 0-2.272-0.194-3.099-0.577-0.828-0.385-1.502-0.91-2.004-1.56-0.499-0.647-0.9-1.406-1.193-2.254-0.29-0.838-0.526-1.767-0.7-2.755l-11.223-55.072-0.03-0.15h7.736l3.567 17.313h20.674l3.132-17.313h7.824l-9.859 52.174c-0.289 1.558-0.597 2.981-0.915 4.227"
                fill="#fff"/>
        </g>
        <g transform="translate(544.66 156.02)">
            <path d="m0 0h-7.558v-62.368h40.618v7.557h-33.06z" fill="#fff"/>
        </g>
        <g transform="translate(578.86 148.46)">
            <path d="m0 0h16.791v-54.81h7.558v54.81h16.791v7.559h-41.14z" fill="#fff"/>
        </g>
        <g transform="translate(642.36 121.4)">
            <path d="m0 0h21.576v7.558h-21.576v19.499h31.494v7.558h-39.052v-62.368h40.183v7.558h-32.625z" fill="#fff"/>
        </g>
        <g transform="translate(719.15 128.44)">
            <path
                d="m0 0h-18.729v20.021h18.729c2.283 0 4.089-0.618 5.369-1.836 1.277-1.218 1.925-3.046 1.925-5.434v-5.481c0-2.389-0.648-4.217-1.925-5.434-1.279-1.219-3.085-1.836-5.369-1.836m12.57-1.324c1.514 2.331 2.283 5.221 2.283 8.594v5.481c0 2.266-0.384 4.346-1.141 6.182-0.757 1.834-1.806 3.414-3.117 4.696-1.311 1.281-2.892 2.271-4.698 2.941-1.808 0.669-3.784 1.009-5.873 1.009h-26.312v-62.368h7.559v27.231h17.676l8.614-27.144 0.028-0.087h7.918l-8.978 28.416c2.514 1.052 4.547 2.751 6.041 5.049"
                fill="#fff"/>
        </g>
        <g transform="translate(787.86 105.85)">
            <path
                d="m0 0-22.033 50.09-0.032 0.074h-10.473v-62.368h7.558v49.991l22.005-49.917 0.034-0.074h10.499v62.368h-7.558z"
                fill="#fff"/>
        </g>
        <g transform="translate(828.59 118.52)">
            <path
                d="m0 0 5.625 27.947c0.278 1.189 0.511 1.591 0.656 1.719 0.143 0.124 0.515 0.272 1.484 0.272h2.436c0.839 0 1.428-0.123 1.751-0.365 0.32-0.241 0.568-0.844 0.736-1.795l5.279-27.778zm19.326 31.53c-0.321 1.255-0.751 2.334-1.275 3.209-0.53 0.884-1.249 1.573-2.137 2.047-0.885 0.472-2.046 0.711-3.451 0.711h-7.047c-1.228 0-2.271-0.194-3.098-0.577-0.828-0.385-1.503-0.909-2.004-1.56-0.5-0.648-0.901-1.407-1.193-2.254-0.291-0.84-0.526-1.769-0.7-2.755l-11.224-55.072-0.031-0.15h7.737l3.568 17.313h20.674l3.131-17.313h7.825l-9.859 52.174c-0.29 1.561-0.598 2.983-0.916 4.227"
                fill="#fff"/>
        </g>
        <g transform="translate(870.95 148.46)">
            <path d="m0 0h16.791v-54.81h7.559v54.81h16.791v7.559h-41.141z" fill="#fff"/>
        </g>
        <g transform="translate(928.28 148.46)">
            <path d="m0 0h12.701v-47.252h-12.701v-7.558h32.962v7.558h-12.702v47.252h12.702v7.559h-32.962z" fill="#fff"/>
        </g>
        <g transform="translate(1002.1 103.19)">
            <path
                d="m0 0c-0.208-1.18-0.465-1.577-0.644-1.703-0.267-0.188-0.799-0.282-1.582-0.282h-3.741c-0.837 0-1.427 0.123-1.752 0.366-0.32 0.241-0.567 0.845-0.734 1.794l-9.484 52.548-0.018 0.102h-7.823l9.509-52.174c0.289-1.558 0.596-2.981 0.915-4.228 0.319-1.248 0.749-2.327 1.276-3.208 0.533-0.888 1.252-1.576 2.137-2.047 0.882-0.472 2.044-0.711 3.452-0.711h8.787c1.231 0 2.273 0.194 3.098 0.577 0.826 0.384 1.513 0.907 2.044 1.557 0.53 0.647 0.933 1.423 1.198 2.305 0.259 0.866 0.48 1.777 0.655 2.709l10.353 55.072 0.028 0.148h-7.736z"
                fill="#fff"/>
        </g>
        <g transform="translate(1044.4 121.4)">
            <path d="m0 0h21.576v7.558h-21.576v19.499h31.494v7.558h-39.053v-62.368h40.184v7.558h-32.625z" fill="#fff"/>
        </g>
        <g transform="translate(1140.6 146.62)">
            <path
                d="m0 0c1.303 1.218 3.06 1.836 5.222 1.836h11.571c2.045 0 3.568-0.442 4.527-1.315 0.966-0.882 1.832-2.403 2.576-4.519l1.741-4.784 0.042-0.117 6.903 2.478 0.119 0.042-1.697 4.558c-1.336 3.481-3.089 6.249-5.209 8.224-2.133 1.985-5.22 2.992-9.176 2.992h-11.397c-2.033 0-3.977-0.34-5.78-1.009-1.8-0.67-3.385-1.645-4.71-2.898-1.327-1.255-2.378-2.821-3.125-4.654-0.748-1.834-1.127-3.943-1.127-6.268v-32.712c0-2.326 0.38-4.419 1.128-6.224 0.746-1.806 1.798-3.371 3.123-4.653 1.326-1.284 2.911-2.273 4.711-2.942 1.797-0.669 3.742-1.009 5.78-1.009h11.31c3.957 0 7.087 1.006 9.305 2.991 2.21 1.975 3.948 4.745 5.168 8.228l1.607 4.555-6.903 2.477-0.117 0.043-1.783-4.904c-0.744-2.116-1.61-3.636-2.576-4.516-0.959-0.874-2.482-1.316-4.527-1.316h-11.484c-2.162 0-3.919 0.618-5.222 1.838-1.301 1.214-1.961 3.042-1.961 5.432v32.712c0 2.389 0.66 4.217 1.961 5.434"
                fill="#fff"/>
        </g>
        <g transform="translate(1224.9 130.61)">
            <path d="m0 0h-26.372v25.404h-7.559v-62.368h7.559v29.406h26.372v-29.406h7.558v62.368h-7.558z" fill="#fff"/>
        </g>
        <g transform="translate(1262.9 118.52)">
            <path
                d="m0 0 5.625 27.947c0.278 1.189 0.511 1.591 0.656 1.719 0.143 0.124 0.515 0.272 1.484 0.272h2.436c0.839 0 1.428-0.123 1.751-0.365 0.32-0.241 0.568-0.844 0.736-1.795l5.279-27.778zm19.326 31.53c-0.321 1.255-0.751 2.334-1.275 3.209-0.53 0.884-1.249 1.573-2.137 2.047-0.885 0.472-2.046 0.711-3.451 0.711h-7.047c-1.228 0-2.271-0.194-3.098-0.577-0.828-0.385-1.503-0.909-2.004-1.56-0.5-0.648-0.901-1.407-1.193-2.254-0.291-0.84-0.526-1.769-0.7-2.755l-11.224-55.072-0.031-0.15h7.737l3.568 17.313h20.674l3.131-17.313h7.825l-9.859 52.174c-0.29 1.561-0.598 2.983-0.916 4.227"
                fill="#fff"/>
        </g>
        <g transform="translate(1341.1 156.02)">
            <path
                d="m0 0-9.043-30.142-9.101 30.053-0.027 0.089h-12.485v-62.368h7.558v54.445c0.365-1.053 0.781-2.288 1.239-3.681 0.529-1.613 1.072-3.339 1.614-5.13 0.552-1.828 1.12-3.728 1.702-5.699 0.613-2.075 1.184-3.982 1.745-5.83 1.335-4.456 2.715-9.138 4.102-13.919l0.026-0.089h7.169l0.027 0.087c1.915 6.194 3.648 11.844 5.149 16.792 0.652 2.188 1.299 4.309 1.92 6.307 0.631 2.031 1.218 3.89 1.745 5.524l1.309 4.176c0.148 0.467 0.269 0.851 0.365 1.152v-54.135h7.558v62.368z"
                fill="#fff"/>
        </g>
    </g>
</svg>
