<?xml version="1.0" encoding="UTF-8" standalone="no"?>
<!-- Created with Inkscape (http://www.inkscape.org/) -->

<svg
   xmlns:inkscape="http://www.inkscape.org/namespaces/inkscape"
   xmlns:sodipodi="http://sodipodi.sourceforge.net/DTD/sodipodi-0.dtd"
   xmlns:svg="http://www.w3.org/2000/svg"
   version="1.1"
   id="svg2"
   xml:space="preserve"
   width="477.65732"
   height="212.97519"
   viewBox="0 0 477.65732 212.97519"
   sodipodi:docname="basta-light.svg"
   inkscape:version="1.1.1 (3bf5ae0d25, 2021-09-20)"
   xmlns="http://www.w3.org/2000/svg"><defs
     id="defs6"><clipPath
       clipPathUnits="userSpaceOnUse"
       id="clipPath16"><path
         d="M 0,176.739 H 375.251 V 0 H 0 Z"
         id="path14" /></clipPath><clipPath
       clipPathUnits="userSpaceOnUse"
       id="clipPath36"><path
         d="M 0,176.739 H 375.251 V 0 H 0 Z"
         id="path34" /></clipPath></defs><sodipodi:namedview
     id="namedview4"
     pagecolor="#ffffff"
     bordercolor="#666666"
     borderopacity="1.0"
     inkscape:pageshadow="2"
     inkscape:pageopacity="0.0"
     inkscape:pagecheckerboard="0"
     showgrid="false"
     inkscape:snap-global="false"
     inkscape:zoom="0.97656794"
     inkscape:cx="-35.327803"
     inkscape:cy="82.943538"
     inkscape:window-width="1920"
     inkscape:window-height="1043"
     inkscape:window-x="0"
     inkscape:window-y="0"
     inkscape:window-maximized="1"
     inkscape:current-layer="g38" /><g
     id="g8"
     inkscape:groupmode="layer"
     inkscape:label="Basta_Logo_CMYK"
     transform="matrix(1.3333333,0,0,-1.3333333,-11.338266,224.31373)"><g
       id="g10"><g
         id="g12"
         clip-path="url(#clipPath16)"><g
           id="g18"
           transform="translate(364.0875,85.8813)"><path
             d="m 0,0 c -0.058,-0.572 -0.229,-1.087 -0.515,-1.544 -0.287,-0.459 -0.787,-0.845 -1.501,-1.158 -0.715,-0.316 -1.687,-0.558 -2.917,-0.73 -1.23,-0.172 -2.731,-0.256 -4.504,-0.256 -1.831,0 -3.345,0.084 -4.546,0.256 -1.201,0.172 -2.16,0.414 -2.873,0.73 -0.716,0.313 -1.216,0.699 -1.502,1.158 -0.287,0.457 -0.458,0.972 -0.515,1.544 l -2.231,77.893 c 0,0.743 0.172,1.401 0.515,1.973 0.344,0.571 0.957,1.043 1.845,1.415 0.886,0.371 2.087,0.644 3.603,0.816 1.515,0.171 3.416,0.257 5.704,0.257 2.288,0 4.174,-0.101 5.663,-0.3 1.486,-0.201 2.672,-0.487 3.559,-0.859 C 0.672,80.823 1.3,80.366 1.673,79.823 2.044,79.279 2.23,78.636 2.23,77.893 Z m 2.659,-25.135 c 0,-2.345 -0.186,-4.319 -0.557,-5.92 -0.373,-1.601 -1.03,-2.888 -1.973,-3.86 -0.944,-0.973 -2.188,-1.673 -3.732,-2.102 -1.544,-0.428 -3.489,-0.643 -5.834,-0.643 -2.345,0 -4.303,0.215 -5.876,0.643 -1.574,0.429 -2.817,1.129 -3.731,2.102 -0.916,0.972 -1.56,2.259 -1.931,3.86 -0.372,1.601 -0.557,3.575 -0.557,5.92 0,2.402 0.185,4.418 0.557,6.048 0.371,1.63 1.015,2.944 1.931,3.945 0.914,1 2.157,1.716 3.731,2.146 1.573,0.429 3.531,0.642 5.876,0.642 2.345,0 4.29,-0.213 5.834,-0.642 1.544,-0.43 2.788,-1.146 3.732,-2.146 0.943,-1.001 1.6,-2.315 1.973,-3.945 0.371,-1.63 0.557,-3.646 0.557,-6.048"
             style="fill:#1d1d1b;fill-opacity:1;fill-rule:nonzero;stroke:none"
             id="path20" /></g><g
           id="g22"
           transform="translate(366.7467,12.7559)"><path
             d="m 0,0 c 0,-2.339 -1.913,-4.252 -4.252,-4.252 h -349.739 c -2.338,0 -4.252,1.913 -4.252,4.252 v 22.268 c 0,2.339 1.914,4.252 4.252,4.252 H -4.252 C -1.913,26.52 0,24.607 0,22.268 Z"
             style="fill:#e30613;fill-opacity:1;fill-rule:nonzero;stroke:none"
             id="path24" /></g></g></g><g
       aria-label="Basels starke Alternative"
       transform="matrix(1,0,0,-1,21.106,16.0332)"
       id="text28"
       style="font-weight:bold;font-size:24.5871px;font-family:'Frutiger 55 Roman';-inkscape-font-specification:Frutiger-Black;fill:#ffffff"><path
         d="m 5.4337489,-7.6711749 h 1.6227485 c 1.721097,0 3.5405426,0.3442194 3.5405426,2.5816454 0,1.991555 -1.9423811,2.3849486 -3.5405426,2.3849486 H 5.4337489 Z m 0,-6.7860391 h 1.3277033 c 1.5735744,0 3.3192588,0.147522 3.3192588,2.139077 0,1.770271 -1.7948586,2.089904 -3.2454975,2.089904 H 5.4337489 Z M 1.991555,0 h 5.9992522 c 2.1636648,0 6.0484268,-0.63926458 6.0484268,-4.966594 0,-2.1144905 -1.598162,-3.6880649 -3.933936,-3.9093488 v -0.049174 c 2.040729,-0.3688065 3.417606,-1.794858 3.417606,-3.835587 0,-3.761827 -3.319258,-4.401091 -5.5320968,-4.401091 H 1.991555 Z"
         style="font-family:'Frutiger 65';-inkscape-font-specification:'Frutiger 65 Bold'"
         id="path18459" /><path
         d="m 19.005827,-9.170988 c 1.10642,-0.835961 2.507884,-1.376878 3.909349,-1.376878 1.942381,0 2.852104,0.6884393 2.852104,2.7291685 h -1.819446 c -1.376877,0 -2.999626,0.1229355 -4.253568,0.737613 -1.253942,0.6146774 -2.163665,1.7210969 -2.163665,3.6143035 0,2.4095357 2.188252,3.76182619 4.425678,3.76182619 1.499813,0 3.147149,-0.78678717 3.909349,-2.18825179 h 0.04917 C 25.939389,-1.499813 25.939389,-0.66385168 26.062325,0 h 2.901277 c -0.07376,-0.98348396 -0.122935,-1.8686195 -0.147522,-2.8275164 -0.02459,-0.9343098 -0.04917,-1.8932066 -0.04917,-3.1717358 v -1.6227485 c 0,-3.7372393 -1.598162,-5.3354003 -5.458336,-5.3354003 -1.401465,0 -3.122562,0.368806 -4.401091,0.958897 z m 1.671923,5.5075102 c 0,-1.9423808 2.188252,-2.1882518 3.663478,-2.1882518 h 1.426052 c 0,0.983484 -0.147523,1.8932066 -0.688439,2.6062325 -0.516329,0.6884388 -1.303116,1.1310066 -2.311187,1.1310066 -1.180181,0 -2.089904,-0.4671549 -2.089904,-1.5489873 z"
         style="font-family:'Frutiger 65';-inkscape-font-specification:'Frutiger 65 Bold'"
         id="path18461" /><path
         d="m 41.847242,-12.490246 c -1.032658,-0.221284 -2.040729,-0.467155 -3.589716,-0.467155 -2.581646,0 -4.966594,1.204768 -4.966594,3.9339356 0,4.5732005 5.728794,2.8766906 5.728794,5.3599876 0,1.229355 -1.327704,1.5489873 -2.163665,1.5489873 -1.131007,0 -2.212839,-0.3196323 -3.245497,-0.8359614 l -0.196697,2.70458091 c 1.204768,0.31963229 2.483297,0.54091618 3.737239,0.54091618 2.679994,0 5.310814,-1.18018076 5.310814,-4.13063269 0,-4.5732004 -5.728795,-3.2946712 -5.728795,-5.3108134 0,-1.0818321 1.057246,-1.4014651 1.942381,-1.4014651 1.204768,0 1.942381,0.196697 2.950452,0.540917 z"
         style="font-family:'Frutiger 65';-inkscape-font-specification:'Frutiger 65 Bold'"
         id="path18463" /><path
         d="m 49.469246,-7.5728265 c 0.147523,-1.6965099 1.081833,-2.9750395 2.925865,-2.9750395 1.844033,0 2.581646,1.376878 2.679994,2.9750395 z m 7.818698,4.1798068 c -1.229355,0.6884388 -2.606233,1.2785292 -4.204394,1.2785292 -2.040729,0 -3.466781,-1.1555937 -3.614304,-3.1963229 h 8.753008 c 0,-4.4256778 -1.327704,-7.6465876 -6.02384,-7.6465876 -3.933935,0 -5.876316,3.024213 -5.876316,6.6876907 0,4.1552198 2.434123,6.56475549 6.613929,6.56475549 1.770271,0 3.147149,-0.34421939 4.351917,-1.00807106 z"
         style="font-family:'Frutiger 65';-inkscape-font-specification:'Frutiger 65 Bold'"
         id="path18465" /><path
         d="m 62.475822,0 h 3.294672 v -18.440324 h -3.294672 z"
         style="font-family:'Frutiger 65';-inkscape-font-specification:'Frutiger 65 Bold'"
         id="path18467" /><path
         d="m 78.604959,-12.490246 c -1.032658,-0.221284 -2.040729,-0.467155 -3.589716,-0.467155 -2.581646,0 -4.966594,1.204768 -4.966594,3.9339356 0,4.5732005 5.728794,2.8766906 5.728794,5.3599876 0,1.229355 -1.327704,1.5489873 -2.163665,1.5489873 -1.131006,0 -2.212839,-0.3196323 -3.245497,-0.8359614 l -0.196697,2.70458091 c 1.204768,0.31963229 2.483297,0.54091618 3.737239,0.54091618 2.679994,0 5.310814,-1.18018076 5.310814,-4.13063269 0,-4.5732004 -5.728794,-3.2946712 -5.728794,-5.3108134 0,-1.0818321 1.057245,-1.4014651 1.94238,-1.4014651 1.204768,0 1.942381,0.196697 2.950452,0.540917 z"
         style="font-family:'Frutiger 65';-inkscape-font-specification:'Frutiger 65 Bold'"
         id="path18469" /><path
         d="m 100.88087,-12.490246 c -1.03266,-0.221284 -2.040731,-0.467155 -3.589718,-0.467155 -2.581645,0 -4.966594,1.204768 -4.966594,3.9339356 0,4.5732005 5.728794,2.8766906 5.728794,5.3599876 0,1.229355 -1.327703,1.5489873 -2.163664,1.5489873 -1.131007,0 -2.212839,-0.3196323 -3.245498,-0.8359614 l -0.196696,2.70458091 c 1.204768,0.31963229 2.483297,0.54091618 3.737239,0.54091618 2.679994,0 5.310817,-1.18018076 5.310817,-4.13063269 0,-4.5732004 -5.728798,-3.2946712 -5.728798,-5.3108134 0,-1.0818321 1.057245,-1.4014651 1.942381,-1.4014651 1.204768,0 1.942381,0.196697 2.950447,0.540917 z"
         style="font-family:'Frutiger 65';-inkscape-font-specification:'Frutiger 65 Bold'"
         id="path18471" /><path
         d="m 107.24893,-3.8110004 c 0,2.5078841 1.42605,4.10604559 4.0077,4.10604559 0.98348,0 1.74568,-0.0983484 2.43412,-0.29504519 l -0.0983,-2.6062325 c -0.34422,0.2212839 -0.90972,0.3442194 -1.49981,0.3442194 -1.25394,0 -1.54899,-1.0080711 -1.54899,-2.0899034 V -10.25282 h 2.92587 v -2.409536 h -2.92587 v -3.589716 l -3.29467,1.057245 v 2.532471 h -2.43412 v 2.409536 h 2.43412 z"
         style="font-family:'Frutiger 65';-inkscape-font-specification:'Frutiger 65 Bold'"
         id="path18473" /><path
         d="m 118.48523,-9.170988 c 1.10642,-0.835961 2.50789,-1.376878 3.90935,-1.376878 1.94238,0 2.8521,0.6884393 2.8521,2.7291685 h -1.81944 c -1.37688,0 -2.99963,0.1229355 -4.25357,0.737613 -1.25394,0.6146774 -2.16366,1.7210969 -2.16366,3.6143035 0,2.4095357 2.18825,3.76182619 4.42567,3.76182619 1.49982,0 3.14715,-0.78678717 3.90935,-2.18825179 h 0.0492 c 0.0246,0.3933936 0.0246,1.22935492 0.14752,1.8932066 h 2.90128 c -0.0738,-0.98348396 -0.12294,-1.8686195 -0.14753,-2.8275164 -0.0246,-0.9343098 -0.0492,-1.8932066 -0.0492,-3.1717358 v -1.6227485 c 0,-3.7372393 -1.59816,-5.3354003 -5.45834,-5.3354003 -1.40146,0 -3.12256,0.368806 -4.40109,0.958897 z m 1.67192,5.5075102 c 0,-1.9423808 2.18826,-2.1882518 3.66348,-2.1882518 h 1.42605 c 0,0.983484 -0.14752,1.8932066 -0.68843,2.6062325 -0.51633,0.6884388 -1.30312,1.1310066 -2.31119,1.1310066 -1.18018,0 -2.08991,-0.4671549 -2.08991,-1.5489873 z"
         style="font-family:'Frutiger 65';-inkscape-font-specification:'Frutiger 65 Bold'"
         id="path18475" /><path
         d="m 134.14722,0 h 3.29468 v -4.6469617 c 0,-1.8194454 0,-5.1632908 2.67999,-5.1632908 0.59009,0 1.18018,0.098348 1.47523,0.2704581 v -3.3192586 c -0.34422,-0.09835 -0.68844,-0.09835 -1.00808,-0.09835 -1.96696,0 -3.31925,1.991555 -3.46678,3.1717356 h -0.0492 v -2.8766906 h -2.92587 z"
         style="font-family:'Frutiger 65';-inkscape-font-specification:'Frutiger 65 Bold'"
         id="path18477" /><path
         d="m 145.80151,0 h 3.29467 v -6.1467748 h 0.0492 L 153.37433,0 h 4.17981 l -5.31081,-7.0073232 4.72072,-5.6550328 h -3.88476 l -3.93394,5.0649424 h -0.0492 V -18.440324 h -3.29467 z"
         style="font-family:'Frutiger 65';-inkscape-font-specification:'Frutiger 65 Bold'"
         id="path18479" /><path
         d="m 162.84036,-7.5728265 c 0.14752,-1.6965099 1.08183,-2.9750395 2.92586,-2.9750395 1.84404,0 2.58165,1.376878 2.68,2.9750395 z m 7.8187,4.1798068 c -1.22936,0.6884388 -2.60624,1.2785292 -4.2044,1.2785292 -2.04073,0 -3.46678,-1.1555937 -3.6143,-3.1963229 h 8.75301 c 0,-4.4256778 -1.32771,-7.6465876 -6.02384,-7.6465876 -3.93394,0 -5.87632,3.024213 -5.87632,6.6876907 0,4.1552198 2.43412,6.56475549 6.61393,6.56475549 1.77027,0 3.14715,-0.34421939 4.35192,-1.00807106 z"
         style="font-family:'Frutiger 65';-inkscape-font-specification:'Frutiger 65 Bold'"
         id="path18481" /><path
         d="m 195.09863,-6.6385168 h -5.01576 l 2.48329,-7.0810842 h 0.0492 z M 184.03444,0 h 3.56513 l 1.49981,-3.9339359 h 6.95815 L 197.53276,0 h 3.811 l -6.73687,-17.161795 h -3.88476 z"
         style="font-family:'Frutiger 65';-inkscape-font-specification:'Frutiger 65 Bold'"
         id="path18483" /><path
         d="m 204.46632,0 h 3.29467 v -18.440324 h -3.29467 z"
         style="font-family:'Frutiger 65';-inkscape-font-specification:'Frutiger 65 Bold'"
         id="path18485" /><path
         d="m 214.42409,-3.8110004 c 0,2.5078841 1.42606,4.10604559 4.0077,4.10604559 0.98349,0 1.74569,-0.0983484 2.43412,-0.29504519 l -0.0983,-2.6062325 c -0.34422,0.2212839 -0.90973,0.3442194 -1.49982,0.3442194 -1.25394,0 -1.54898,-1.0080711 -1.54898,-2.0899034 V -10.25282 h 2.92586 v -2.409536 h -2.92586 v -3.589716 l -3.29468,1.057245 v 2.532471 h -2.43412 v 2.409536 h 2.43412 z"
         style="font-family:'Frutiger 65';-inkscape-font-specification:'Frutiger 65 Bold'"
         id="path18487" /><path
         d="m 227.82406,-7.5728265 c 0.14753,-1.6965099 1.08184,-2.9750395 2.92587,-2.9750395 1.84403,0 2.58164,1.376878 2.67999,2.9750395 z m 7.8187,4.1798068 c -1.22935,0.6884388 -2.60623,1.2785292 -4.20439,1.2785292 -2.04073,0 -3.46678,-1.1555937 -3.61431,-3.1963229 h 8.75301 c 0,-4.4256778 -1.3277,-7.6465876 -6.02384,-7.6465876 -3.93394,0 -5.87632,3.024213 -5.87632,6.6876907 0,4.1552198 2.43413,6.56475549 6.61393,6.56475549 1.77027,0 3.14715,-0.34421939 4.35192,-1.00807106 z"
         style="font-family:'Frutiger 65';-inkscape-font-specification:'Frutiger 65 Bold'"
         id="path18489" /><path
         d="m 241.32238,0 h 3.29467 v -4.6469617 c 0,-1.8194454 0,-5.1632908 2.67999,-5.1632908 0.5901,0 1.18019,0.098348 1.47523,0.2704581 v -3.3192586 c -0.34422,-0.09835 -0.68844,-0.09835 -1.00807,-0.09835 -1.96697,0 -3.31926,1.991555 -3.46678,3.1717356 h -0.0492 v -2.8766906 h -2.92586 z"
         style="font-family:'Frutiger 65';-inkscape-font-specification:'Frutiger 65 Bold'"
         id="path18491" /><path
         d="m 252.85374,0 h 3.29467 v -6.195949 c 0,-1.6227485 0.51633,-4.204394 2.90128,-4.204394 2.11449,0 2.13907,2.0899035 2.13907,3.6388908 V 0 h 3.29467 v -7.9908072 c 0,-2.8521038 -1.30311,-4.9665938 -4.30274,-4.9665938 -1.7211,0 -3.12256,0.565503 -4.15522,2.016142 h -0.0492 v -1.721097 h -3.12256 z"
         style="font-family:'Frutiger 65';-inkscape-font-specification:'Frutiger 65 Bold'"
         id="path18493" /><path
         d="m 270.6548,-9.170988 c 1.10641,-0.835961 2.50788,-1.376878 3.90934,-1.376878 1.94238,0 2.85211,0.6884393 2.85211,2.7291685 h -1.81945 c -1.37688,0 -2.99962,0.1229355 -4.25357,0.737613 -1.25394,0.6146774 -2.16366,1.7210969 -2.16366,3.6143035 0,2.4095357 2.18825,3.76182619 4.42568,3.76182619 1.49981,0 3.14715,-0.78678717 3.90935,-2.18825179 h 0.0492 c 0.0246,0.3933936 0.0246,1.22935492 0.14752,1.8932066 h 2.90128 c -0.0738,-0.98348396 -0.12294,-1.8686195 -0.14752,-2.8275164 -0.0246,-0.9343098 -0.0492,-1.8932066 -0.0492,-3.1717358 v -1.6227485 c 0,-3.7372393 -1.59816,-5.3354003 -5.45833,-5.3354003 -1.40147,0 -3.12256,0.368806 -4.40109,0.958897 z m 1.67192,5.5075102 c 0,-1.9423808 2.18825,-2.1882518 3.66348,-2.1882518 h 1.42605 c 0,0.983484 -0.14753,1.8932066 -0.68844,2.6062325 -0.51633,0.6884388 -1.30312,1.1310066 -2.31119,1.1310066 -1.18018,0 -2.0899,-0.4671549 -2.0899,-1.5489873 z"
         style="font-family:'Frutiger 65';-inkscape-font-specification:'Frutiger 65 Bold'"
         id="path18495" /><path
         d="m 286.34136,-3.8110004 c 0,2.5078841 1.42605,4.10604559 4.0077,4.10604559 0.98348,0 1.74568,-0.0983484 2.43412,-0.29504519 l -0.0984,-2.6062325 c -0.34422,0.2212839 -0.90972,0.3442194 -1.49981,0.3442194 -1.25394,0 -1.54899,-1.0080711 -1.54899,-2.0899034 V -10.25282 h 2.92587 v -2.409536 h -2.92587 v -3.589716 l -3.29467,1.057245 v 2.532471 h -2.43412 v 2.409536 h 2.43412 z"
         style="font-family:'Frutiger 65';-inkscape-font-specification:'Frutiger 65 Bold'"
         id="path18497" /><path
         d="m 296.49583,0 h 3.29467 v -12.662356 h -3.29467 z m 0,-14.973543 h 3.29467 v -3.147149 h -3.29467 z"
         style="font-family:'Frutiger 65';-inkscape-font-specification:'Frutiger 65 Bold'"
         id="path18499" /><path
         d="m 308.17471,0 h 3.71266 l 4.67154,-12.662356 h -3.29467 l -3.0488,9.2201621 h -0.0492 l -3.14715,-9.2201621 h -3.54054 z"
         style="font-family:'Frutiger 65';-inkscape-font-specification:'Frutiger 65 Bold'"
         id="path18501" /><path
         d="m 322.97613,-7.5728265 c 0.14752,-1.6965099 1.08183,-2.9750395 2.92587,-2.9750395 1.84403,0 2.58164,1.376878 2.67999,2.9750395 z m 7.8187,4.1798068 c -1.22936,0.6884388 -2.60623,1.2785292 -4.20439,1.2785292 -2.04073,0 -3.46679,-1.1555937 -3.61431,-3.1963229 h 8.75301 c 0,-4.4256778 -1.3277,-7.6465876 -6.02384,-7.6465876 -3.93394,0 -5.87632,3.024213 -5.87632,6.6876907 0,4.1552198 2.43413,6.56475549 6.61393,6.56475549 1.77027,0 3.14715,-0.34421939 4.35192,-1.00807106 z"
         style="font-family:'Frutiger 65';-inkscape-font-specification:'Frutiger 65 Bold'"
         id="path18503" /></g><g
       id="g30"><g
         id="g32"
         clip-path="url(#clipPath36)"><g
           id="g38"
           transform="translate(272.582,92.897)"><path
             d="m 0,0 15.699,47.182 h 0.085 L 31.483,0 Z m -141.507,-20.149 c -2.632,-2.973 -5.22,-5.232 -7.764,-6.776 -2.545,-1.545 -5.333,-2.317 -8.364,-2.317 -3.603,0 -6.421,0.915 -8.45,2.746 -2.031,1.829 -3.045,4.345 -3.045,7.548 0,1.888 0.356,3.561 1.072,5.019 0.714,1.458 1.845,2.702 3.389,3.731 1.544,1.03 3.545,1.802 6.005,2.317 2.458,0.514 5.432,0.772 8.921,0.772 h 8.236 z m -66.939,1.86 c -0.887,-1.917 -2.117,-3.518 -3.689,-4.804 -1.574,-1.287 -3.431,-2.26 -5.576,-2.917 -2.145,-0.658 -4.791,-0.986 -7.935,-0.986 h -16.299 V 4.572 h 13.382 c 4.118,0 7.463,-0.372 10.037,-1.115 2.573,-0.743 4.689,-1.801 6.348,-3.174 1.658,-1.372 2.917,-3.075 3.775,-5.104 0.858,-2.03 1.286,-4.332 1.286,-6.905 0,-2.46 -0.444,-4.648 -1.329,-6.563 m -33.499,68.156 h 11.409 c 3.488,0 6.276,-0.315 8.364,-0.943 2.087,-0.63 3.818,-1.531 5.19,-2.702 1.373,-1.173 2.402,-2.647 3.088,-4.418 0.686,-1.774 1.03,-3.776 1.03,-6.005 0,-2.003 -0.315,-3.903 -0.944,-5.705 -0.63,-1.802 -1.587,-3.375 -2.874,-4.719 -1.287,-1.344 -2.903,-2.401 -4.847,-3.174 -1.945,-0.771 -4.546,-1.158 -7.806,-1.158 h -12.61 z M 68.027,-40.252 c -0.171,1.2 -0.6,2.83 -1.286,4.89 L 32.427,64.167 c -0.343,1.086 -0.759,1.943 -1.244,2.573 -0.487,0.629 -1.287,1.101 -2.402,1.416 -1.115,0.314 -2.675,0.515 -4.676,0.601 -2.001,0.085 -4.689,0.128 -8.063,0.128 -2.917,0 -5.263,-0.043 -7.034,-0.128 C 7.234,68.671 5.847,68.47 4.847,68.156 3.846,67.841 3.116,67.384 2.659,66.783 2.201,66.183 1.802,65.396 1.458,64.424 l -31.125,-90.585 c -3.066,0.114 -5.231,1.142 -6.469,3.109 -1.316,2.087 -1.973,5.218 -1.973,9.393 v 34.583 h 16.729 c 1.086,0 1.916,0.672 2.488,2.016 0.571,1.344 0.858,3.589 0.858,6.734 0,1.659 -0.073,3.059 -0.215,4.205 -0.143,1.142 -0.358,2.043 -0.643,2.702 -0.287,0.656 -0.644,1.128 -1.072,1.415 -0.43,0.285 -0.932,0.428 -1.502,0.428 h -16.643 v 18.432 c 0,0.572 -0.171,1.086 -0.515,1.544 -0.342,0.458 -0.914,0.844 -1.715,1.159 -0.801,0.314 -1.902,0.543 -3.303,0.686 -1.402,0.143 -3.16,0.215 -5.275,0.215 -2.059,0 -3.789,-0.072 -5.19,-0.215 -1.402,-0.143 -2.517,-0.372 -3.345,-0.686 -0.83,-0.315 -1.403,-0.701 -1.717,-1.159 -0.315,-0.458 -0.471,-0.972 -0.471,-1.544 V 38.424 h -11.031 c -1.214,0.559 -2.668,1.08 -4.383,1.563 -1.831,0.515 -3.875,0.943 -6.134,1.287 -2.26,0.343 -4.59,0.515 -6.992,0.515 -4.804,0 -9.136,-0.601 -12.996,-1.802 -3.86,-1.201 -7.135,-2.889 -9.823,-5.062 -2.688,-2.173 -4.747,-4.79 -6.176,-7.849 -1.43,-3.06 -2.145,-6.42 -2.145,-10.079 0,-3.604 0.528,-6.692 1.587,-9.265 1.058,-2.574 2.458,-4.776 4.204,-6.605 1.744,-1.831 3.717,-3.375 5.919,-4.633 2.201,-1.259 4.461,-2.374 6.777,-3.346 2.316,-0.973 4.575,-1.859 6.777,-2.659 2.201,-0.802 4.174,-1.659 5.919,-2.573 1.744,-0.916 3.145,-1.989 4.204,-3.218 1.057,-1.231 1.587,-2.702 1.587,-4.417 0,-1.488 -0.287,-2.804 -0.858,-3.946 -0.573,-1.145 -1.415,-2.373 -2.531,-3.115 -1.115,-0.744 -2.431,-1.316 -3.946,-1.716 -1.516,-0.4 -3.246,-0.6 -5.19,-0.6 -3.088,0 -5.848,0.371 -8.278,1.115 -2.432,0.742 -4.562,1.544 -6.391,2.402 -1.452,0.68 -2.706,1.312 -3.779,1.903 -1.354,0.808 -2.695,1.731 -3.947,2.78 -1.156,0.968 -2.162,1.911 -3.052,2.815 v 29.673 c 0,5.261 -0.63,9.808 -1.888,13.64 -1.258,3.831 -3.26,6.962 -6.005,9.394 -2.745,2.429 -6.248,4.231 -10.508,5.404 -4.261,1.172 -9.394,1.759 -15.399,1.759 -3.375,0 -6.648,-0.273 -9.822,-0.816 -3.174,-0.544 -6.106,-1.244 -8.793,-2.101 -2.689,-0.858 -5.034,-1.788 -7.035,-2.788 -2.002,-1.001 -3.403,-1.917 -4.203,-2.745 -0.801,-0.831 -1.344,-1.759 -1.63,-2.789 -0.287,-1.029 -0.429,-2.431 -0.429,-4.203 0,-1.316 0.086,-2.517 0.258,-3.603 0.171,-1.087 0.414,-2.002 0.729,-2.745 0.313,-0.743 0.714,-1.317 1.201,-1.716 0.485,-0.4 1.042,-0.6 1.673,-0.6 0.914,0 2.101,0.4 3.56,1.2 1.458,0.801 3.273,1.687 5.447,2.661 2.173,0.971 4.675,1.857 7.506,2.659 2.831,0.8 6.048,1.201 9.651,1.201 2.745,0 5.047,-0.287 6.905,-0.858 1.858,-0.573 3.346,-1.458 4.461,-2.66 1.116,-1.201 1.916,-2.702 2.402,-4.503 0.486,-1.802 0.73,-3.904 0.73,-6.305 V 6.445 h -7.464 c -6.806,0 -12.782,-0.515 -17.929,-1.544 -5.147,-1.029 -9.451,-2.616 -12.91,-4.762 -1.811,-1.121 -3.38,-2.404 -4.721,-3.839 -0.245,1.016 -0.526,2.01 -0.882,2.954 -1.145,3.03 -2.702,5.675 -4.675,7.936 -1.974,2.257 -4.289,4.102 -6.949,5.532 -2.659,1.429 -5.563,2.43 -8.707,3.003 2.458,0.914 4.646,2.115 6.562,3.602 1.916,1.488 3.531,3.203 4.847,5.148 1.315,1.943 2.316,4.103 3.003,6.476 0.686,2.373 1.029,4.904 1.029,7.593 0,4.804 -0.858,8.978 -2.573,12.524 -1.716,3.545 -4.19,6.477 -7.421,8.793 -3.231,2.317 -7.206,4.045 -11.924,5.19 -4.718,1.143 -10.481,1.716 -17.286,1.716 h -27.88 c -1.887,0 -3.474,-0.558 -4.761,-1.673 -1.287,-1.115 -1.93,-2.932 -1.93,-5.447 v -96.766 c 0,-2.518 0.643,-4.332 1.93,-5.447 1.287,-1.116 2.874,-1.673 4.761,-1.673 h 29.51 c 4.461,0 8.506,0.27 12.139,0.815 3.631,0.542 7.048,1.386 10.251,2.531 3.202,1.143 6.134,2.601 8.793,4.375 2.659,1.771 4.946,3.888 6.863,6.347 0.353,0.454 0.678,0.934 1.003,1.413 0.199,-0.576 0.412,-1.141 0.653,-1.685 1.373,-3.088 3.303,-5.676 5.791,-7.763 2.488,-2.088 5.432,-3.661 8.836,-4.718 3.402,-1.058 7.134,-1.587 11.195,-1.587 4.918,0 9.393,0.943 13.425,2.83 4.032,1.888 7.62,4.518 10.766,7.893 v -6.091 c 0,-0.802 0.243,-1.43 0.729,-1.887 0.486,-0.459 1.315,-0.786 2.488,-0.987 1.172,-0.199 3.046,-0.3 5.619,-0.3 2.402,0 4.217,0.101 5.448,0.3 1.229,0.201 2.13,0.528 2.702,0.987 0.571,0.457 0.858,1.085 0.858,1.887 v 2.324 c 2.395,-1.387 6.303,-3.445 10.438,-4.671 6.69,-1.985 13.907,-2.285 15.438,-2.285 4.746,0 9.149,0.558 13.211,1.673 4.06,1.115 7.577,2.787 10.552,5.017 2.973,2.231 5.275,5.004 6.905,8.322 1.63,3.316 2.445,7.148 2.445,11.495 0,3.488 -0.544,6.505 -1.63,9.051 -1.087,2.544 -2.517,4.731 -4.289,6.562 -1.773,1.83 -3.789,3.374 -6.048,4.633 -2.26,1.257 -4.547,2.358 -6.863,3.303 -2.316,0.943 -4.604,1.814 -6.863,2.616 -2.259,0.8 -4.276,1.658 -6.048,2.573 -1.773,0.914 -3.203,1.974 -4.289,3.174 -1.087,1.201 -1.63,2.687 -1.63,4.461 0,1.143 0.228,2.216 0.687,3.217 0.457,1 1.143,1.873 2.059,2.617 0.914,0.742 2.087,1.314 3.517,1.716 1.428,0.399 3.116,0.599 5.061,0.599 2.745,0 5.19,-0.3 7.335,-0.9 1.363,-0.382 2.611,-0.783 3.766,-1.199 0.662,-0.239 1.302,-0.481 1.895,-0.731 1.63,-0.686 2.988,-1.33 4.075,-1.93 0.797,-0.441 1.551,-0.834 2.777,-0.834 h 8.177 v -37.843 c 0,-4.689 0.485,-8.75 1.457,-12.181 0.973,-3.431 2.489,-6.277 4.547,-8.536 2.059,-2.26 4.66,-3.932 7.807,-5.018 0.883,-0.305 3.881,-1.262 7.595,-1.497 2.941,-0.186 6.331,-0.371 9.475,-0.385 5.567,-0.026 10.362,0.241 10.53,0.254 1.514,0.115 2.687,0.499 3.517,0.812 0.828,0.315 1.429,0.743 1.802,1.287 0.371,0.543 0.671,1.215 0.9,2.016 l 7.034,22.838 h 41.692 l 7.464,-23.438 c 0.227,-0.744 0.514,-1.344 0.857,-1.801 0.344,-0.459 0.943,-0.816 1.802,-1.073 0.857,-0.257 2.101,-0.428 3.731,-0.514 1.63,-0.086 3.904,-0.129 6.821,-0.129 2.8,0 5.004,0.072 6.605,0.215 1.601,0.142 2.716,0.514 3.346,1.115 0.628,0.599 0.857,1.501 0.685,2.702"
             style="fill:#1d1d1b;fill-opacity:1;fill-rule:nonzero;stroke:none"
             id="path40" /></g></g></g></g></svg>
