<?xml version="1.0" encoding="UTF-8" standalone="no"?>
<!-- Created with Inkscape (http://www.inkscape.org/) -->

<svg
   xmlns:inkscape="http://www.inkscape.org/namespaces/inkscape"
   xmlns:sodipodi="http://sodipodi.sourceforge.net/DTD/sodipodi-0.dtd"
   xmlns:svg="http://www.w3.org/2000/svg"
   version="1.1"
   id="svg350"
   xml:space="preserve"
   width="191.0208"
   height="35.479332"
   viewBox="0 0 191.0208 35.479332"
   sodipodi:docname="logo_jgs_it_white.svg"
   inkscape:version="1.1.1 (3bf5ae0d25, 2021-09-20)"
   xmlns="http://www.w3.org/2000/svg"><sodipodi:namedview
     id="namedview107"
     pagecolor="#ffffff"
     bordercolor="#666666"
     borderopacity="1.0"
     inkscape:pageshadow="2"
     inkscape:pageopacity="0.0"
     inkscape:pagecheckerboard="0"
     showgrid="false"
     inkscape:zoom="5.0530165"
     inkscape:cx="108.74692"
     inkscape:cy="17.910094"
     inkscape:window-width="1280"
     inkscape:window-height="656"
     inkscape:window-x="0"
     inkscape:window-y="0"
     inkscape:window-maximized="1"
     inkscape:current-layer="svg350" /><defs
     id="defs354"><clipPath
       clipPathUnits="userSpaceOnUse"
       id="clipPath364"><path
         d="M 0,53.505 H 205.125 V 0 H 0 Z"
         id="path362" /></clipPath></defs><g
     id="g356"
     transform="matrix(1.3333333,0,0,-1.3333333,-28.144666,53.487865)"><g
       id="g358"><g
         id="g360"
         clip-path="url(#clipPath364)"><g
           id="g366"
           transform="translate(40.7896,21.6521)"><path
             d="M 0,0 C 0,0.507 -0.357,0.865 -0.864,0.865 H -4.68 C -5.187,0.865 -5.545,0.507 -5.545,0 v -0.566 c 0,-0.507 0.358,-0.865 0.865,-0.865 h 3.816 c 0.476,0 0.864,0.388 0.864,0.865 z m -1.282,10.553 c 0,1.194 -0.894,2.117 -2.116,2.117 -1.252,0 -2.147,-0.923 -2.147,-2.117 v -0.267 c 0,-1.193 0.895,-2.147 2.147,-2.147 1.192,0 2.116,0.954 2.116,2.147 z M -0.864,-4.562 H -4.68 c -2.565,0 -4.294,1.7 -4.294,3.996 V 0 c 0,1.133 0.508,1.729 1.104,2.444 0.298,0.328 0.506,0.477 0.506,0.657 0,0.179 -0.298,0.627 -0.298,1.43 0,0.865 0.417,1.431 0.417,1.671 0,0.089 -0.029,0.148 -0.088,0.207 -0.716,0.985 -1.641,1.879 -1.641,3.877 v 0.267 c 0,2.982 2.356,5.247 5.367,5.247 1.312,0 2.086,-0.595 2.444,-0.595 0.239,0 0.03,0.595 0.477,0.595 h 2.535 c 0.178,0 0.297,-0.088 0.297,-0.297 V 10.286 C 2.146,7.155 -0.119,5.01 -3.786,5.01 H -4.233 C -4.382,4.86 -4.441,4.711 -4.441,4.531 c 0,-0.178 0.088,-0.358 0.237,-0.535 h 3.34 c 2.563,0 4.293,-1.7 4.293,-3.996 v -0.566 c 0,-2.296 -1.759,-3.996 -4.293,-3.996"
             style="fill:#ffffff;fill-opacity:1;fill-rule:nonzero;stroke:none"
             id="path368" /></g><g
           id="g370"
           transform="translate(48.3027,23.7991)"><path
             d="m 0,0 h -2.803 c -0.208,0 -0.298,0.089 -0.298,0.297 v 13.059 c 0,0.209 0.09,0.297 0.298,0.297 H 0 c 0.179,0 0.297,-0.088 0.297,-0.297 V 0.297 C 0.297,0.089 0.208,0 0,0"
             style="fill:#ffffff;fill-opacity:1;fill-rule:nonzero;stroke:none"
             id="path372" /></g><g
           id="g374"
           transform="translate(58.5586,32.4749)"><path
             d="M 0,0 C 0,1.192 -0.925,2.147 -2.117,2.147 -3.369,2.147 -4.264,1.192 -4.264,0 v -3.697 c 0,-1.193 0.895,-2.147 2.147,-2.147 1.192,0 2.117,0.954 2.117,2.147 z m -2.117,-8.974 c -3.369,0 -5.575,2.117 -5.575,5.277 V 0 c 0,3.161 2.206,5.276 5.575,5.276 3.339,0 5.545,-2.115 5.545,-5.276 v -3.697 c 0,-3.16 -2.206,-5.277 -5.545,-5.277"
             style="fill:#ffffff;fill-opacity:1;fill-rule:nonzero;stroke:none"
             id="path376" /></g><g
           id="g378"
           transform="translate(70.2744,23.9778)"><path
             d="M 0,0 C -0.06,-0.12 -0.149,-0.179 -0.268,-0.179 H -2.415 C -2.504,-0.15 -2.594,-0.089 -2.683,0 l -5.276,13.058 c -0.031,0.06 -0.061,0.119 -0.061,0.179 0,0.149 0.12,0.238 0.329,0.238 h 3.01 c 0.09,-0.03 0.18,-0.089 0.269,-0.178 1.401,-3.667 2.474,-6.411 3.13,-8.199 2.058,5.485 2.683,8.377 3.28,8.377 h 3.041 c 0.209,0 0.328,-0.089 0.328,-0.238 0,-0.06 -0.03,-0.119 -0.06,-0.179 z"
             style="fill:#ffffff;fill-opacity:1;fill-rule:nonzero;stroke:none"
             id="path380" /></g><g
           id="g382"
           transform="translate(79.9971,29.0759)"><path
             d="m 0,0 c -0.448,0 -0.805,-0.388 -0.805,-0.834 v -0.448 c 0,-0.507 0.328,-0.865 0.805,-0.865 h 1.133 c 0.924,0 1.61,0.566 1.997,1.669 0,0 0,0.149 0.03,0.478 z M 6.261,-5.277 H 3.727 c -0.447,0 -0.239,0.567 -0.507,0.567 -0.328,0 -1.014,-0.567 -2.087,-0.567 H 0 c -2.475,0 -4.204,1.699 -4.204,3.995 v 0.149 c 0,2.355 1.729,3.995 4.204,3.995 h 2.862 c 0.179,0 0.298,0.09 0.298,0.267 v 0.06 L 3.13,3.547 C 3.011,4.77 2.206,5.546 0.983,5.546 0.447,5.546 -0.209,5.217 -0.656,4.651 -1.074,4.114 -1.193,3.667 -1.431,3.667 c -0.06,0 -0.119,0.03 -0.179,0.06 l -2.445,1.282 c -0.119,0.059 -0.178,0.149 -0.178,0.208 0,0.239 0.417,1.193 1.43,2.176 0.895,0.865 2.177,1.282 3.786,1.282 3.37,0 5.575,-2.086 5.575,-5.247 v -8.407 c 0,-0.208 -0.089,-0.298 -0.297,-0.298"
             style="fill:#ffffff;fill-opacity:1;fill-rule:nonzero;stroke:none"
             id="path384" /></g><g
           id="g386"
           transform="translate(100.0313,23.7991)"><path
             d="m 0,0 h -2.833 c -0.209,0 -0.298,0.089 -0.298,0.297 v 8.109 c 0,1.194 -0.894,2.117 -2.116,2.117 -1.253,0 -2.147,-0.923 -2.147,-2.117 V 0.297 C -7.394,0.089 -7.484,0 -7.692,0 h -2.803 c -0.209,0 -0.298,0.089 -0.298,0.297 v 13.059 c 0,0.209 0.089,0.297 0.298,0.297 h 2.535 c 0.447,0 0.268,-0.595 0.506,-0.595 0.358,0 1.074,0.595 2.445,0.595 3.04,0 5.306,-2.146 5.306,-5.247 V 0.297 C 0.297,0.089 0.208,0 0,0"
             style="fill:#ffffff;fill-opacity:1;fill-rule:nonzero;stroke:none"
             id="path388" /></g><g
           id="g390"
           transform="translate(106.1426,23.7991)"><path
             d="m 0,0 h -2.804 c -0.207,0 -0.298,0.089 -0.298,0.297 v 13.059 c 0,0.209 0.091,0.297 0.298,0.297 H 0 c 0.179,0 0.298,-0.088 0.298,-0.297 V 0.297 C 0.298,0.089 0.207,0 0,0"
             style="fill:#ffffff;fill-opacity:1;fill-rule:nonzero;stroke:none"
             id="path392" /></g><g
           id="g394"
           transform="translate(119.7061,23.9778)"><path
             d="M 0,0 C -0.058,-0.12 -0.148,-0.179 -0.267,-0.179 H -2.415 C -2.504,-0.15 -2.594,-0.089 -2.683,0 l -5.276,13.058 c -0.03,0.06 -0.061,0.119 -0.061,0.179 0,0.149 0.121,0.238 0.329,0.238 h 3.01 c 0.091,-0.03 0.179,-0.089 0.27,-0.178 1.4,-3.667 2.474,-6.411 3.129,-8.199 2.058,5.485 2.684,8.377 3.28,8.377 h 3.041 c 0.208,0 0.327,-0.089 0.327,-0.238 0,-0.06 -0.029,-0.119 -0.059,-0.179 z"
             style="fill:#ffffff;fill-opacity:1;fill-rule:nonzero;stroke:none"
             id="path396" /></g><g
           id="g398"
           transform="translate(132.9434,32.9212)"><path
             d="m 0,0 c 0,0.806 -0.984,1.701 -2.057,1.701 -1.133,0 -2.088,-0.895 -2.088,-1.73 0,-0.18 0.09,-0.269 0.299,-0.269 h 3.547 C -0.09,-0.298 0,-0.209 0,0 m 3.189,-3.159 h -7.094 c -0.209,0 -0.299,-0.091 -0.299,-0.299 v -0.686 c 0,-1.192 0.894,-2.147 2.147,-2.147 0.865,0 1.4,0.479 1.909,1.431 0.178,0.359 0.296,0.568 0.446,0.568 0.06,0 0.091,0 0.15,-0.031 L 3.041,-5.605 C 3.16,-5.664 3.22,-5.753 3.22,-5.843 3.22,-6.171 2.771,-6.976 1.759,-8.049 0.895,-8.943 -0.388,-9.42 -2.057,-9.42 c -3.369,0 -5.576,2.117 -5.576,5.276 v 3.698 c 0,0.924 0.3,1.937 0.835,2.742 1.074,1.61 2.803,2.534 4.741,2.534 1.909,0 3.667,-0.924 4.71,-2.534 0.536,-0.805 0.834,-1.818 0.834,-2.742 v -2.416 c 0,-0.208 -0.088,-0.297 -0.298,-0.297"
             style="fill:#ffffff;fill-opacity:1;fill-rule:nonzero;stroke:none"
             id="path400" /></g><g
           id="g402"
           transform="translate(146.002,33.6965)"><path
             d="m 0,0 c -0.388,0 -1.015,0.596 -1.849,0.596 -1.163,0 -2.056,-0.924 -2.056,-2.087 V -9.6 c 0,-0.208 -0.091,-0.297 -0.298,-0.297 h -2.804 c -0.208,0 -0.298,0.089 -0.298,0.297 V 3.458 c 0,0.209 0.09,0.298 0.298,0.298 h 2.534 c 0.209,0 0.299,-0.058 0.299,-0.269 V 3.07 c 0,-0.178 0.089,-0.267 0.269,-0.298 l 0.178,0.09 c 0.776,0.596 1.491,0.894 2.265,0.894 1.045,0 1.671,-0.237 1.671,-0.536 V 0.328 C 0.209,0.12 0.12,0 0,0"
             style="fill:#ffffff;fill-opacity:1;fill-rule:nonzero;stroke:none"
             id="path404" /></g><g
           id="g406"
           transform="translate(154.8633,29.0759)"><path
             d="m 0,0 c 0,-1.222 -0.894,-2.147 -2.116,-2.147 -1.251,0 -2.147,0.925 -2.147,2.147 v 3.129 c 0,1.194 0.896,2.117 2.147,2.117 C -0.894,5.246 0,4.323 0,3.129 Z m -0.208,7.781 c -0.328,0 -1.103,0.595 -2.385,0.595 -2.862,0 -5.097,-2.235 -5.097,-5.247 V 0 c 0,-3.13 2.265,-5.277 5.366,-5.277 1.34,0 2.056,0.597 2.415,0.597 0.297,0 0.059,-0.597 0.507,-0.597 h 2.534 c 0.208,0 0.298,0.09 0.298,0.298 V 11.04 H 0 V 8.108 C 0,7.9 -0.089,7.781 -0.208,7.781"
             style="fill:#ffffff;fill-opacity:1;fill-rule:nonzero;stroke:none"
             id="path408" /></g><g
           id="g410"
           transform="translate(164.0771,23.7991)"><path
             d="m 0,0 h -2.803 c -0.209,0 -0.299,0.089 -0.299,0.297 v 13.059 c 0,0.209 0.09,0.297 0.299,0.297 H 0 c 0.179,0 0.297,-0.088 0.297,-0.297 V 0.297 C 0.297,0.089 0.208,0 0,0"
             style="fill:#ffffff;fill-opacity:1;fill-rule:nonzero;stroke:none"
             id="path412" /></g><g
           id="g414"
           transform="translate(28.2515,17.0784)"><path
             d="m 0,0 c 0,-1.973 -1.598,-3.572 -3.571,-3.572 -1.973,0 -3.572,1.599 -3.572,3.572 0,1.973 1.599,3.571 3.572,3.571 C -1.598,3.571 0,1.973 0,0"
             style="fill:#ffffff;fill-opacity:1;fill-rule:nonzero;stroke:none"
             id="path416" /></g></g></g></g></svg>
