<?xml version="1.0" encoding="UTF-8" standalone="no"?>
<!-- Created with Inkscape (http://www.inkscape.org/) -->

<svg
   xmlns:inkscape="http://www.inkscape.org/namespaces/inkscape"
   xmlns:sodipodi="http://sodipodi.sourceforge.net/DTD/sodipodi-0.dtd"
   xmlns:svg="http://www.w3.org/2000/svg"
   version="1.1"
   id="svg206"
   xml:space="preserve"
   width="217.26306"
   height="35.325867"
   viewBox="0 0 217.26306 35.325867"
   sodipodi:docname="logo_jgs_fr_white.svg"
   inkscape:version="1.1.1 (3bf5ae0d25, 2021-09-20)"
   xmlns="http://www.w3.org/2000/svg"><sodipodi:namedview
     id="namedview72"
     pagecolor="#ffffff"
     bordercolor="#666666"
     borderopacity="1.0"
     inkscape:pageshadow="2"
     inkscape:pageopacity="0.0"
     inkscape:pagecheckerboard="0"
     showgrid="false"
     inkscape:zoom="5.0530165"
     inkscape:cx="108.74692"
     inkscape:cy="17.712192"
     inkscape:window-width="1280"
     inkscape:window-height="656"
     inkscape:window-x="0"
     inkscape:window-y="0"
     inkscape:window-maximized="1"
     inkscape:current-layer="svg206" /><defs
     id="defs210"><clipPath
       clipPathUnits="userSpaceOnUse"
       id="clipPath220"><path
         d="M 0,53.505 H 205.125 V 0 H 0 Z"
         id="path218" /></clipPath></defs><g
     id="g212"
     transform="matrix(1.3333333,0,0,-1.3333333,-28.144666,53.334399)"><g
       id="g214"><g
         id="g216"
         clip-path="url(#clipPath220)"><g
           id="g222"
           transform="translate(28.2515,17.0784)"><path
             d="m 0,0 c 0,-1.973 -1.598,-3.572 -3.571,-3.572 -1.973,0 -3.572,1.599 -3.572,3.572 0,1.973 1.599,3.571 3.572,3.571 C -1.598,3.571 0,1.973 0,0"
             style="fill:#ffffff;fill-opacity:1;fill-rule:nonzero;stroke:none"
             id="path224" /></g><g
           id="g226"
           transform="translate(35.5649,18.0159)"><path
             d="m 0,0 c -1.161,-0.774 -2.321,-1.19 -3.422,-1.19 -0.237,0 -0.327,0.059 -0.327,0.296 v 2.53 c 0,0.356 0.327,0.297 1.102,0.475 0.862,0.209 1.457,0.982 1.457,1.934 v 15.084 c 0,0.208 0.088,0.298 0.297,0.298 h 2.797 c 0.178,0 0.297,-0.09 0.297,-0.298 V 4.313 C 2.201,2.558 1.369,0.921 0,0"
             style="fill:#ffffff;fill-opacity:1;fill-rule:nonzero;stroke:none"
             id="path228" /></g><g
           id="g230"
           transform="translate(47.2866,32.9207)"><path
             d="m 0,0 c 0,0.803 -0.982,1.695 -2.054,1.695 -1.13,0 -2.081,-0.892 -2.081,-1.725 0,-0.178 0.089,-0.267 0.296,-0.267 h 3.542 C -0.089,-0.297 0,-0.208 0,0 m 3.183,-3.154 h -7.08 c -0.209,0 -0.298,-0.089 -0.298,-0.298 v -0.683 c 0,-1.191 0.892,-2.143 2.141,-2.143 0.864,0 1.399,0.476 1.905,1.428 0.179,0.357 0.297,0.566 0.446,0.566 0.06,0 0.089,0 0.149,-0.03 l 2.588,-1.28 c 0.12,-0.059 0.179,-0.149 0.179,-0.238 0,-0.327 -0.447,-1.13 -1.458,-2.201 -0.862,-0.893 -2.142,-1.369 -3.809,-1.369 -3.361,0 -5.562,2.113 -5.562,5.267 v 3.689 c 0,0.922 0.297,1.933 0.833,2.737 1.071,1.606 2.796,2.528 4.729,2.528 1.905,0 3.66,-0.922 4.702,-2.528 C 3.183,1.487 3.48,0.476 3.48,-0.446 v -2.41 c 0,-0.209 -0.089,-0.298 -0.297,-0.298"
             style="fill:#ffffff;fill-opacity:1;fill-rule:nonzero;stroke:none"
             id="path232" /></g><g
           id="g234"
           transform="translate(63.1431,23.8162)"><path
             d="M 0,0 H -2.529 C -2.946,0 -2.767,0.595 -3.035,0.595 -3.391,0.595 -4.106,0 -5.445,0 c -3.093,0 -5.326,2.143 -5.326,5.267 v 8.062 c 0,0.208 0.09,0.298 0.299,0.298 h 2.826 c 0.178,0 0.298,-0.09 0.298,-0.298 V 5.267 c 0,-1.22 0.892,-2.143 2.112,-2.143 1.22,0 2.141,0.952 2.141,2.143 v 8.062 c 0,0.208 0.09,0.298 0.299,0.298 H 0 c 0.178,0 0.298,-0.09 0.298,-0.298 V 0.298 C 0.298,0.089 0.208,0 0,0"
             style="fill:#ffffff;fill-opacity:1;fill-rule:nonzero;stroke:none"
             id="path236" /></g><g
           id="g238"
           transform="translate(76.5605,23.8162)"><path
             d="M 0,0 H -2.826 C -3.035,0 -3.124,0.089 -3.124,0.298 V 8.39 c 0,1.191 -0.892,2.112 -2.112,2.112 -1.249,0 -2.142,-0.921 -2.142,-2.112 V 0.298 C -7.378,0.089 -7.468,0 -7.676,0 h -2.796 c -0.208,0 -0.297,0.089 -0.297,0.298 v 13.031 c 0,0.208 0.089,0.298 0.297,0.298 h 2.529 c 0.446,0 0.267,-0.596 0.505,-0.596 0.357,0 1.072,0.596 2.44,0.596 3.035,0 5.295,-2.143 5.295,-5.237 V 0.298 C 0.297,0.089 0.208,0 0,0"
             style="fill:#ffffff;fill-opacity:1;fill-rule:nonzero;stroke:none"
             id="path240" /></g><g
           id="g242"
           transform="translate(86.3784,32.9207)"><path
             d="m 0,0 c 0,0.803 -0.982,1.695 -2.054,1.695 -1.13,0 -2.082,-0.892 -2.082,-1.725 0,-0.178 0.09,-0.267 0.297,-0.267 h 3.541 C -0.09,-0.297 0,-0.208 0,0 m 2.702,-3.154 h -7.079 c -0.209,0 -0.299,-0.089 -0.299,-0.298 v -0.683 c 0,-1.191 0.893,-2.143 2.142,-2.143 0.864,0 1.399,0.476 1.904,1.428 0.179,0.357 0.298,0.566 0.447,0.566 0.059,0 0.089,0 0.149,-0.03 l 2.588,-1.28 c 0.119,-0.059 0.178,-0.149 0.178,-0.238 0,-0.327 -0.445,-1.13 -1.458,-2.201 -0.862,-0.893 -2.141,-1.369 -3.808,-1.369 -3.361,0 -5.562,2.113 -5.562,5.267 v 3.689 c 0,0.922 0.297,1.933 0.832,2.737 1.071,1.606 2.796,2.528 4.73,2.528 1.904,0 3.659,-0.922 4.701,-2.528 C 2.702,1.487 3,0.476 3,-0.446 v -2.41 C 3,-3.065 2.911,-3.154 2.702,-3.154"
             style="fill:#ffffff;fill-opacity:1;fill-rule:nonzero;stroke:none"
             id="path244" /></g><g
           id="g246"
           transform="translate(99.8223,36.7288)"><path
             d="m 0,0 c 1.101,-0.804 1.756,-2.083 1.756,-2.44 0,-0.089 -0.062,-0.179 -0.179,-0.238 l -2.44,-1.19 c -0.06,-0.03 -0.119,-0.03 -0.149,-0.03 -0.118,0 -0.148,0.06 -0.238,0.179 -0.624,0.922 -0.951,1.696 -2.172,1.696 h -0.862 c -1.071,0 -1.637,-0.388 -1.637,-1.131 0,-1.22 1.637,-0.951 4.076,-1.606 2.41,-0.655 3.539,-1.755 3.539,-3.719 0,-2.797 -1.992,-4.731 -5.116,-4.731 h -0.862 c -1.667,0 -2.946,0.476 -3.867,1.459 -0.924,0.951 -1.279,1.784 -1.279,2.052 0,0.089 0.058,0.148 0.177,0.208 l 2.44,1.19 c 0.059,0.03 0.089,0.03 0.148,0.03 0.089,0 0.149,-0.089 0.238,-0.208 0.596,-0.982 0.982,-1.696 2.143,-1.696 h 0.862 c 1.071,0 1.726,0.535 1.726,1.279 0,1.19 -1.666,0.922 -4.106,1.547 -2.38,0.595 -3.48,1.726 -3.48,3.749 0,2.707 2.052,4.611 4.998,4.611 h 0.862 C -2.023,1.011 -0.923,0.684 0,0"
             style="fill:#ffffff;fill-opacity:1;fill-rule:nonzero;stroke:none"
             id="path248" /></g><g
           id="g250"
           transform="translate(115.7393,23.9944)"><path
             d="M 0,0 C -0.059,-0.118 -0.149,-0.178 -0.268,-0.178 H -2.41 C -2.498,-0.148 -2.588,-0.089 -2.678,0 l -5.265,13.031 c -0.031,0.06 -0.06,0.12 -0.06,0.179 0,0.148 0.119,0.239 0.327,0.239 h 3.004 c 0.09,-0.031 0.18,-0.091 0.269,-0.18 1.398,-3.659 2.47,-6.395 3.124,-8.181 2.052,5.474 2.676,8.361 3.272,8.361 h 3.034 c 0.21,0 0.327,-0.091 0.327,-0.239 0,-0.059 -0.029,-0.119 -0.058,-0.179 z"
             style="fill:#ffffff;fill-opacity:1;fill-rule:nonzero;stroke:none"
             id="path252" /></g><g
           id="g254"
           transform="translate(128.5918,32.9207)"><path
             d="m 0,0 c 0,0.803 -0.982,1.695 -2.054,1.695 -1.13,0 -2.083,-0.892 -2.083,-1.725 0,-0.178 0.09,-0.267 0.299,-0.267 h 3.54 C -0.09,-0.297 0,-0.208 0,0 m 3.182,-3.154 h -7.079 c -0.208,0 -0.298,-0.089 -0.298,-0.298 v -0.683 c 0,-1.191 0.892,-2.143 2.141,-2.143 0.865,0 1.399,0.476 1.905,1.428 0.178,0.357 0.298,0.566 0.446,0.566 0.06,0 0.089,0 0.149,-0.03 l 2.588,-1.28 c 0.118,-0.059 0.179,-0.149 0.179,-0.238 0,-0.327 -0.446,-1.13 -1.458,-2.201 -0.862,-0.893 -2.143,-1.369 -3.809,-1.369 -3.361,0 -5.561,2.113 -5.561,5.267 v 3.689 c 0,0.922 0.297,1.933 0.831,2.737 1.072,1.606 2.796,2.528 4.73,2.528 1.905,0 3.66,-0.922 4.701,-2.528 C 3.182,1.487 3.48,0.476 3.48,-0.446 v -2.41 c 0,-0.209 -0.088,-0.298 -0.298,-0.298"
             style="fill:#ffffff;fill-opacity:1;fill-rule:nonzero;stroke:none"
             id="path256" /></g><g
           id="g258"
           transform="translate(140.7842,33.6936)"><path
             d="m 0,0 c -0.387,0 -1.011,0.595 -1.846,0.595 -1.16,0 -2.051,-0.922 -2.051,-2.082 V -9.58 c 0,-0.208 -0.089,-0.297 -0.298,-0.297 h -2.796 c -0.209,0 -0.298,0.089 -0.298,0.297 V 3.452 c 0,0.207 0.089,0.298 0.298,0.298 h 2.528 c 0.209,0 0.297,-0.061 0.297,-0.269 V 3.064 c 0,-0.178 0.09,-0.267 0.269,-0.297 l 0.178,0.089 c 0.774,0.596 1.489,0.894 2.262,0.894 1.04,0 1.665,-0.239 1.665,-0.537 V 0.328 C 0.208,0.119 0.12,0 0,0"
             style="fill:#ffffff;fill-opacity:1;fill-rule:nonzero;stroke:none"
             id="path260" /></g><g
           id="g262"
           transform="translate(149.6318,23.5188)"><path
             d="m 0,0 c -1.279,0 -2.915,0.655 -3.897,1.607 -0.951,0.922 -1.427,2.172 -1.427,3.66 v 5.235 c 0,0.208 -0.089,0.297 -0.298,0.297 h -1.547 c -0.207,0 -0.297,0.09 -0.297,0.298 l 0.059,1.577 3.51,3.719 0.209,0.089 h 1.459 c 0.207,0 0.296,-0.089 0.296,-0.297 v -1.964 c 0,-0.208 0.088,-0.297 0.297,-0.297 h 1.964 c 0.209,0 0.298,-0.09 0.298,-0.298 v -2.529 c 0,-0.208 -0.089,-0.298 -0.298,-0.298 h -1.964 c -0.209,0 -0.297,-0.089 -0.297,-0.297 V 5.267 c 0,-0.923 0.654,-1.756 1.369,-1.905 0.833,-0.179 1.19,-0.149 1.19,-0.506 V 0.297 C 0.626,0.03 0.446,0 0,0"
             style="fill:#ffffff;fill-opacity:1;fill-rule:nonzero;stroke:none"
             id="path264" /></g><g
           id="g266"
           transform="translate(163.0029,32.9207)"><path
             d="m 0,0 c 0,0.803 -0.982,1.695 -2.054,1.695 -1.13,0 -2.083,-0.892 -2.083,-1.725 0,-0.178 0.091,-0.267 0.298,-0.267 h 3.541 C -0.09,-0.297 0,-0.208 0,0 m 3.183,-3.154 h -7.08 c -0.209,0 -0.298,-0.089 -0.298,-0.298 v -0.683 c 0,-1.191 0.892,-2.143 2.141,-2.143 0.863,0 1.399,0.476 1.906,1.428 0.177,0.357 0.296,0.566 0.444,0.566 0.06,0 0.09,0 0.15,-0.03 l 2.588,-1.28 c 0.119,-0.059 0.177,-0.149 0.177,-0.238 0,-0.327 -0.445,-1.13 -1.457,-2.201 -0.861,-0.893 -2.142,-1.369 -3.808,-1.369 -3.362,0 -5.564,2.113 -5.564,5.267 v 3.689 c 0,0.922 0.298,1.933 0.835,2.737 1.069,1.606 2.795,2.528 4.729,2.528 1.906,0 3.66,-0.922 4.701,-2.528 0.536,-0.804 0.832,-1.815 0.832,-2.737 v -2.41 c 0,-0.209 -0.087,-0.298 -0.296,-0.298"
             style="fill:#ffffff;fill-opacity:1;fill-rule:nonzero;stroke:none"
             id="path268" /></g><g
           id="g270"
           transform="translate(182.2998,36.7288)"><path
             d="m 0,0 c 1.102,-0.804 1.756,-2.083 1.756,-2.44 0,-0.089 -0.061,-0.179 -0.179,-0.238 l -2.439,-1.19 c -0.06,-0.03 -0.118,-0.03 -0.149,-0.03 -0.119,0 -0.149,0.06 -0.239,0.179 -0.624,0.922 -0.952,1.696 -2.171,1.696 h -0.863 c -1.07,0 -1.636,-0.388 -1.636,-1.131 0,-1.22 1.636,-0.951 4.075,-1.606 2.41,-0.655 3.54,-1.755 3.54,-3.719 0,-2.797 -1.993,-4.731 -5.116,-4.731 h -0.863 c -1.666,0 -2.945,0.476 -3.866,1.459 -0.924,0.951 -1.281,1.784 -1.281,2.052 0,0.089 0.06,0.148 0.179,0.208 l 2.44,1.19 c 0.059,0.03 0.088,0.03 0.148,0.03 0.089,0 0.148,-0.089 0.238,-0.208 0.596,-0.982 0.982,-1.696 2.142,-1.696 h 0.863 c 1.07,0 1.726,0.535 1.726,1.279 0,1.19 -1.666,0.922 -4.106,1.547 -2.381,0.595 -3.481,1.726 -3.481,3.749 0,2.707 2.053,4.611 4.998,4.611 h 0.863 C -2.022,1.011 -0.922,0.684 0,0"
             style="fill:#ffffff;fill-opacity:1;fill-rule:nonzero;stroke:none"
             id="path272" /></g><g
           id="g274"
           transform="translate(153.8701,30.6184)"><path
             d="m 0,0 c 0,-1.022 -0.828,-1.85 -1.85,-1.85 -1.022,0 -1.85,0.828 -1.85,1.85 0,1.021 0.828,1.85 1.85,1.85 C -0.828,1.85 0,1.021 0,0"
             style="fill:#ffffff;fill-opacity:1;fill-rule:nonzero;stroke:none"
             id="path276" /></g><g
           id="g278"
           transform="translate(172.0264,30.6184)"><path
             d="m 0,0 c 0,-1.022 -0.828,-1.85 -1.85,-1.85 -1.021,0 -1.85,0.828 -1.85,1.85 0,1.021 0.829,1.85 1.85,1.85 C -0.828,1.85 0,1.021 0,0"
             style="fill:#ffffff;fill-opacity:1;fill-rule:nonzero;stroke:none"
             id="path280" /></g></g></g></g></svg>
