<?xml version="1.0" encoding="UTF-8" standalone="no"?>
<!-- Created with Inkscape (http://www.inkscape.org/) -->

<svg
   xmlns:inkscape="http://www.inkscape.org/namespaces/inkscape"
   xmlns:sodipodi="http://sodipodi.sourceforge.net/DTD/sodipodi-0.dtd"
   xmlns:svg="http://www.w3.org/2000/svg"
   version="1.1"
   id="svg66"
   xml:space="preserve"
   width="199.45"
   height="32.351601"
   viewBox="0 0 199.45 32.351601"
   sodipodi:docname="logo_jgs_de_white.svg"
   inkscape:version="1.1.1 (3bf5ae0d25, 2021-09-20)"
   xmlns="http://www.w3.org/2000/svg"><sodipodi:namedview
     id="namedview33"
     pagecolor="#ffffff"
     bordercolor="#666666"
     borderopacity="1.0"
     inkscape:pageshadow="2"
     inkscape:pageopacity="0.0"
     inkscape:pagecheckerboard="0"
     showgrid="false"
     inkscape:zoom="5.0530165"
     inkscape:cx="108.74692"
     inkscape:cy="14.743669"
     inkscape:window-width="1280"
     inkscape:window-height="656"
     inkscape:window-x="0"
     inkscape:window-y="0"
     inkscape:window-maximized="1"
     inkscape:current-layer="svg66" /><defs
     id="defs70"><clipPath
       clipPathUnits="userSpaceOnUse"
       id="clipPath80"><path
         d="M 0,53.505 H 205.125 V 0 H 0 Z"
         id="path78" /></clipPath></defs><g
     id="g72"
     transform="matrix(1.3333333,0,0,-1.3333333,-28.144666,50.360132)"><g
       id="g74"><g
         id="g76"
         clip-path="url(#clipPath80)"><g
           id="g82"
           transform="translate(35.5513,18.012)"><path
             d="m 0,0 c -1.164,-0.775 -2.325,-1.192 -3.429,-1.192 -0.238,0 -0.327,0.06 -0.327,0.298 v 2.533 c 0,0.358 0.327,0.298 1.103,0.477 0.864,0.208 1.46,0.984 1.46,1.937 v 15.11 c 0,0.208 0.089,0.298 0.298,0.298 h 2.802 c 0.178,0 0.298,-0.09 0.298,-0.298 V 4.321 C 2.205,2.563 1.371,0.924 0,0"
             style="fill:#84b414;fill-opacity:1;fill-rule:nonzero;stroke:none"
             id="path84" /></g><g
           id="g86"
           transform="translate(51.0762,23.8235)"><path
             d="M 0,0 H -2.533 C -2.95,0 -2.772,0.595 -3.04,0.595 -3.398,0.595 -4.113,0 -5.454,0 c -3.099,0 -5.335,2.146 -5.335,5.275 v 8.077 c 0,0.208 0.09,0.297 0.298,0.297 h 2.832 c 0.179,0 0.297,-0.089 0.297,-0.297 V 5.275 c 0,-1.222 0.894,-2.146 2.116,-2.146 1.223,0 2.147,0.954 2.147,2.146 v 8.077 c 0,0.208 0.089,0.297 0.297,0.297 H 0 c 0.178,0 0.297,-0.089 0.297,-0.297 V 0.298 C 0.297,0.089 0.208,0 0,0"
             style="fill:#84b414;fill-opacity:1;fill-rule:nonzero;stroke:none"
             id="path88" /></g><g
           id="g90"
           transform="translate(64.7207,23.8235)"><path
             d="M 0,0 H -2.831 C -3.04,0 -3.128,0.089 -3.128,0.298 v 8.106 c 0,1.192 -0.894,2.116 -2.116,2.116 -1.253,0 -2.146,-0.924 -2.146,-2.116 V 0.298 C -7.39,0.089 -7.48,0 -7.688,0 h -2.802 c -0.208,0 -0.298,0.089 -0.298,0.298 v 13.054 c 0,0.208 0.09,0.297 0.298,0.297 h 2.534 c 0.447,0 0.268,-0.596 0.506,-0.596 0.358,0 1.073,0.596 2.444,0.596 3.04,0 5.305,-2.145 5.305,-5.245 V 0.298 C 0.299,0.089 0.209,0 0,0"
             style="fill:#84b414;fill-opacity:1;fill-rule:nonzero;stroke:none"
             id="path92" /></g><g
           id="g94"
           transform="translate(75.6367,21.6775)"><path
             d="M 0,0 C 0,0.506 -0.358,0.864 -0.865,0.864 H -4.68 C -5.187,0.864 -5.545,0.506 -5.545,0 v -0.566 c 0,-0.507 0.358,-0.865 0.865,-0.865 h 3.815 c 0.476,0 0.865,0.388 0.865,0.865 z m -1.282,10.55 c 0,1.192 -0.894,2.116 -2.116,2.116 -1.252,0 -2.147,-0.924 -2.147,-2.116 v -0.268 c 0,-1.193 0.895,-2.146 2.147,-2.146 1.192,0 2.116,0.953 2.116,2.146 z M -0.865,-4.559 H -4.68 c -2.562,0 -4.291,1.698 -4.291,3.993 V 0 c 0,1.132 0.507,1.729 1.102,2.444 0.299,0.327 0.507,0.477 0.507,0.656 0,0.178 -0.298,0.626 -0.298,1.43 0,0.865 0.418,1.43 0.418,1.669 0,0.09 -0.03,0.149 -0.09,0.208 -0.716,0.984 -1.639,1.878 -1.639,3.875 v 0.268 c 0,2.981 2.354,5.245 5.364,5.245 1.312,0 2.086,-0.596 2.444,-0.596 0.238,0 0.029,0.596 0.476,0.596 h 2.535 c 0.177,0 0.297,-0.089 0.297,-0.297 v -5.216 c 0,-3.13 -2.265,-5.276 -5.931,-5.276 H -4.232 C -4.381,4.858 -4.441,4.709 -4.441,4.53 c 0,-0.179 0.089,-0.358 0.238,-0.536 h 3.338 C 1.698,3.994 3.426,2.295 3.426,0 v -0.566 c 0,-2.295 -1.758,-3.993 -4.291,-3.993"
             style="fill:#84b414;fill-opacity:1;fill-rule:nonzero;stroke:none"
             id="path96" /></g><g
           id="g98"
           transform="translate(87.292,32.9431)"><path
             d="m 0,0 c 0,0.804 -0.984,1.698 -2.057,1.698 -1.131,0 -2.086,-0.894 -2.086,-1.728 0,-0.178 0.09,-0.268 0.298,-0.268 h 3.547 C -0.09,-0.298 0,-0.208 0,0 m 3.03,-3.159 h -7.094 c -0.208,0 -0.298,-0.09 -0.298,-0.298 v -0.686 c 0,-1.192 0.893,-2.146 2.144,-2.146 0.865,0 1.402,0.477 1.907,1.431 0.18,0.358 0.299,0.566 0.45,0.566 0.058,0 0.088,0 0.147,-0.029 L 2.88,-5.604 c 0.119,-0.059 0.179,-0.148 0.179,-0.238 0,-0.327 -0.448,-1.132 -1.46,-2.205 -0.865,-0.894 -2.147,-1.371 -3.817,-1.371 -3.367,0 -5.572,2.116 -5.572,5.275 v 3.696 c 0,0.924 0.298,1.937 0.834,2.742 1.074,1.608 2.803,2.532 4.738,2.532 1.907,0 3.667,-0.924 4.711,-2.532 C 3.03,1.49 3.327,0.477 3.327,-0.447 v -2.414 c 0,-0.209 -0.09,-0.298 -0.297,-0.298"
             style="fill:#84b414;fill-opacity:1;fill-rule:nonzero;stroke:none"
             id="path100" /></g><g
           id="g102"
           transform="translate(106.3994,21.6775)"><path
             d="M 0,0 C 0,0.506 -0.357,0.864 -0.865,0.864 H -4.68 C -5.186,0.864 -5.545,0.506 -5.545,0 v -0.566 c 0,-0.507 0.359,-0.865 0.865,-0.865 h 3.815 c 0.478,0 0.865,0.388 0.865,0.865 z m -1.282,10.55 c 0,1.192 -0.894,2.116 -2.114,2.116 -1.253,0 -2.149,-0.924 -2.149,-2.116 v -0.268 c 0,-1.193 0.896,-2.146 2.149,-2.146 1.19,0 2.114,0.953 2.114,2.146 z M -0.865,-4.559 H -4.68 c -2.562,0 -4.291,1.698 -4.291,3.993 V 0 c 0,1.132 0.506,1.729 1.103,2.444 0.298,0.327 0.507,0.477 0.507,0.656 0,0.178 -0.298,0.626 -0.298,1.43 0,0.865 0.417,1.43 0.417,1.669 0,0.09 -0.029,0.149 -0.09,0.208 -0.715,0.984 -1.639,1.878 -1.639,3.875 v 0.268 c 0,2.981 2.355,5.245 5.366,5.245 1.31,0 2.084,-0.596 2.443,-0.596 0.238,0 0.029,0.596 0.476,0.596 h 2.534 c 0.177,0 0.297,-0.089 0.297,-0.297 v -5.216 c 0,-3.13 -2.264,-5.276 -5.93,-5.276 H -4.232 C -4.381,4.858 -4.441,4.709 -4.441,4.53 c 0,-0.179 0.089,-0.358 0.238,-0.536 h 3.338 C 1.698,3.994 3.427,2.295 3.427,0 v -0.566 c 0,-2.295 -1.759,-3.993 -4.292,-3.993"
             style="fill:#84b414;fill-opacity:1;fill-rule:nonzero;stroke:none"
             id="path104" /></g><g
           id="g106"
           transform="translate(118.375,33.7175)"><path
             d="m 0,0 c -0.388,0 -1.013,0.597 -1.848,0.597 -1.162,0 -2.056,-0.925 -2.056,-2.087 v -8.106 c 0,-0.209 -0.089,-0.298 -0.298,-0.298 h -2.801 c -0.21,0 -0.299,0.089 -0.299,0.298 V 3.458 c 0,0.208 0.089,0.297 0.299,0.297 h 2.533 c 0.207,0 0.297,-0.06 0.297,-0.268 V 3.07 c 0,-0.179 0.089,-0.268 0.269,-0.299 l 0.179,0.09 c 0.775,0.597 1.49,0.894 2.264,0.894 1.044,0 1.669,-0.238 1.669,-0.536 V 0.328 C 0.208,0.12 0.119,0 0,0"
             style="fill:#84b414;fill-opacity:1;fill-rule:nonzero;stroke:none"
             id="path108" /></g><g
           id="g110"
           transform="translate(131.1709,23.8235)"><path
             d="M 0,0 H -2.532 C -2.95,0 -2.771,0.595 -3.04,0.595 -3.397,0.595 -4.112,0 -5.453,0 c -3.1,0 -5.334,2.146 -5.334,5.275 v 8.077 c 0,0.208 0.089,0.297 0.297,0.297 h 2.832 c 0.178,0 0.298,-0.089 0.298,-0.297 V 5.275 c 0,-1.222 0.893,-2.146 2.115,-2.146 1.223,0 2.146,0.954 2.146,2.146 v 8.077 c 0,0.208 0.089,0.297 0.298,0.297 H 0 c 0.179,0 0.299,-0.089 0.299,-0.297 V 0.298 C 0.299,0.089 0.209,0 0,0"
             style="fill:#84b414;fill-opacity:1;fill-rule:nonzero;stroke:none"
             id="path112" /></g><g
           id="g114"
           transform="translate(141.1035,32.9431)"><path
             d="m 0,0 c 0,0.804 -0.984,1.698 -2.058,1.698 -1.131,0 -2.085,-0.894 -2.085,-1.728 0,-0.178 0.088,-0.268 0.297,-0.268 h 3.547 C -0.091,-0.298 0,-0.208 0,0 m 3.188,-3.159 h -7.093 c -0.208,0 -0.298,-0.09 -0.298,-0.298 v -0.686 c 0,-1.192 0.893,-2.146 2.145,-2.146 0.866,0 1.401,0.477 1.909,1.431 0.177,0.358 0.297,0.566 0.446,0.566 0.06,0 0.09,0 0.149,-0.029 l 2.593,-1.283 c 0.119,-0.059 0.179,-0.148 0.179,-0.238 0,-0.327 -0.447,-1.132 -1.46,-2.205 -0.865,-0.894 -2.147,-1.371 -3.816,-1.371 -3.367,0 -5.573,2.116 -5.573,5.275 v 3.696 c 0,0.924 0.299,1.937 0.835,2.742 1.073,1.608 2.801,2.532 4.738,2.532 1.909,0 3.666,-0.924 4.709,-2.532 C 3.188,1.49 3.486,0.477 3.486,-0.447 v -2.414 c 0,-0.209 -0.09,-0.298 -0.298,-0.298"
             style="fill:#84b414;fill-opacity:1;fill-rule:nonzero;stroke:none"
             id="path116" /></g><g
           id="g118"
           transform="translate(157.375,23.8235)"><path
             d="M 0,0 H -2.832 C -3.04,0 -3.13,0.089 -3.13,0.298 v 8.106 c 0,1.192 -0.893,2.116 -2.115,2.116 -1.252,0 -2.147,-0.924 -2.147,-2.116 V 0.298 C -7.392,0.089 -7.48,0 -7.689,0 h -2.802 c -0.208,0 -0.298,0.089 -0.298,0.298 v 13.054 c 0,0.208 0.09,0.297 0.298,0.297 h 2.533 c 0.447,0 0.269,-0.596 0.508,-0.596 0.357,0 1.072,0.596 2.443,0.596 3.039,0 5.304,-2.145 5.304,-5.245 V 0.298 C 0.297,0.089 0.209,0 0,0"
             style="fill:#84b414;fill-opacity:1;fill-rule:nonzero;stroke:none"
             id="path120" /></g><g
           id="g122"
           transform="translate(167.209,32.9431)"><path
             d="m 0,0 c 0,0.804 -0.983,1.698 -2.057,1.698 -1.131,0 -2.086,-0.894 -2.086,-1.728 0,-0.178 0.089,-0.268 0.299,-0.268 h 3.546 C -0.089,-0.298 0,-0.208 0,0 m 3.188,-3.159 h -7.092 c -0.208,0 -0.298,-0.09 -0.298,-0.298 v -0.686 c 0,-1.192 0.894,-2.146 2.145,-2.146 0.865,0 1.402,0.477 1.909,1.431 0.177,0.358 0.297,0.566 0.446,0.566 0.059,0 0.09,0 0.149,-0.029 L 3.04,-5.604 c 0.119,-0.059 0.179,-0.148 0.179,-0.238 0,-0.327 -0.448,-1.132 -1.46,-2.205 -0.864,-0.894 -2.147,-1.371 -3.816,-1.371 -3.367,0 -5.573,2.116 -5.573,5.275 v 3.696 c 0,0.924 0.299,1.937 0.836,2.742 1.071,1.608 2.8,2.532 4.737,2.532 1.909,0 3.666,-0.924 4.709,-2.532 C 3.188,1.49 3.487,0.477 3.487,-0.447 v -2.414 c 0,-0.209 -0.09,-0.298 -0.299,-0.298"
             style="fill:#84b414;fill-opacity:1;fill-rule:nonzero;stroke:none"
             id="path124" /></g><g
           id="g126"
           transform="translate(28.2515,17.0784)"><path
             d="m 0,0 c 0,-1.973 -1.598,-3.572 -3.571,-3.572 -1.973,0 -3.572,1.599 -3.572,3.572 0,1.973 1.599,3.571 3.572,3.571 C -1.598,3.571 0,1.973 0,0"
             style="fill:#84b414;fill-opacity:1;fill-rule:nonzero;stroke:none"
             id="path128" /></g></g></g></g></svg>
