<svg xmlns="http://www.w3.org/2000/svg" viewBox="0 0 804.733 443.147">
    <path fill="#84B414"
          d="M420.503.091h.924l.002.312zM423.234.09c.298.607-.901.312-1.513.308.301-.003.898-.624 1.513-.309z"/>
    <path fill="#84B414"
          d="M426.867 1.01c1.516.001 3.628.297 5.136-.304.004-.612-.923 0-1.218-.298 1.509.303 4.531-.627 5.432.897.635.317 1.238.31 1.536.004.61-.9 1.796.92 2.12-.607-.318-.61-.606-.294-.907-.3 3.007-.63 6.325 3.313 9.679.896l.002-.602c2.072.302 4.217-.002 6.02.607l-4.534.316c.588 1.196 1.814-.313 3.022.907 1.514-.901 3.34.604 4.54-1.52l-.605 1.523c2.455-.297 5.452.899 6.96-.606l-.312.003c.922 1.506 3.93-.298 5.749.604l6.953.608c-.296.285-.294 1.189.61 1.188l1.209-.286c-.315-.309-.609-.616-.9-.61 1.202-.9 3.61.616 5.446.616.287.286-1.84.602-.323 1.518l1.82-1.517.59 1.517c.893-.002 3.046-.296 3.334-1.515.923 0-.29.898.004 1.215.327 1.193 1.828-.935 1.538.897.893-.002 2.396-1.226 3.312-.001 2.398-.905 4.52.897 6.947-.005 2.709 1.512 6.018.286 9.07 1.195-.003.612-.926.612-.92 1.235l.315.288c2.14-2.422 7.855-.286 10.58.585.314-.264-.004-.874.598-.872.61.606 1.199 2.133 2.714 2.135l.317-.635c.005-.632-.608-.625-1.22-.628l-.302.003-.311.003c.614-1.17 1.516.002 2.43.002-.32.313.32.921.933 1.256.005-.632.585-.953.295-1.53 3.018 1.187 6.928.897 9.045 2.397.897.3 1.806.931 3.018.616l-.609-.616c1.847.001 3.658.3 4.557 1.503.909-.292 2.097-.57 2.099.907.317-1.79 3.929-.279 5.751-.571.92 2.098 3.042 1.49 5.137 2.095.318-.303.003-.602-.001-.903l1.494 1.516c.92-.301.334-.613-.005-1.215 1.532-.298 2.43.915 3.943.606-1.188.608-2.4-.903-3.33.31-.616.62.626.296.623.908 1.519-1.523 3.027 1.199 3.613-.908.326 1.203 1.239.299 1.81.299 6.363 2.434 14.213 2.428 20.559 4.82l-.586.611c1.788.91 4.538-.004 4.53 2.143 1.505-.33 1.798-2.754 3.918-.942l1.53-.288-.606.63c.91.27 1.492.27 1.781-.627l-.286.286 1.512.614-.607.63h2.42l-1.495.904c.591 4.257 5.742 2.41 7.554 3.612l.003.311c1.195.336 2.097.003 3.61.607-.295-1.21-2.417-1.506-3.608-2.123l.291-.004-.614-.897-.901.895-5.141-.902c.909-.292 2.11.315 2.733-.604l-2.727-.61c1.204.005 3.05-1.82 3.944.004 1.807-1.488 3.314 1.826 4.825.613.906 1.806 2.412.311 3.942.606-.925 1.515.88 2.104 2.105 2.101l-4.243.312c.292.908 2.71-.004 3.019 1.518l1.225-.003c-2.1.6-.005 2.7-.928 3.603.928 2.139 1.84.322 3.337 1.216 2.141 1.23 4.534 1.53 6.952 2.113l-.605-.886c3.012.003 5.779 3.598 8.16 1.497 2.433-.61 3.037 3.047 5.756.885 5.455 3.047 13.299 1.856 18.446 4.866l1.486-.924c.333.32.33.923.924.914-.589.3-1.52.62-2.1 1.513l1.175.906c-.276.287-.887-.298-1.169.63 8.135 1.796 15.989 3.006 23.86 3.905v.923c-16.017-2.114-32.056-5.454-47.739-7.258-.928 1.194-2.127-.929-2.738.895 1.808.9 4.814-.302 6.948.899l.898.63c.32-2.16 2.73-.343 3.95.296 3.614-.005 9.062.592 12.992 1.8.304.317.001.903.613.906l.293-.587c2.099.907 3.928 1.8 6.043 1.493l.31-.907c4.536.588 8.164 2.712 12.672 2.705-2.109.93-5.735-.883-8.434-.889-13.621-1.502-26.901-4.26-40.818-6.06-1.534-1.51-4.23-.3-6.34-1.197-6.357-1.219-13.616-2.125-19.366-3.632-3.01.901-6.633-1.524-10.268-1.852-1.529-.886-3.627 2.443-3.932-.264-.917-.3-2.723-1.232-3.624.005l-86.47-15.134c-47.466-7.857-102.767-6.933-150.846 2.432-53.194 12.4-99.784 40.206-143.902 74.973-6.362 6.049-13.601 12.382-21.163 17.231-2.403 2.119-3.93 5.459-6.959 7.261l-.592-.001c11.784-19.959 34.134-36.876 51.07-52.62 5.456-4.531 12.395-7.548 16.629-12.678l-.292.004c5.438-1.803 10.276-8.456 16.019-10.875.315.299.31.59.601.585.316-.284.608-.288.614-.59l-.294-.316c3.316-2.44 8.162-4.255 11.775-6.649 5.16-4.246 11.177-4.533 16.026-8.777 3.921-1.222 6.949-3.929 11.479-4.195.608-1.553 2.425-2.137 3.947-2.435l.004.301c9.347-4.261 19.96-8.181 29.907-11.507l.9.61c2.143-3.044 6.062-.904 8.778-3.608 1.828 1.475 5.137-.313 7.259-.93-1.198-.879-2.436.298-3.336.61.632-.918 3.653-1.828 4.858-.92 1.509-2.096 4.863-1.2 6.646-2.41.292-.586-.001.583.292.9 2.109-2.416 7.576-1.797 10.282-2.092l5.145-1.216c-.594-.896-3.336.611-5.142.604l13.31-2.41.59.614c.608-1.221 3.948-1.531 5.454-1.53l-.289.316c.58.603 1.511.283 2.414.291l-1.507-.904c2.091.303 4.536-.899 6.358.305l.613-.589-1.221-.609 2.419.001-.004.612 1.788-.004-.002-.904c3.048-1.219 3.047 1.2 6.367-.607l-.595.61c.904 0 2.437.595 3.028-.307l-2.132-.297c.606-.61 1.804-.314 2.708-.315-.271.92.616 1.218 1.248 1.223.89-.303 1.488-.602 2.418-.902-.346-1.215-.934-.002-1.519-.314 1.808-2.421 1.518 2.733 3.004-.6.32.6.319 1.523 1.222 1.522l.294-.607-.293-.316h1.505s-.288.317.003.312q.004.302.315.299l.606-.61-.305-.298 4.837-.911.005 1.215 4.834-.3-1.807-.911 3.614-.005-.592.912c2.098.916 3.907-.602 6.334.002l-.291-.92 1.807-.002v.914z"/>
    <path fill="#84B414"
          d="M438.05.09c.328.611-1.83.613-1.827.001zM446.21.092l1.805.61.003.3zM461.623 1.31l.003.311-1.22-.619c.31-.003.913 0 1.218.298zM392.691 2.225l-.895.594.005-.29zM513.022 8.276l-.002-.322 1.217.318-.288.306zM567.738 17.941c.002.312-.607.62-.898.624.288-.316.606-.619.898-.624zM592.82 26.119l-.003-.312 1.225-.003.003.311zM611.283 27.925l-.312.585.31-1.489s.612.586.002.904zM613.681 27.02l-.004-.301.928.302-.005.28zM616.096 27.302c.004.301-.592-.002-1.174-.003.291-.004.884-.585 1.174.003zM617.316 27.92c-.904.584.003 1.235.295 1.803-.898-.3-1.198.608-.899 1.206-.61-.605-2.106-.596-1.787.004.287-.296.286-1.21.002-1.515-.61-.606-1.512-.273-2.145-.268.905-.935-.884-.338-.584-1.236 1.79 1.23 3.317.29 5.12-.004zM619.736 27.921l.601.585.003.311z"/>
    <path fill="#84B414"
          d="M623.379 30.338c-.61.9-3.65-.61-2.727 1.8 1.486.912 2.111-.268 3.323-.583l-.298-.609c1.84.302 1.511-1.785 2.991.001l-.874.927c.292-.004-.003.271 0 .582-.283-.898-1.82-.32-2.416.301 2.133 2.124 3.012-1.503 5.126-.876.608-2.136 2.117.586 2.755-.623l-.329.313c.588 1.196 1.784-.306 2.718-.315-1.22.627.002 1.808-.003 2.44-3.326.27-5.148-3.342-6.978-.32 2.12 1.812.93-1.223 3.034-.608l-1.497.933 7.878 2.095.293-.607 15.425 3.608 1.807-1.498c-2.116 2.154 1.195 1.49 1.805 2.437 4.851-.61 10.285 2.104 14.836 2.412 3.301.59 7.835 1.197 11.462 1.505 8.488 2.117 16.646 5.14 26.319 4.842-2.124-.628-5.765 1.523-7.56.001-2.73.002-7.574-.623-9.983-.623-1.221-2.104-4.253.311-6.343-1.167.281.005.002-.933.283-.929 1.224-.003 2.448.586 3.327.291-1.507-.904-4.216-2.416-5.709-.61-2.748 1.808-5.443-1.81-7.904-.3l-.875-.9c-.304.265-.309.897-.911.895-.897-3.632-4.849-1.83-6.935-1.51l.298-.306c-1.215.005-2.736-1.193-3.31.313l-.612-.003c-.299-.599.615-.599.618-1.21-.61-.606-1.225.002-2.122-.297l.608 1.198c-.93-.614-.93-1.196-2.414-.292l-.622-.004c.304-.606.902-.905.622-1.833-.329.313-1.793-.277-1.798.927l.004.301-.907-1.223c-.337 1.215-.943-.003-1.847-.001-2.097-.585-4.537.918-6.335-.906 1.211-.305 2.12.908 3.318.632-.295-1.22-3.312-1.505-4.541-1.22-1.215 1.49-2.725-1.213-4.823-1.216l-.919 1.215-.911-.943.602-.57.301.569c1.818-1.498 4.53.657 6.334.002-4.229-2.378-9.95-.881-13.582-.566l-.314-1.232-.6.309c-.567-1.194-3.033-.888-4.506-.003.288-.888-2.734-.882-3.635-1.824l-1.514.32c1.205-1.833 3.625-.005 5.444-.609l-.003.613 4.824.622c-5.748-3.032-14.208-2.708-21.139-4.84 1.785-.898 5.123 1.803 7.536-.315l-2.106-.596 2.417-.31-.61-1.52c.309 1.514 3.012.907 4.264 1.518zM614.602 30.032c-.612-.003-1.816.905-1.82-.31z"/>
    <path fill="#84B414"
          d="M635.756 32.746c2.117.928 4.532.296 5.75 1.517 3.004-3.02 2.996 2.129 6.345.906 1.21-1.219 1.827 0 3.331-.903a.676.676 0 0 1-.315 1.197c.61.937 2.734-1.196 2.431 1.237-1.218-.307-2.426-.614-3.941-.616l1.218.88-2.42-.001.898-.273c-.287-.618-.605-1.238-1.505-.925-.622-.004-2.139 1.5-3.316.613l1.178-.62c-.57-1.515-2.707-.607-3.902-1.515l-.004.612 1.507.905c-2.125-.608-7.257-.003-9.06-3.032l1.801-1.197-.004 1.194z"/>
    <path fill="#84B414"
          d="m637.87 31.867.614-.007-.002.592zM614.922 33.945c.586-.27 1.498.321 1.788-.587l6.06 1.193c-.631.326-1.496.913-2.426 1.223l.002-1.515c-2.734.614-2.42-.905-4.24.612-1.783-1.19-6.024-.326-5.733-2.74 1.83.32 4.56.319 4.56 1.815zM646.032 33.354l1.526.003.002.321zM664.774 38.507l-.003.27c-1.211 1.22-2.724-.88-4.527-.004-1.195-1.49-3.918-.885-6.036-1.803l1.78-.266v-.923c3.072.921 5.77 2.432 8.786 2.726zM661.466 36.963l-1.215.004c.302-.004.61-.88 1.215-.576zM624.285 36.962l.006.623-.614-.897c.301-.004.297.267.608.274zM666.568 37.279c-.873 1.49-3-.584-3.613-.578zM631.522 36.963c-.004.622-.592.922-.897.624-.304-.318.637-.627.897-.624zM668.73 39.425l-3.044-.326.003-.602c1.19-.298 2.095.605 3.041.918zM642.705 39.718l.903-.001-.004.28zM665.692 40.294l-1.225.003c.302-.586.593-.58 1.216-.586v.582zM671.133 39.716c-.336.282-1.818.584-1.235.002zM680.198 39.716l1.828.903-2.133-.629zM688.952 43.031c-.6.901-1.818-.902-2.402.603l.91.622c-.907.262-2.724-3.631-3.62-.618l-.927-.312.292-.004c-2.736-2.117-7.854-2.705-11.78-2.125 2.1-2.436 5.442-.588 8.141 0 3.343 0 6.364.928 9.377 1.824z"/>
    <path fill="#84B414"
          d="m674.774 41.821.883-.003.003.311zM689.57 41.82c-.319.314.003.312.003.312l-.615-.315.622.004zM692.303 42.13c-.326.293-.613.589-.325 1.196.32.932.907-.613.906.31-.907.624-3.008-.604-3.939.62-.004-1.216 2.419-1.827 3.348-2.127zM695.028 42.429c-.335.613-1.53.609-1.823.292.3-.897 1.196-.588 1.823-.292zM695.609 43.935c-.291.918-1.215.004-2.116.317l.285-.618c.616.305 1.242-.313 1.83.301zM698.64 43.94c-.904.583-1.194-.005-2.096.318l.004-.622c.556.3 1.456-.003 2.092.303zM681.697 48.169l-24.784-2.42 1.204.005-3.324-1.816.338-.302c8.728 2.119 18.113 3.05 26.566 4.533zM701.052 44.25l-1.509-.312c.297-.295 1.208-.607 1.509.313zM668.736 43.943l1.498.312-2.131.265zM699.833 44.525l.628.628-1.526-.003zM707.126 45.153c-1.23 2.703-3.948-.305-5.761-.002 1.814-.895 4.213 2.095 5.761.002zM695.93 46.683c-.607.289-.31-.93-.317-1.533.928.292.317 1.192.317 1.533zM697.437 45.751l1.5.302-1.491.291zM710.135 46.681l-2.41-.34c.56-.895 1.795-.898 2.41.34zM701.36 46.345l1.517-.007-2.42.35zM657.815 46.682l1.516.002-1.515.57zM664.164 46.976l1.522.274-1.524.318zM707.125 47.573c-.343.602-1.55.285-1.839-.322.613.003 1.5-.27 1.84.322zM708.28 47.573l.934-.008.008.603zM671.135 49.102l-3.038-.617c.91-1.798 1.804.61 3.038.617zM685.343 48.488c-.322.002-1.498 1.515-1.817.001.607-.63 1.215-.004 1.817-.001zM678.063 49.999l-1.184-.003.28-.91c.004.302.908.3.915.904zM656.333 49.403c-.936.6-1.83.602-2.735.282.904-.583 1.801-.284 2.735-.282zM710.433 50.271l-7.257-.585c1.826-1.827 4.843 1.217 7.258.003zM682.026 50.597l-1.235.002.3-.325-1.199-.868c.894-.002 2.133.287 2.134 1.19zM680.2 51.51c-.302.005-1.202-.606-1.521.29l7.264 2.1c-3.02-.003-7.263-1.197-9.359-2.716l3.617.317zM689.25 54.531l-2.398.001.004-.622c.597.293 1.787-.004 2.394.631zM703.178 58.731l-6.627-.56-.004-.633c2.994.313 3.916.905 6.63 1.193zM728.25 61.185c-.905 3.916 3.933 7.24-.583 10.56-3.646 1.518-4.856 5.136-8.487 6.364-.004 2.108-1.824 2.722-3.606 3.008l-7.291-1.793c-3.605 3.339-7.532 6.348-11.188 9.35l.347.623-1.832.292c1.223 1.502-1.837 2.409-2.415 3.623-2.12-.316-.603 2.417-2.722 2.422.286.286.608.284 1.21.287-.924.35-1.805 1.81-2.433.62-1.517.931-.613 3.33-3.31 2.14v.582c-.602-.575-1.807.002-1.525.91-.284.608.6.605.602.916.324-.604 1.539-.608 2.121-.607l-3.61 4.211-.306-1.211c-.912-.592-2.13.928-1.81 1.528.617.285 1.194.004 1.807-.002l-2.133 2.112c-.3-.92-1.197-.306-1.505-.002l.615.887-3.041.337c1.836 1.505-.872 3.316-2.104 3.63-.597.28-.942.891-1.207 1.17l.609.615h-.342l.005.633c-1.505-.001-3.318.292-4.511 2.115l1.533.264-1.82.614.92.603c-.622-.005-.917.612-.92 1.214-.581 0-2.434.299-3.35.901.004.292.33.591.321.912l-.604.6c-.301-.92-1.223-.6-1.835-.603l1.213 1.512c-1.205 3.337-4.207-.91-5.73 1.817.596 1.217 2.723-.605 2.427 1.518-1.21.285-1.506 2.408-3.05 1.48-.895-1.484-3.588 2.456-5.109-.588-.913 0-2.732 1.508-1.231 1.8-.577-1.215-2.102.619-3.013.93l.608 1.198-2.73 1.829c1.823.621 2.435-1.212 3.633-1.82v-1.496c.605 1.8 1.816-.333 2.433-.62 2.435.624 5.139-.906 7.56-.584l-.929.29.611.586c-1.218 1.54-3.894-.582-5.152.945.337.28.59.593.586.884-.593-.002-1.774-.607-2.098-1.499l-2.094 1.795 1.177.314-1.49.612c.314.9 1.818-.002 2.731-.002l-.003.27 2.13.328c-2.735 1.196-4.25 3.02-7.275 3.63l.297-2.133c-1.51-.293-1.807 2.412-3.322 1.838-1.19.87-3.627 3.015-5.44 1.822.6-.318 1.817-.001 1.499-.953-.898-.871-1.807.344-2.997.632v.582c-1.534-2.092-2.719 1.238-3.924 1.825 1.201.607 2.388-.906 3.916-.591l-3.012 2.417c.585-.602-.612-1.5-1.514-1.508-1.225.003-2.139.576-2.702-.327l-3.362 1.824c1.204 1.5 2.11-.598 3.624-.004l-.876.606.263.896-.588.3-.309-.61c-1.217.607-2.696 1.22-3.949 2.115l1.248 1.223c-2.73-.921-5.434 2.105-7.878 3.306l-.306-.288c-1.214 3.317-4.813 2.119-6.323 5.159-1.833-.622-2.722 2.08-5.151 2.079-3.951 4.543-10.602 3.339-14.227 8.171.312-.003.308.61-.003.612-3.32-.612-6.044 3.918-9.975 4.207.925-2.419 4.254-1.806 5.436-3.61 2.722-1.509 6.677-3.923 9.684-6.05.612.004 1.207-.606 1.823-1.215-.305-1.221-1.822-.29-2.407.321l.587-1.203c10.601-6.671 20.255-16.96 30.524-23.61l1.543-1.812c-4.864 1.21-8.206 6.37-13.008 7.565 3.027-2.706 6.652-4.216 7.843-7.846l.579.271 28.126-27.182.333.893 1.79-2.434.609.606c-.298-2.104 1.811-1.197 2.723-3.014 5.437-6.963 12.682-13.005 17.821-19.662l.602.003c.002.32-.3.325-.606.62 3.021.002 4.532-5.447 7.871-4.833 3.316-3.023 6.652-6.044 10.286-7.874l-1.206-.908c.292-1.5 1.814-.313 2.419-.913l-.346-1.205c8.799-.294 15.138-7.58 24.52-6.046 2.118-2.414 4.543.619 6.634.932z"/>
    <path fill="#84B414"
          d="M651.181 133.413c-.311.003-1.215.928-1.215.004zM643.013 141.291l.295.307-3.631 1.8-.593-.914c-1.53 1.21-3.333.923-4.846 2.155.322.57.93.272 1.221.268-2.759.903-4.216 2.412-6.966 3.325l2.113.286-3.95.638c.004 1.215-2.701.004-1.484 1.807 1.488.321 3.322-.904 4.818-.903-4.815 1.215-9.656 3.31-14.201 6.045l.903.922c-1.201.879-1.789-.327-3.297.274.579 1.536-1.83.613-2.438 1.824-1.188.61-2.435 2.126-4.232 1.216 4.839-.922 7.575-6.033 12.696-6.97l8.777-6.359-.286.637c2.397-.322 4.508-2.998 6.33-4.545l.32.59 5.444-4.513c2.083 1.196 3.306-.614 5.111-.938-.002-1.807 1.817-.001 2.441-1.171 1.215 2.415-3.045 2.112-4.535 4.22z"/>
    <path fill="#84B414"
          d="m643.016 139.766.592.002-3.924 1.824zM634.246 140.996c.615 1.8-1.217.596-1.814 1.799l-.3-.588c1.22.277.903-.915 2.114-1.21zM641.51 141.602l-.002-.312.592.002-.006.3zM631.867 143.398l.843.004.008.602zM636.662 145.504c.005.633-1.484 1.818-2.707 2.142.001-1.505 1.512-2.136 2.707-2.142zM623.676 147.64l.602.003.007.271zM633.644 147.64c-.619.878-1.517 1.513-2.39 1.506 0-.913 1.453-1.238 2.39-1.507zM626.393 153.078l-.312.003c-.578-.613.907-.614 1.196-1.502.32.58-.287 1.21-.884 1.499zM625.507 153.683c-4.243 1.797-7.266 5.146-12.096 6.65 4.509-1.512 7.24-5.76 12.096-6.65zM611.893 160.934l.301-.004.003.312zM605.226 162.439l.61.605c-.905.935-3.021-.003-3.627 1.53-.295-2.716 2.736-2.13 4.533-3.629l-1.516 1.504zM605.525 164.874l4.852-3.019c-.005 2.118-3.343 2.408-4.852 3.019zM597.658 162.439l.613-.007-1.216.928zM597.957 167.283c-2.686.287-4.536 4.221-6.93 3.028v-.934l.603.003-.31.334c.608.274 2.097.003 1.806-.916.903.581 2.405-1.215 3.043-1.51l-.632-.005c.3-.898 1.83-.613 2.418-.903l3.343-2.408c.602 2.412-3.344.59-3.341 3.311zM604.934 165.776l-.61-.606c.322-.002.618.285.61.606zM604.008 166.387c.31.58-.588.29-1.2.297l.902-.905.308.61zM602.203 167.283c.004.292-.293.597-.293.597l.002-.602zM600.995 167.89l-.304.606-.299-.598s.61-.308.612.003zM583.149 169.712h.913l-1.21 1.209zM591.038 171.205l-.002.602c-1.83-.892-3.945 1.834-5.454 2.103l1.51-1.775c0-.331-.612-.003-.302-.328l1.807-.002-.901-.601.291-.005c.324 1.806 2.115-1.22 3.041.006zM585.857 172.137h.332l-.605.599zM584.992 174.23l-2.75 1.827.002-.592zM581.33 176.951c-.591-.001-1.189.288-1.802.294l1.508-1.514c.293.327.29.939.285 1.22zM578.921 176.951l-.612-.003.314-.605c.598-.29.294.317.3.598zM576.798 178.16l-.622-.004.331-.914c.29.005.287.617.292.909zM428.381 62.987l.908.29-1.215.004zM406.907 66.92c-.614.59-2.998-.613-4.224-1.523l-.32-.922c1.535.004 3.333.914 4.535 2.435zM432.295 65.407l.318-.303 3.314 1.816-.317.293zM612.485 72.358c-.002.603-1.21.296-1.51.29-.61-.606.921-.903 1.51-.29zM600.996 73.562c.004.301-.306.294-.605.61l-.293-.318.289-.898 2.105.606zM598.276 73.565l-.317.293-.58-.603c.589-.3.583.001.897.31zM602.81 73.259l.893-.003.305.308zM594.943 73.564l-.004-.301 1.51.302.004.292zM591.936 73.863c0 .924-1.506.922-2.44.931.613-.93 1.532-1.221 2.44-.93zM588.891 74.47c-.29.898-1.194-.004-1.51-.293.612.004 1.225-.003 1.51.293zM573.193 75.375h-.924c-.29-.588.312-.585.925-.592zM583.148 75.062l.003.311-1.204-.587c.612.003.902.591 1.2.276zM571.667 75.372l-3.311.905c.612-.579 2.136-1.81 3.311-.905zM578.924 75.375s.002.321-.299.325l-.311.003.005-.632c.311-.003.612.003.615.315zM580.147 75.06l1.184.003.324.31zM565.909 76.595l-.904.001c-.003-.311.32-.895.907-.613z"/>
    <path fill="#84B414"
          d="M565.332 77.79c-.323-1.816-2.423-.303-3.926-.906.287-.296 4.22-1.187 3.926.905zM574.097 76.278c-1.514 1.825-4.84.6-6.971 1.207 1.22-1.79 4.853-.288 6.971-1.207zM558.064 76.883l2.439.002-9.383 1.227zM549.603 77.789h.933l-.933.913zM561.108 78.113c-.307.294-2.154 1.216-3.037.296-3.927 2.427-9.067.602-13.303 2.43 4.844-2.126 10.596-2.125 16.35-2.726zM545.658 78.698l1.816.009-4.842.62zM531.454 79.614c-.003.612-1.78.607-1.485 0zM543.558 80.22c-.606.61-1.81.606-2.408.895l-.002-.894c.602.002 1.807-.003 2.41 0zM539.926 81.118l-5.127 1.228c.89-.314 3.027-2.125 5.127-1.228zM562.304 82.343c0 .562-.29.567-.61.9l-.294-.899zM553.521 82.91c-.592-.002-1.21.636-2.097.338.289-.898 1.506-.58 2.097-.338zM557.165 83.248c.004.302-1.527.59-2.41.593.613-.59 1.507-.933 2.41-.593zM558.963 83.245c.003.302-.589.3-1.19.297-.004-.883.898-.292 1.19-.297zM562.304 83.839c-1.195-.005-2.423.61-3.632.314.927-.611 2.437-.319 3.632-.314zM541.145 84.738c-.607.62-2.122.617-3.024.94.298-1.229 2.121-.608 3.024-.94zM503.66 86.247c-5.737 3.051-13.011 2.435-19.354 4.259 5.454-3.026 13.003-2.115 19.355-4.26zM513.944 86.885l1.193.587.292-.005zM480.68 91.092c-.61.91-1.51.621-2.111.619l1.508-1.515.613.907zM469.193 93.209c1.808-1.508 5.713-1.508 8.168-1.805zM466.773 93.208c.002.904-1.208.617-1.82.614.295-.617 1.208-.617 1.82-.614zM435.326 96.851l1.24.29-1.535.327zM437.118 98.052h1.255l-1.249.623zM429.59 98.056l1.2.285-1.195.338zM436.562 98.676l-.957.267-.29-.597c.603.003.899-.283 1.246.34zM434.712 98.936l-2.414.632c.602.002 1.213-1.24 2.414-.632zM429.88 100.48l.903-.001c-.595.6-1.493 1.225-2.71.907l1.806-.906c-.294-.307-.592-.001-.592-.001.3-.898 1.794-.305 2.416-1.224l-1.834 1.224zM426.28 99.864c.294.297.297.608.295 1.21l1.188.305c-1.8 2.101-3.026-1.218-4.242 1.215-.001-.903-.296-2.124.925-2.428l-4.55.605c1.54-1.2 3.638-1.197 5.166-.3-.002-.904.9-.313 1.217-.607zM438.662 99.572c.303.9-.614.59-.903.905v-.903zM265.424 100.477h-2.4l.004-.611c.899-.293 1.5.302 2.406.612zM431.394 101.988c.912-.904 3.632-1.82 5.733-1.506zM417.797 100.778h.914l-1.824.302z"/>
    <path fill="#84B414"
          d="m420.818 102.277.005 1.547 5.759-1.223c-2.416.883-5.459 1.811-8.167 2.708l2.097-1.482c-.282-.336-.602-.003-.894-.34 0 0 .894-.584.89-.885l-6.042 1.489c2.12-.608 4.556-4.23 6.362-1.813zM416.889 101.984c-.32.905-2.744.613-3.93 1.202.904-2.41 3.021.003 3.93-1.202zM412.331 101.987l.346.29-.606.62-.004-.301zM424.154 105.912c3.61-1.22 8.149-2.73 12.405-2.73zM440.76 103.48l.621.004-13.306 3.042zM409.018 103.484l.292.336-.877.275-.311-.007zM403.909 104.402l.589-.31zM398.46 106.204l-.32.002 1.488-1.185c.303.9-.576 1.194-1.168 1.193zM285.674 106.525l-2.714-1.221c1.225-.003 2.414.291 2.714 1.221zM444.09 105.91l-1.218.616-1.793.295zM286.28 105.915h.903l-.004.611zM416.887 107.394l.29.006-.896.614-.29-.006zM446.51 107.396c-.907.613-1.513 1.233-2.714.957.612-.338 1.81-.956 2.714-.957zM422.926 108.013l.302-.004-.602.34zM443.194 108.01c-3.63 2.141-9.383 2.14-13.902 3.662l-.002.592c-3.628.616-9.084 1.825-11.18 2.144 7.847-2.145 16.604-5.163 25.083-6.389zM401.77 110.147l-.894.002c.002-.592.588-.29.894-.002zM421.116 110.465l.913.571-9.067 2.44zM431.394 112.88c-1.509.269-.9 1.808-3.014 1.523.605-1.523 1.818-.925 3.014-1.523zM420.814 116.782l.29-.898-1.22-.297c2.442-.6 4.844-.29 7.292-1.19zM315.616 114.686l.904-.002.298.609zM373.648 116.17l.31.006-.004-.291-.302.003zM420.496 116.514c-.284.266-1.198.266-1.789.596.303-.596.895-.936 1.79-.596zM405.105 118.61l1.8.298-1.806.003zM399.633 121.032c.617-1.2 2.437-.318 3.05-1.81l.608.615zM311.355 130.695c6.967-2.412 11.213-4.82 18.152-6.342-5.12 2.413-11.787 4.841-18.152 6.342zM280.84 139.178c-.614.589-1.808.585-2.42.913.276-.619 1.51-.621 2.42-.913zM277.527 140.093c-.627.286-1.198 1.19-1.826.904 0-.331 1.192-1.23 1.826-.904zM330.417 144.007c-1.205-.908-1.2.297-2.088-.002-1.229 1.198-3.318 2.13-6.068 2.13-.612-.004-1.488-.321-1.199-1.22 3.346-.61 6.048-2.12 9.676-3.319 1.21.287-.318 1.8-.32 2.411zM294.767 142.796l-.006.3-.61.308-.324-.31zM258.472 147.008l-.312.003.928-1.194c.002.322.297 1.19-.616 1.191zM256.376 147.327l.282-.006-.906.594zM255.144 147.64c.31.59-.614.59-.91.875.003-.602.298-.878.91-.874zM252.13 149.154c-.005.29-1.22.294-.916-.311.322-.002.922-.321.917.31zM249.412 150.05c-.002.602-.61.318-1.212.316.003-.602.922-.321 1.212-.316zM243.057 152.466l3.636-1.51zM307.139 151.577c-.29-.005-.613.579-.897.273v-.572c.29.005.61-.318.897.3zM303.825 152.16h.904l-.613.92zM240.645 153.078c.579.612-.618.297-1.227.605-.289-.608.936-.61 1.227-.605zM237.908 154.304c-.004.27-.305.274-.617.277l.611-.9c.301-.004.297.618-.004.622zM236.398 154.583c-.004.612-1.806.906-1.512-.273zM232.467 154.882h.913l.31.598zM233.975 155.194h.904l-.578.29zM228.25 157.293c-.003.612-.934.932-1.83.613.295-.275 1.219-.275 1.83-.613zM223.106 159.413c.605.314-.309.314-.316.625l-.307-.62.612.004zM218.568 160.341l1.517.324-1.519.268zM213.138 162.747c.267.616-.307.294-.622.91-.597-.294.307-1.219.622-.91zM209.79 164.873l-.613-.003.325-.614c.285.306.278.606.278.606zM207.39 164.874l.602.003-.6.9zM201.636 166.388l.598.284.619.616zM199.227 168.798h-.903l.3-.906c.321-.002.319.6.613.906zM471.597 173.354l.002-2.44c.306.288.31 1.513-.002 2.44zM180.784 176.058l-.602-.003c0-.331.323-.594.601-.329zM416.892 189.949l-.002.602-.908-1.214c.587-.29.905.32.9.611zM426.57 195.684l-.005.622c-.297-.277-1.516-.002-.904-.912.291-.005.612.003.908.29zM318.932 198.413l-2.404-1.786c.925.563 2.099.565 2.404 1.786zM426.868 196.624l.312-.003.282.908zM427.765 201.751l-.9-1.534c.894-.002.602.926.9 1.534zM328.322 205.358l.29.005 6.626 5.158.002.32zM250.305 208.109l-.003.612c-.312-.328-1.507-.333-.612-.917.003.312.304.308.615.315zM225.521 208.109l1.2.276.312-.003zM237.011 208.381c-.61.9-2.126.326-2.71.004.004-.28 1.787-.586 2.71-.004zM227.947 208.381l.612.004v.331zM232.785 208.383l-1.806.334-.001-.331c.586-.28 1.195.335 1.807-.003zM220.99 208.385c-.903.333-2.427 1.233-3.33.893.299-.897 2.428.002 3.33-.893zM475.858 209.894l-.321.002-.619-.616c.317-.294.623.335.95.615zM482.487 209.62l.924.001.287.276zM335.852 210.845l2.742 1.475.007.613zM521.485 214.448l-.9.885.285.296.618-.297c3.339 2.109 9.383 3.932 10.885 8.792.618 2.112 2.092 4.198 3.924 5.744-1.492 1.224 2.121 1.23.926 2.73l-2.75-.923-.004.622c-1.181-1.187-3.012-.915-4.213-1.191-1.508-1.226-3.015-3.968-4.844-3.034 1.534.596.294 1.813 1.22 3.038-.292-.327-.602-.003-.924-.332l-.29.326c.297.277.926.894.612 1.5-.884.002-1.78-1.23-2.392-.31-1.85-1.809-1.532-5.445-3.342-6.667-.287-.276.305-.275.303-.596-.917-.301-1.517-.906-1.809-1.815l.606-.61-.606-.303-.318.303c-2.408-1.505-6.368-5.455-3.628-9.351l.001-.934c3.34.614 3.632.94 6.66 2.129zM227.313 268.866l-1.796-.93c.606.304 1.791-.285 1.796.93zM288.4 269.161l1.531.616-1.538-.315zM293.54 270.073l-.001.582-.904.001-.004-.873c.312-.003.6.604.898.289zM236.392 272.481c-.9.313-3.016-.294-3.929-1.217 1.5.633 3.026.636 3.93 1.217zM299.88 271.27c-.291.336.616.636-.001.923l-.894.003c-.61-.596.614-.93.894-.926zM304.112 272.795l.005.291-.901-.6c.321-.003.899-.293.896.309zM306.532 272.796c.322.901-1.526-.003-1.808.002zM307.442 273.407l2.423.293.292-.005zM256.377 280.062c-.317.303-.613.589-.925.592l-.301.003c.001-.592.91-.874 1.226-.595zM389.669 342.316c-.9.303-1.784.888-2.387.895.603-.59 1.195-1.16 2.387-.895zM383.622 342.931c-.003.271-.576.271-.907.272.325-.272.604-.59.907-.272zM385.752 348.99l-.304.606-.308-.61c.302-.003.602.003.602.003zM378.801 350.189l.894-.002-.605.6zM374.855 351.69c-.303.596-1.2.307-1.8.606.294-.597.907-.603 1.8-.605zM369.44 352.893c-.343.934-1.509.611-2.441.941.61-.328 1.508-.6 2.441-.94zM377.256 353.507l.934.001-.3.325zM376.666 353.827c-.569.883-1.21.285-2.108-.004zM373.954 354.422c-.609 1.222-3.324 1.506-4.86 2.426.611-1.824 3.659-1.206 4.86-2.426zM368.22 356.852l-.612-.003c-.615-.315.613-.92.895-.595l-.282.588zM366.393 356.853c.004.301-.593.59-.9.885-.292.004-.003-.884.9-.885zM244.871 361.67l.612.003-.002.592zM291.734 378.598c.004.302-.313.595-.615.6l-.311.002c-.004-.301.314-.605.916-.602zM287.788 379.528c-.887.615-2.116.89-3.327.622.92-.3 2.162-.613 3.327-.622z"/>
    <path fill="#84B414"
          d="m380.992 110.588-7.041 1.663c3.871.378 5.98-.31 7.041-1.663zm-24.074 22.98c-.686.15-1.395.228-2.288.452.692-.221 1.897-.116 2.288-.453zm-67.915 11.082-.132.019c-.03.007-.062.024-.103.03.083-.022.163-.025.235-.049zm-1.179.168c-.336.061-.674.132-.981.205a10.353 10.353 0 0 0 1.67-.265c-.223.02-.455.03-.699.06zm1.39-.27c-.084.033-.139.088-.211.112.525-.044 1.03-.07 1.506-.009-.432-.218-.865-.206-1.286-.102zm113.146-38.625-.016.189c.652-.234 1.323-.437 1.994-.649zm8.162 7.56-1.505.45v.472zm-6.183-8.03 8.624-1.966c-3.578.62-6.213 1.254-8.624 1.966zm-47.924 241.422.097.039c.06.005.134-.039.204-.033l-.302.004zm-31.153-211.64zm232.179 1.2c.325.3.325-.273.917-.271-.923-5.743-.923-12.398-2.43-18.462-5.122-10.868-13.304-20.84-20.86-30.514l22.99-3.018c-7.244-.614-15.721 1.515-24.185 3.023-1.21-.617-.313-1.814-.59-1.507l-.623-.004c-.59-.935-1.807-1.835-2.418-2.771.614-.248 2.414.632 2.416-.873-.587-.292-1.222.305-1.805.314-.901.322-2.419-.001-2.117-.928l12.7-2.091-4.226.584c-3.34.32-7.554 2.13-9.986.32-1.533-.605-3.934-3.335-5.754-.894 1.213 4.834-6.046 3.014-8.775 4.833 2.729-.323 6.064-1.497 8.16-.912l-15.4 3c5.456.637 10.257-1.804 14.808-1.506l-2.407 2.73-.321-.91-2.73 2.742-49.264 9.372-3.634-5.167c16.635-3.915 33.243-6.035 49.9-9.055-16.038 1.799-33.571 4.852-49.894 8.765-5.14-7.236-11.208-13.599-17.836-19.65l.61-.308c-1.831-.3-2.724-1.222-2.42-3.313-1.53 3.018-3.632-1.523-5.164-1.225l3.343 2.752c-1.499 1.184-3.004-.313-4.54-.317-11.483-9.065-23.246-18.155-37.781-20.561.583-2.418 1.49-4.537.912-7.56-5.443-.315-7.566 5.13-9.386 9.067-1.486 0-4.225-.59-4.825 1.224.597 1.207.293 3.308 2.1 3.306-3.906 11.483-6.96 22.98-6.636 34.774-2.481 5.183 3.836 15.132.68 19.182l.513-.126.614.907-8.772 2.395-.002-.894-.289.889-7.85 2.405c-2.114 1.22-5.75.34-6.657 1.515l-.904-.912 13-3.902-13.914 3.912c-2.42-1.486-6.659-1.797-8.174-3.636-4.82-.894-9.646-3.916-14.819-5.141l-.585-.885-.616.278c-2.121-1.802-4.823-.874-6.62-2.707-6.07-2.097-12.716-3.924-19.056-5.12-15.425-3.94-32.957-6.066-48.073-5.16-1.816-3 3.914-5.73-1.224-7.234-2.715-.298-4.826 2.73-6.018 4.532-1.23 19.337 3.615 37.498 9.642 55.01l-3.014 1.523 2.15-.595c-.318.876-2.143 1.198-3.059 1.8-2.405-1.535-6.028 1.21-8.441 1.832 1.188.304 2.726-1.217 3.922-.32-1.513.32-3.608 1.2-4.826.321-1.205.577-4.217 1.508-3.945 2.415-6.942.628-12.676 4.212-19.04 6.044l1.506.001-.605.61c-.895 1.507-2.708 1.8-3.636.595l-13.902 5.148-.002.602c-.591.902-2.108-.004-1.802-.288l-12.418 4.826.619-1.22c-.615.598-1.818.924-1.525 1.823l-37.465 14.832-3.316.613.296.287-1.197.598c-5.149.914-8.18 4.233-12.394 5.129l.291.347-4.53 1.18c-45.05 19.377-90.406 39.61-133.016 65.626-.606 2.105 1.82 2.719 3.025 3.627L0 269.528c2.716-1.219 5.147 1.523 7.86.918l17.537-8.153c44.758-19.363 89.199-39.004 135.14-55.031 3.323 9.636 8.762 18.153 17.55 25.095 2.108 3.336 6.326 5.14 9.367 8.137 6.62 8.199 15.089 14.55 24.176 18.769l-.615.599c2.401 1.816 4.545.608 6.328 3.635 5.458.598 9.376 4.815 14.541 6.351 1.506.002 3-.32 3.618.879l-.302.004 3.003 1.246-.911.894c1.53-1.191 3.063.9 4.844.615l.588-1.214c.332 0 .326.29.62.607l-.302.003 2.426.614-2.753.603c.954.003 1.54.305 2.133 1.21-1.181 1.222-2.422-1.808-4.516-.586 4.81 1.806 9.643 3.594 14.793 3.593-.305.616-1.184-.003-.918.623.61.605 1.215-.005 1.52-.62l.305 1.22.592-.921c.895-.594 2.431.323 2.43 1.247l-2.423.28c1.199.295 3.031.004 4.517.003.61.596 1.522 1.197 1.52 1.79-55.943 9.982-109.119 27.233-158.382 53.228l-.608-.284c-.004.28 0 .582-.312.585-9.361-2.114-10.272 10.595-18.137 11.794l2.405-.291c-.898 2.12-3.613 3.317-3.315 5.421-2.436.31 1.519 3.637-1.823 3.967 1.22.277 1.22 1.773 1.825 3.01-2.721 1.499 1.514 3.917 2.114 5.435h-2.41c12.392 8.793 26.604 13.63 41.716 16.338 18.755 2.705 39.007 6.324 58.06 6.324 34.746 1.554 67.398.326 99.142-6.945l1.803-1.218c4.223-.303 9.067-2.098 13.012-2.094l-.318.304 3.334-.923-.318-.62c8.169-1.805 16.65-2.71 24.178-6.026l.33.922c3.03-1.813 6.342-2.145 9.662-3.04 1.795-2.733 5.43.004 7.25-2.427 7.532-2.111 15.405-5.126 22.668-7.252-.586-.302-1.506 0-2.433-.303-1.81 2.432-5.124.626-7.863 2.093-1.513 2.156-3.332 0-4.236 1.838l-11.163 2.416c14.207-5.422 30.532-8.441 45.339-14.182l-12.71 3.335c-1.512.881-3.922 1.805-5.434 1.19l.002-.592c-1.202.889-3.021-.003-2.708 1.811-2.757-.612-7.873 2.092-10.606 1.21 12.115-6.067 25.723-7.868 37.472-13.646-2.683.599-5.41 2.177-8.443 1.842l.896-.605c-3.017.299-5.725 2.11-8.163 1.515 4.54-5.757 13.02-4.242 18.757-7.865-.904-.913-3.324 1.506-4.543.295-9.678 3.911-20.265 4.22-30.228 7.835l-.6 1.232-1.416-.565c-6.623.665-14.669 4.509-22.171 4.786 11.21-4.22 23.906-5.448 35.092-9.97-9.99 2.088-19.663 5.146-29.631 7.556-20.873 5.432-43.249 9.688-63.815 11.492-7.519.005-15.998 2.726-22.37 1.215l-.28.89c-3.344-.896-6.644 0-9.983.3-3-1.507-7.258-.002-9.968-.922-3.039 2.726-5.435-1.79-8.466.615l-24.79-2.11c-1.51-.302-3.008 1.796-3.935-.002-28.998-4.504-60.756-5.446-86.134-22.071l.605-.6.305.298v-.913c3.313-.584 7.244-1.806 10.262-3.941 10.292-4.51 21.769-8.445 32.352-13.873 34.496-9.69 68.327-24.518 104.58-29.056l-.6-.595 3.286-.495c-.528-.046-1.05-.283-.843-.696l23.58-3.328 2.712.9-.002-.903.332-.002c.275.296 1.162.604.273.898 1.193-.9 2.092 1.789 2.7-.005-.003.612 2.135.608 2.432.895l-1.803-1.191.28.004c.004.302.312-.003.622.004.904 0 2.119-.005 2.12.908l-.904.002c1.806 3.912 7.53.9 10.879 3.01.897-1.197 2.733 1.804 3.023-.59l2.71 1.492.607-1.201c.315.298 1.219.297.6.594 2.425 2.12 3.95-1.21 6.662.613l-.297.306c2.1.896 5.118-.908 7.244.603l-3.312.915c3.013.906 8.164.313 11.486 1.236v-.924c.31-.314.593.002.888.299-.298.305-.296.626-.296.626l1.818-.925c3.336 1.226 7.869.93 11.493.926-3.93-.625-10.278-.93-13.596-3.047 7.562.3 15.404 1.197 22.668.9.003.3-.287.295-.284.607.612.003.89-.314 1.207-.607 2.704.296 5.704-.606 8.753.002.901-1.808 3.343.002 4.852.304 5.114-1.198 10.872-.584 16.012-.586-4.852-2.713-9.676-3.908-15.418-3.909-.93-1.537 1.209-1.54 1.514-2.728-.6-.605-1.51-1.217-2.442-1.81-12.985-4.87-27.495-5.156-41.675-5.774-57.758-8.165-116.414-20.534-155.696-67.427 6.027-.617 13.3-.904 19.647-1.513 3.916.895 8.173.896 11.478-.28l-.005.28c.005-.28 1.189-1.191 1.817-.002 7.255.605 16.021-1.489 23.28-.583 4.527.918 9.055-1.506 11.783.59-.612-.004-1.22-.278-2.134-.278 1.513 1.177 4.223.61 5.748.282l-2.71-.588 3.041-.909c10.279.578 24.784 1.496 34.742 1.494.278.607.901.6.906 1.234 6.656 0 13.616 2.707 20.26 1.802l-.002 1.516c8.16.583 16.03 1.513 23.278 4.827l-1.514-1.508c3.926.896 8.779 3.95 12.38 2.148l18.446 10.256.614-.598c.911.601.613 1.489.615 1.81 1.833-1.215 3.633 1.502 5.136.269-2.436-1.187-3.31-3.592-6.04-4.514.61-1.794 1.798-.003 2.729-.895-4.853-1.208-8.166-5.453-13.013-6.961l.294-.607c-2.107-.586-4.248-2.39-5.735-3.633l.292-.587-3.34-2.09-.904.574c-.296-.287-.584-.894-1.196-.898.004-.622.606-.62.61-1.241-1.829-.893-3.917-1.808-5.147-3.924l.927-.27c-3.029-2.443-6.058-4.876-9.097-6.056l1.206.899c-3.001-.002-2.105-1.53-4.858-2.754l.632-.567c-2.718-2.436-4.557-5.75-8.164-6.968l2.404 2.117c-2.719 1.82-2.115-2.443-3.625-2.736l.602.002c-1.804-3.008-3.312-4.827-6.65-6.373-4.538-7.213-13.875-14.194-18.141-22.347l10.6-4.242-.609-.615c.302-.004.608-.288.9-.293.586.292 0 .904.297 1.19l5.44-2.405 3.04-.908c.278-2.706 4.834-2.117 7.245-3.632l.601.926c2.413-1.536 5.144-1.538 7.272-3.37l-.617-.294c5.442-3.921 15.106-5.716 22.645-8.479l-3.324 1.857.929.282c6.648-3.022 12.99-5.74 20.257-7.232.062.207 0 .342-.117.422.245-.05.479-.079.716-.158 3.615 2.745 9.066 6.063 12.681 9.38 2.727.61 3.338 2.12 5.138 3.341 3.632 3.922 9.077 5.713 11.49 10.26 5.153 4.547 9.374 9.996 14.201 15.748 1.215 4.814 5.465 9.362 8.165 13.614 1.52.303 2.754.3 3.655-.925 1.493-.894 1.496 1.486 2.101 2.713 0-.572.918-.281 1.215-.004-.291.004-.297.295-.9.303.599.614 1.192.606 1.797.92-.903.914 1.83 1.806-.004 2.449 4.247 2.058 3.933 8.746 9.1 9.348l-2.417-3.925 1.07.164c-.537-.288-.97-.838-1.411-.164.633-1.842-2.096-3.928-1.198-4.552l-.898.624-1.214-1.501 1.512-.64-.906-.893-.319.896c-.611-2.423-2.702-4.804-3.315-6.966.301-.004.616-.277.612.003l-.312-1.482h.923c-.61-.605-1.218-1.22-1.51-2.13l-.608.298c-.9-1.192-1.823-2.116-1.532-3.607.93-2.127-3.609-4.532-1.17-6.356L412 168.862c.268-.307.607-.62.897-.614-2.718-6.33-6.064-13.299-8.77-19.659l.579-.873c-3.897-7.548-6.043-16.64-8.156-24.504l.605.314-.608-.625 21.49-6.05c-.319-.61-2.728-.61-3.663.322l.29.587c-2.409 0-3.925.921-6.045.595-.59.32-1.804.314-1.201 1.23l-10.287 2.724-.298-.608 2.13-.597c-1.23-.62-2.123 1.21-3.031-.004 6.927-3.339 13.602-4.25 21.458-6.043l-.591-.583.588-.642c-6.34 1.222-12.708 2.753-18.422 4.843-1.23.294-3.631 1.228-3.631-.609 3.63-1.218 8.476-2.109 12.08-3.6l1.507-.47.014-.17c3.038-1.22 5.11-3.91 8.45-4.21-.002.592-.594.59-.592.912 1.513-1.233 3.924-.911 4.833-2.117-1.512-.624-3.323-.34-4.538-.337l5.744-2.097c-4.522.287-7.537 3.316-11.48 5.129l-.613-.576c-1.514.902-3.322 0-5.128.907-.351 0-.794-.22-1.05-.503-1.911.505-5.954-.33-6.832 2.012-1.209-1.21-2.087-1.84-3.622-1.502 2.42-1.514 8.23-1.95 10.678-3.191l-.001 1.967 2.018-.004c1.81-1.518 2.73-.002 4.533-1.22-.913-3.332 3.95-1.541 5.134-3.024l-.59-.613 1.5-.612c-3.335 1.515-7.24 2.428-10.87 3.315l-.314-.89c1.528-.6 3.947-.599 4.842-2.106-1.511.289-6.037 1.188-9.07 2.71l.262-1.624c-2.731.926-5.446 2.013-9.327 3.46l-.613-1.83 4.22-1.197c-1.517-.323-2.716.295-3.93.87-.898-2.708-1.2-5.113-2.107-7.822.908-13.02.002-25.718 4.218-38.118 2.416-.883 3.923 2.431 6.336 1.82l-.272.93.89.268c.001-.592-.31-.59-.624-.898.623-.588 1.212-.888 2.14-.596.606 2.713 4.214.59 5.725 2.71.614 1.82-2.115 2.725-2.722 3.345.002.904.928 1.215 1.527.907.891 4.846 5.42 5.754 9.07 7.85 3.325 2.73 6.038 5.116 9.682 6.95 3.619 5.446 9.994 9.678 13.598 14.842l-.297.295c2.701-.928 2.701 3.318 4.532 3.619-5.138 1.819-13.017 2.726-18.133 4.868-2.752.582-.614.589-2.414 2.118l16.31-3.643c-.005-2.128 3.314-1.517 5.125-2.131 1.817 4.244 5.746 4.538 6.657 8.462l-.3.325c8.167 13.594 17.227 27.185 19.942 42.62l-1.198 1.19 1.195-.005c-.003.612-.292.928-.297 1.218 1.819 5.139.292 9.974 2.115 15.403-1.81 3.948.62 9.1.324 13.62-1.824 1.808 1.18 2.131.59 3.937-32.336 6.336-62.251 27.81-69.825 61.368.003 6.053 1.21 13.015 3.327 18.43 2.102 1.218 2.701 4.231 4.855 5.775-.923 3.894 5.438 7.262 2.71 9.06l1.187-.598c13.624 16.61 37.19 19.646 56.549 13.269.907 1.224 2.408.933 3.636.318l-.318-.61 8.76-2.727c1.528-1.161 4.864.636 5.46-1.48 8.77-2.143 16.928-5.766 24.486-10.586.29-.316 1.206-1.842 2.13-.928 8.133-8.754 19.028-15.099 22.05-26.59-4.23 2.11 1.541-3.95-2.428-3.333l.623-1.502c-1.817.002-3.04-2.424-2.135-3.93l-.907.612c-.895-.901.615-2.094.005-3.04-1.174-.003-2.71.003-2.711-1.483-.615.599-.899 1.207-1.515 1.484-3.627-2.717-.902-7.246-3.632-10.577l-.297 2.132c-2.41 0-3.025-2.141-5.149-2.418-.606-3.968-3.31-6.674-5.134-10.276l-.612-.004-.293 1.51c2.734 2.72 4.85 6.649 5.144 10.278l-.893.002c.286 3.609-2.417 6.625-4.562 9.338-.592-.001-.59-.603-.876-.88-3.018.88-1.24-3.953-3.022-4.239-.616 3.018-.615 6.34-1.827 9.065-3.95-1.199-3.051-5.747-6.658-6.967q-.004-.301.29-.576c-.893.574-2.708.897-3.306-.29-1.496 1.486-4.242.292-6.348 1.182l-.002-.322c-2.73.926-5.45.005-8.18-.003l1.216-1.51c-1.222-2.094 1.515-2.407 2.12-4.502l-1.502-.613c-.304-1.803 3.93-2.116 1.505-3.322h.924l-1.216-2.745c-1.216-1.813 1.825-1.808 2.415-2.7l-.587-1.206c2.396-.312-.002-2.73.89-3.646-.298-.599-.887-1.212-1.494-.924-.316-.87-1.53-2.372-.005-2.7-.6-2.442-2.735 1.195-3.365-1.239l.321-.574.314.319 1.204-2.405c-1.198-1.219-1.51-4.539-3.314-3.311l.296.287-.908.282c-1.506-.574-3.915-.001-3.629-2.697h-.582c-1.536-.336-1.529 1.18-2.434 2.125-3.024-.324-7.564.864-8.457-3.048l1.805-.324-.297-.277c-1.224.917-3.932-1.177-3.929 1.192-2.117-.005-2.425 2.137-4.24 2.46l.612.575-1.833 1.215-.592-.915-.576.612-.338-.611c-1.202 1.812-3.63 1.228-5.144 2.12-.29-.578-1.194-.577-1.496-.001-5.157.322-10.59 2.416-13.295 6.938-1.224-.58-3.05 2.744-3.945-.004 13.015-14.17 33.27-26.893 52.905-18.74-.901-.601-1.506-1.829-2.729-2.428 3.654-.001 6.962 3.039 9.978 5.742l.6-.901 6.654 3.924-2.102-2.372.57-.653c-3.888-4.214-7.528-7.243-12.049-10.871l.91-.302-3.026-1.208.588.623c-2.726-.63-6.947.005-8.75-1.528 2.095-1.804 1.803-5.122 1.51-7.848 2.712-5.766.888-13.023 3.32-18.451.616.305 1.498 1.807 2.1.906 1.246 3.643-.286 9.682 4.862 10.273.89-1.217-.304-2.717-.89-3.601l2.097-16.962.904-.583c2.096-12.706 9.962-22.99 15.716-34.492l-.609-2.1c2.435-5.46 5.137-10.875 7.256-16.622 2.412-1.515 1.514-6.06 4.238-6.334l-.606-.636 1.507-1.514c.304-.606-.001-.904-.611-1.5l.615-.608c6.346 6.056 15.093 13.015 18.438 21.479-4.827-5.753-9.666-12.4-16.336-16.015l-.609 1.794c2.461 2.735 6.074 5.149 6.967 7.566-3.045-1.22-3.93-4.54-6.966-5.74l3.924 4.831-4.832-3.635-.587 1.204c3.635 5.156 10.286 9.673 12.395 15.74-4.22-2.708-5.73-7.237-9.967-9.073-1.213-1.512-3.93-5.453-6.049-3.029.317.279.619.275.901.6l-.587.29 4.81 5.14-.29.326 9.671 10.282-1.188-.305c6.026 6.048 9.962 13.269 12.672 21.185 5.439 14.479-2.39 30.196-5.115 44.704 2.122 1.21-.293 4.26 1.2 5.436 1.528-.59 1.206-2.073 1.818-2.993 9.383-14.538 15.407-29.35 17.235-46.576-.933-2.41 1.19-6.029-.326-8.781zM337.358 364.712l.903-.001c-.266.288-1.192.89-.903.001zm-7.56-11.804-12.985 3.04c4.233-1.216 8.753-1.824 12.985-3.04zm-16.336 3.37 1.536-.007-4.25.27 2.705-.275zm.322 11.461-4.535.898c.603-.59 3.019-.89 4.535-.898zm-16.919 3.037.292.568-3.927.6zm-17.24 5.438c9.055-.914 18.728-2.708 27.795-5.147 0 .22.185.408.407.517.812-.22 1.626-.46 2.43-.7 1.107-.496 2.257-1.018 3.522-1.017-1.18.398-2.347.668-3.522 1.016-.752.336-1.494.673-2.228.8-.07-.007-.125-.062-.193-.098-10.335 2.82-20.63 4.158-31.52 6.437l-.62-.596c-4.846 1.795-11.189 2.123-16.928 3.016l-.622-.576c6.975-1.247 14.52-3.046 21.49-3.651zm-104.005 7.233 16.328 1.539c-5.13.003-11.457-1.223-16.615-.902zm148.758-91.593 2.102.304.602.002.003.312-2.704-.307-.003-.302zm-74.706-15.691c-1.183.9-2.12-.326-2.996-.644.296-.285 2.104-.288 2.996.644zm99.472-146.328c-6.948 1.5-13.924 5.739-21.445 6.346 4.82-2.43 7.852-1.522 12.095-4.232.295-.617-.632-.929-.639-.618-2.712-.318-4.22 3.023-6.644 1.827l-7.25 2.087c.09.007.204-.033.29.005l-.065.064c.237.041.467-.06.678-.06-.269.317-.61.317-1.172.318.24.001.303-.023.504-.257-.079-.017-.152.017-.236-.06-.89-.038-2.12.838-2.409 0 7.551-2.09 14.814-3.302 22.375-6.656l3.927 1.237zm-21.447 7.861-1.215.004.921-.32zm-3.318-4.526.61-.318.27.003-.603.59-.278-.265zm3.928-2.447.298.608c-.293-.317-1.195.006-.298-.608zm16.307-2.7-6.028 1.21c1.502-2.137 3.916-1.846 6.028-1.21zm-5.455-.637c-.27-.004-.577.632-.904.925l.904-.002q-.578.291-1.175-.002l1.176-.931zm-3.324 3.343-2.413.612 2.408-.904-.005.291zm-3.315-.892-.004-.302.904-.001.004.301zm1.193.596.936-.6.903-.002zm-42.301-24.21.311-.002.002.321-.311.003zm-85.846 61.373c-.002.602-.903.914-1.232.313.331 0 .615-.598 1.232-.313zm100.061 29.944.002.894c1.807-.003 1.508 2.732 4.23 2.137-.916 2.098 2.412 1.807 3.61 3.026-37.49-5.77-77.973-10.596-118.466-4.532-2.42 1.504-5.78.9-8.493 1.505l-17.838 4.242-.289-.598c22.98-9.092 46.84-18.137 70.115-26.941l-.602-.575 2.439.002c9.64-3.934 19.344-8.496 29.31-11.8 2.72-.003 3.95 3.618 5.73 3.924-.293.587.599 1.187 1.238 1.795l.268-.88c9.72 9.373 18.448 21.48 28.745 27.811zm-25.084-56.581 2.404-.854-.61-.615-7.871 3.005c.003.311.313.319.615.315-.91.302-2.415.3-2.42 1.505l-.597-.294c-.304-.317 2.11-.608 1.523-1.804l-2.136.898c-7.548-14.815-12.096-29.949-12.7-46.565 1.529 2.142 4.53 1.802 6.644 3.332l.627 1.21c6.03 2.103 12.059 1.807 18.713 2.74-.316 1.198.904 1.485 1.517 1.479 1.21-.286 1.502.613 2.111 1.218 6.948 1.823 13.007 3.939 20.255 4.844 7.869 3.92 16.913 5.415 24.176 9.945l-.299.315 1.202.607c-.9 1.216-3.321 1.818-3.923 1.815-.295 2.103 2.436-.309 3.919.293l-.586.611.296.297c-1.807.003-4.228 1.507-6.653 1.807l-.003 2.44c1.543-1.221 3.34-1.224 4.848-1.825-.902.905-3.016 1.191-2.72 1.83 1.82.3 3.625-1.51 5.438-2.145l1.478.2c-2.112.157-4.291 3.038-6.923 2.255l-1.494.893.6-.89-2.452-.306c.923 0 1.532-1.22.602-1.834-4.538.004-9.356 2.414-14.211 3.635-3.313.001-7.536.887-10.872 2.412-4.21.615-9.065 1.505-12.696 4.22 6.045-1.51 12.41-3.924 18.74-4.796 0 0 .296 1.773 1.81.872l-2.423 1.534 1.513.604-.602-.002.603.575-.291-.006c-.004.391-.017.54-.055.628l.06.005s-.042.016-.053.026l.003-.03c-1.516-.002-4.489.019-5.068 1.825l-.947-.314.948-1.192c-3.363.57-5.75 1.806-9.387 2.421 4.536-2.735 7.847-1.23 11.758-3.94-1.784-1.521-5.41.57-7.538.575.903-.573 2.409 0 2.411-1.174-5.115-.628-9.937 3.317-14.502 3.63-.002-.312-.324-.31-.328-.611-.449 1.808-2.557 1.924-4.494 2.377zm34.726-8.416c-.002-.331-.263-.324-.564-.33 1.496 0 2.735-1.196 4.512-1.201-2.093 1.202-3.948 3.017-6.944 2.725zm-3.925 1.494-.296-.297.905-.583.311-.003-.93.872zm10.606-.869c-1.516 1.494-5.436 1.773-7.558 2.4 2.735-.634 4.827-2.398 7.558-2.4zm.607 4.53c-.6.901-3.338 3.613-4.85 1.503 1.213-1.239 3.328.291 4.85-1.503zm-21.77.896-.928 1.194-.607-.294 1.535-.91zm-2.726 1.197-.61.9-.292.005.912-.894zm-1.201 1.23c.293.89-2.44-.002-2.116.89-.928-.293 1.512-1.224 2.116-.89zm-4.536-2.424.897.299c-.289.316-2.121.607-.897-.3zm-3.946 9.07c1.197-2.435 3.632-2.734 5.437-3.63-.002-.321-.293-.316-.585-.312l.584-.591c-.875.596-2.707.305-3.327 1.536 0 0-.837.047-1.836.11-1.204.567-2.394 1.658-3.617 1.069-1.51.39-.164-.306 1.795-.787-.636.045-1.242.082-1.793.185.004-.15 1.402-.3 2.775-.39.347-.07.682-.11 1.036-.14.115-.05.23-.1.353-.13.343-.14.697-.28 1.01-.534h-3.333c1.796-.907 5.448-1.22 6.937-2.415l.003.884c1.516.002 2.113 1.208 3.955.004-.611 1.824-2.734 1.528-3.953 2.726l1.22.298c-2.104.629-4.235 1.817-6.653 2.138zm9.388-2.43.588-.3 1.225-.004-1.802.294zm3.898-2.11c-1.491-.621-3.036 1.2-4.802 1.538.29-3.648 6.332-2.156 9.362-3.969 4.524-1.803 9.374-3.316 14.213-4.237-5.738 3.051-12.702 3.948-18.763 6.67zm.945.907 4.22-1.528.29.005-4.51 1.533zm3.008 5.433c2.12-.608 3.315-3.013 5.428-2.728-1.199 1.2-4.21 2.121-5.428 2.728zm6.334-9.063c.917 1.225 2.14-.606 3.042-.005-.302.004-.296.285-.296.285.568.622 2.099.335 3.001.002l-3.006 1.544-.607-1.208-2.136.898q.31-.897.002-1.516zm.61 5.755c6.36-3.037 13.333-5.76 20.247-7.564zm19.953-9.708c6.065-2.09 12.41-4.505 18.439-5.724-6.34 2.707-12.37 3.936-18.44 5.724zm51.412-17.516.297.619-.61.318.322-.926zm.592 3.335-2.709.897 2.417-.893zm-18.425-5.457-1.204-.005c.301-.004.596-.269 1.204.005zm-2.109 4.253 1.63-.5c.32-.555.995-.475 1.598-.483l-1.598.483c-.047.076-.108.09-.137.188 3.6-.297 7.56-1.496 9.962-3.605-1.805-.59-5.136 1.8-6.359.287-1.775 1.822-5.095 1.21-6.016 3.017-.317-1.192-1.535-.004-2.128-.578 6.04-2.141 12.095-5.145 18.454-5.432l-3.955 1.491c1.541.285 4.85-.59 6.663-1.806l.603.906-1.805.896.588.624-2.101.267c-.082.244-.051.357.032.435-.7-.031-1.493.09-3.043.476.281.918 1.807-.002 3.024.315-3.951 1.22-9.968 1.838-13.911 3.31-.598.63-1.205-.005-1.492-.28zm5.436-2.125c.884-.003 1.198-.608 2.094-.298-.608.298-1.21.295-2.094.298zm11.77 1.21c.291.91-1.224.907-1.802 1.198l-.316-.289c.61-.318 1.22-1.198 2.117-.908zm-7.253.29-.609.298.308-.305.302-.003zm-1.52.62-.587.28h-.913l1.51-.28zm-3.932 1.804-1.192.307c-.003-.302 1.775-.899 2.714-1.188l-1.218 1.188zm1.512 1.527c2.727-1.217 5.43-2.406 8.478-3.042l-.608.639c1.807-.003 4.517-.92 6.342-.319-4.827.903-9.383 3.637-14.213 2.732zm18.162 11.788-.615 1.522c-4.253-.613-6.074-5.149-9.685-6.68l.007-.3-2.44-2.412 9.396-2.41c1.506 3.324 3.34 7.269 3.92 10.853zm20.837-23.604.291-.004-1.494.33 1.193-.327zm-3.313-.57.301-.004c-1.228.274.002.893-.902.563l.602-.57zm-9.384 4.8c1.83-1.195 3.934-1.483 5.75-2.388-1.19 1.773-3.92 1.193-5.75 2.388zm6.502-3.878 1.291-1.674c.611-.328.09 2.537.087 1.644-.337-.05-.84-.034-1.378.03l-.451.572-6.19 1.908c.257-.991 4.191-2.243 6.641-2.48zm-7.71 2.99.632.004-1.209.627.587-.631zm6.047-8.767c.32.6-.606.278-.604.6-.002-.322.344-.603.604-.6zM505.46 91.734c-2.107.91-3.938.61-6.368 1.19 1.524-.89 4.257-.581 6.368-1.19zm-7.54 1.509.562-.001-25.379 4.846 24.807-4.846zm10.24 3.325.92.602c-.32.324-.323.595-.32.916-1.505-.593-2.094 1.202-2.732 2.421-.002 1.506-2.993 3.342-3.892 6.044-6.982 12.69-13.929 25.995-14.53 41.12l-.899.875c-3.315-17.526-9.974-34.12-19.645-48.647l45.334-8.16c-.583 1.505-2.381 3.927-4.237 4.829zm16.953-.906c-1.504-1.517-4.256-2.42-4.261-5.452l6.364 6.078c-.616.267-1.538-1.239-2.103-.636zm14.801 17.838 3.315 5.138c-1.495-.923-2.998-3.022-3.315-5.138z"/>
    <path fill="#84B414" d="m286.029 271.474.007 171.674 518.694-.003.003-171.673z"/>
    <g fill="#fff" aria-label="VERDI">
        <path
            d="M410.243 300.152h-37.428l-11.54 60.665c-1.248 6.55-1.715 13.1-1.715 16.686h-1.872c0-3.586-.624-10.136-1.871-16.686l-11.54-60.665h-38.52l29.318 114.312h45.85zM500.382 414.464l-1.56-31.19h-41.014v-10.605h36.648v-31.034h-36.648v-10.293h39.767v-31.19H420.38v114.312ZM605.492 382.338c-1.091.156-2.495.312-3.742.312-2.807 0-3.431-.624-4.679-2.963l-7.485-13.568c9.357-6.394 15.127-16.687 15.127-31.19 0-25.42-16.531-34.777-40.235-34.777h-49.125v114.312h36.337v-38.676h4.054l9.67 21.365c5.925 13.1 12.32 18.246 27.758 18.246 3.12 0 8.578-.468 12.32-.935zm-37.74-43.978c0 8.265-2.027 10.76-7.017 10.76h-9.045v-20.585h9.513c4.522 0 6.55 2.183 6.55 9.825zM718.868 355.047c0-39.3-21.21-54.895-51.775-54.895h-46.006v114.312h46.473c33.218 0 51.308-21.366 51.308-59.417zm-38.988.623c0 24.796-.623 28.54-13.1 28.54h-8.577v-54.271h8.734c9.824 0 12.943 2.339 12.943 25.731zM770.331 414.464V300.152h-37.428v114.312Z"/>
    </g>
</svg>
