<?xml version="1.0" encoding="utf-8"?>
<!-- Generator: Adobe Illustrator 27.5.0, SVG Export Plug-In . SVG Version: 6.00 Build 0)  -->
<svg xmlns:xlink="http://www.w3.org/1999/xlink" version="1.1" id="Calque_1" xmlns="http://www.w3.org/2000/svg" x="0px" y="0px"
	 viewBox="0 0 822 546.9" style="enable-background:new 0 0 822 546.9;" xml:space="preserve">
<style type="text/css">
	.st0{fill:#84B414;}
	.st1{fill:#FFFFFF;}
	.st2{fill:#E10078;}
</style>
<g>
	<polygon class="st0" points="399.2,6.4 398.2,6.1 399.2,6.1 399.2,6.4 	"/>
	<path class="st0" d="M400.9,5.9c0.3,0.6-0.9,0.4-1.5,0.4C399.8,6.3,400.3,5.6,400.9,5.9L400.9,5.9L400.9,5.9z"/>
	<path class="st0" d="M404.6,6.5c1.5-0.1,3.6,0,5.1-0.7c-0.1-0.6-0.9,0.1-1.2-0.2c1.5,0.2,4.5-1,5.5,0.4c0.7,0.3,1.3,0.2,1.5-0.1
		c0.5-1,1.9,0.8,2.1-0.8c-0.4-0.6-0.6-0.2-0.9-0.2c2.9-0.9,6.6,2.8,9.7,0.1l-0.1-0.6c2.1,0.1,4.2-0.4,6.1,0.1l-4.5,0.7
		c0.7,1.1,1.8-0.5,3.1,0.6c1.4-1,3.4,0.3,4.4-1.9l-0.5,1.6c2.4-0.5,5.5,0.4,6.9-1.2l-0.3,0c1.1,1.4,3.9-0.6,5.8,0.1l7,0
		c-0.3,0.3-0.2,1.2,0.7,1.1l1.2-0.4c-0.3-0.3-0.7-0.6-1-0.5c1.1-1,3.6,0.3,5.5,0.1c0.3,0.3-1.8,0.8-0.2,1.5l1.7-1.7l0.7,1.5
		c0.9-0.1,3-0.6,3.2-1.8c0.9-0.1-0.2,0.9,0.1,1.2c0.4,1.2,1.7-1.1,1.6,0.8c0.9-0.1,2.3-1.4,3.3-0.3c2.3-1.1,4.6,0.5,6.9-0.6
		c2.8,1.3,6-0.2,9.1,0.4c0.1,0.6-0.9,0.7-0.8,1.3l0.3,0.3c1.9-2.6,7.8-1,10.6-0.3c0.3-0.3-0.1-0.9,0.5-0.9c0.7,0.5,1.4,2,2.9,1.9
		l0.3-0.7c-0.1-0.6-0.7-0.6-1.3-0.5l-0.3,0l-0.3,0c0.5-1.2,1.5-0.1,2.4-0.2c-0.3,0.3,0.4,0.9,1,1.2c-0.1-0.6,0.5-1,0.2-1.5
		c3.1,0.9,7,0.3,9.2,1.6c0.9,0.2,1.9,0.8,3.1,0.3l-0.7-0.6c1.8-0.2,3.7,0,4.7,1.1c0.9-0.4,2-0.7,2.2,0.7c0.2-1.8,3.9-0.6,5.7-1.1
		c1.1,2,3.2,1.2,5.3,1.6c0.3-0.3-0.1-0.6-0.1-0.9l1.6,1.4c0.9-0.4,0.3-0.6-0.1-1.2c1.5-0.4,2.5,0.7,4,0.3c-1.1,0.7-2.5-0.7-3.3,0.6
		c-0.6,0.7,0.6,0.2,0.7,0.9c1.4-1.6,3.1,0.9,3.5-1.2c0.4,1.2,1.3,0.2,1.8,0.1c6.6,1.9,14.4,1.2,20.9,3l-0.5,0.7
		c1.9,0.7,4.5-0.4,4.7,1.7c1.5-0.5,1.6-2.9,3.8-1.3l1.5-0.4l-0.5,0.7c0.9,0.2,1.5,0.1,1.7-0.8l-0.3,0.3l1.6,0.5l-0.6,0.7l2.4-0.2
		l-1.4,1c1,4.2,5.9,1.9,7.8,2.9l0,0.3c1.2,0.2,2.1-0.2,3.6,0.3c-0.4-1.2-2.5-1.3-3.8-1.8l0.3,0l-0.7-0.8l-0.8,1l-5.2-0.4
		c0.9-0.4,2.1,0.1,2.7-0.8l-2.8-0.4c1.2-0.1,2.9-2.1,3.9-0.3c1.7-1.6,3.5,1.5,4.9,0.2c1.1,1.7,2.4,0.1,4,0.3c-0.8,1.6,1.1,2,2.3,1.9
		l-4.2,0.7c0.4,0.9,2.7-0.2,3.1,1.2l1.2-0.1c-2,0.8,0.2,2.7-0.6,3.7c1.1,2,1.9,0.2,3.4,0.9c2.2,1,4.7,1.1,7.1,1.5l-0.7-0.8
		c3-0.3,6.1,3.1,8.3,0.8c2.4-0.8,3.3,2.8,5.8,0.4c5.7,2.6,13.4,0.7,18.8,3.2l1.4-1c0.4,0.3,0.4,0.9,1,0.8c-0.6,0.4-1.5,0.7-2,1.7
		l1.2,0.8c-0.3,0.3-0.9-0.2-1.1,0.7c8.3,1.1,16.2,1.6,24.1,1.8l0.1,0.9c-16.1-0.7-32.4-2.6-48.2-3.1c-0.8,1.3-2.2-0.7-2.6,1.1
		c1.9,0.7,4.8-0.7,7,0.3l1,0.5c0.1-2.2,2.7-0.6,4-0.1c3.6-0.3,9.1-0.2,13.1,0.7c0.3,0.3,0.1,0.9,0.7,0.8l0.2-0.6
		c2.2,0.7,4.1,1.5,6.2,1l0.2-0.9c4.6,0.2,8.4,2,12.9,1.6c-2,1.1-5.8-0.4-8.5-0.1c-13.7-0.3-27.2-1.9-41.2-2.5
		c-1.7-1.4-4.2,0.1-6.4-0.6c-6.4-0.7-13.8-0.9-19.6-1.9c-2.9,1.2-6.7-0.9-10.4-1c-1.6-0.7-3.4,2.7-3.9,0.1c-0.9-0.2-2.8-1-3.6,0.3
		l-87.5-7.5c-48-3.7-103,2.1-150.1,15.6c-51.9,17-95.9,48.8-136.8,87.2c-5.8,6.6-12.5,13.5-19.6,19c-2.2,2.3-3.4,5.8-6.3,7.8
		l-0.6,0.1c10-20.9,30.8-39.7,46.3-56.9c5-5,11.7-8.6,15.5-14.1l-0.3,0c5.3-2.3,9.5-9.3,15-12.2c0.3,0.3,0.4,0.6,0.7,0.5
		c0.3-0.3,0.6-0.3,0.6-0.6l-0.3-0.3c3.1-2.7,7.8-5,11.2-7.7c4.8-4.7,10.7-5.5,15.2-10.1c3.8-1.6,6.6-4.5,11.1-5.2
		c0.5-1.6,2.2-2.3,3.7-2.8l0,0.3c8.9-5.1,19.2-9.9,28.8-14.1l0.9,0.5c1.9-3.2,6-1.4,8.4-4.4c2,1.3,5.1-0.8,7.2-1.6
		c-1.3-0.8-2.4,0.5-3.3,0.9c0.6-1,3.5-2.1,4.8-1.3c1.3-2.2,4.7-1.6,6.4-3c0.2-0.6,0.1,0.6,0.4,0.9c1.9-2.6,7.4-2.5,10.1-3l5-1.7
		c-0.7-0.8-3.3,0.9-5.1,1.1l13-3.6l0.6,0.6c0.5-1.3,3.8-1.9,5.3-2l-0.3,0.3c0.6,0.6,1.5,0.2,2.4,0.1l-1.6-0.8
		c2.1,0.1,4.4-1.3,6.4-0.3l0.6-0.6l-1.3-0.5l2.4-0.2l0.1,0.6l1.8-0.2l-0.1-0.9c2.9-1.5,3.1,0.9,6.3-1.2l-0.5,0.7
		c0.9-0.1,2.5,0.4,3-0.6l-2.1-0.1c0.6-0.7,1.8-0.5,2.7-0.5c-0.2,0.9,0.7,1.2,1.3,1.1c0.9-0.4,1.4-0.7,2.3-1.1
		c-0.4-1.2-0.9,0.1-1.5-0.2c1.6-2.6,1.8,2.6,2.9-0.9c0.4,0.6,0.5,1.5,1.4,1.4l0.2-0.6l-0.3-0.3l1.5-0.1c0,0-0.3,0.3,0,0.3
		c0,0.3,0,0.3,0.3,0.3l0.6-0.7L386,8.1l4.7-1.3l0.1,1.2l4.8-0.7l-1.9-0.8l3.6-0.3l-0.5,1c2.2,0.7,3.8-0.9,6.3-0.6l-0.4-0.9l1.8-0.2
		L404.6,6.5L404.6,6.5L404.6,6.5z"/>
	<path class="st0" d="M415.7,4.6c0.4,0.6-1.8,0.8-1.8,0.2L415.7,4.6L415.7,4.6L415.7,4.6z"/>
	<polygon class="st0" points="425.7,4.7 423.8,3.9 425.7,4.4 425.7,4.7 	"/>
	<path class="st0" d="M439.3,3.8l0,0.3l-1.3-0.5C438.4,3.5,439,3.5,439.3,3.8L439.3,3.8L439.3,3.8z"/>
	<polygon class="st0" points="370.7,10.7 370.7,10.7 369.9,11.4 369.8,11.1 370.7,10.7 	"/>
	<polygon class="st0" points="491.1,6.2 491.1,5.9 492.3,6.1 492.1,6.4 491.1,6.2 	"/>
	<path class="st0" d="M546.5,11.1c0,0.3-0.6,0.7-0.8,0.7C545.9,11.4,546.2,11.1,546.5,11.1L546.5,11.1L546.5,11.1z"/>
	<polygon class="st0" points="572.2,17.1 572.1,16.7 573.4,16.6 573.4,16.9 572.2,17.1 	"/>
	<path class="st0" d="M590.7,17.2l-0.3,0.6l0.2-1.5C590.6,16.3,591.3,16.9,590.7,17.2L590.7,17.2L590.7,17.2z"/>
	<polygon class="st0" points="593,16.1 593,15.8 593.9,16 594,16.3 593,16.1 	"/>
	<path class="st0" d="M595.5,16.2c0,0.3-0.6,0.1-1.2,0.1C594.6,16.3,595.1,15.6,595.5,16.2L595.5,16.2L595.5,16.2z"/>
	<path class="st0" d="M596.7,16.7c-0.8,0.7,0.1,1.2,0.4,1.8c-0.9-0.2-1.1,0.7-0.8,1.3c-0.7-0.5-2.2-0.4-1.8,0.2
		c0.3-0.3,0.2-1.2-0.1-1.5c-0.7-0.5-1.5-0.1-2.2-0.1c0.8-1-0.9-0.3-0.7-1.2C593.5,18.2,594.9,17.2,596.7,16.7L596.7,16.7L596.7,16.7
		z"/>
	<polygon class="st0" points="599.8,17.3 599.1,16.5 599.8,17 599.8,17.3 	"/>
	<path class="st0" d="M603,18.6c-0.5,1-3.7-0.3-2.6,2c1.6,0.8,2.1-0.4,3.3-0.9l-0.4-0.6c1.9,0.1,1.3-1.9,3-0.3l-0.8,1
		c0.3,0,0,0.3,0.1,0.6c-0.4-0.9-1.8-0.2-2.4,0.5c2.3,1.9,2.9-1.8,5-1.3c0.4-2.2,2.2,0.4,2.7-0.9l-0.3,0.3c0.7,1.1,1.8-0.5,2.7-0.5
		c-1.2,0.7,0.2,1.8,0.2,2.4c-3.3,0.6-5.4-2.9-7,0.3c2.3,1.6,0.8-1.3,3-0.9l-1.4,1.1l8,1.4l0.2-0.6l15.7,2.2l1.7-1.6
		c-1.9,2.3,1.3,1.4,2,2.3c4.8-1,10.4,1.2,15,1.1c3.3,0.3,7.9,0.5,11.6,0.5c8.6,1.4,17,3.7,26.6,2.5c-2.2-0.4-5.6,2-7.5,0.7
		c-2.7,0.2-7.6,0-10,0.2c-1.4-2-4.2,0.7-6.4-0.6c0.3,0-0.1-0.9,0.2-1c1.2-0.1,2.5,0.4,3.3,0c-1.6-0.8-4.4-2-5.7-0.1
		c-2.6,2-5.6-1.3-7.9,0.4l-1-0.8c-0.3,0.3-0.2,0.9-0.8,1c-1.2-3.5-5-1.4-7-0.9l0.3-0.3c-1.2,0.1-2.8-1-3.3,0.6l-0.6,0.1
		c-0.3-0.6,0.6-0.7,0.5-1.3c-0.7-0.6-1.2,0.1-2.1-0.1l0.7,1.1c-1-0.5-1-1.1-2.4-0.1l-0.6,0.1c0.2-0.6,0.8-1,0.5-1.9
		c-0.3,0.3-1.8-0.1-1.7,1.1l0,0.3l-1-1.1c-0.2,1.2-0.9,0.1-1.8,0.2c-2.1-0.4-4.4,1.3-6.4-0.4c1.2-0.4,2.2,0.7,3.4,0.3
		c-0.4-1.2-3.4-1.2-4.6-0.8c-1.1,1.6-2.8-1-4.9-0.8l-0.8,1.3l-1-0.9l0.6-0.6l0.4,0.5c1.7-1.6,4.6,0.3,6.3-0.6c-4.4-2-10,0-13.6,0.6
		l-0.4-1.2l-0.6,0.4c-0.7-1.1-3.1-0.6-4.5,0.4c0.2-0.9-2.8-0.6-3.8-1.5l-1.5,0.4c1-1.9,3.6-0.3,5.4-1.1l0.1,0.6l4.9,0.2
		c-6-2.5-14.4-1.5-21.5-3c1.7-1.1,5.3,1.4,7.5-1l-2.2-0.4l2.4-0.5l-0.7-1.5C599,18.9,601.7,18.1,603,18.6L603,18.6L603,18.6z"/>
	<path class="st0" d="M594.2,19.1c-0.6,0.1-1.7,1.1-1.8-0.1L594.2,19.1L594.2,19.1L594.2,19.1z"/>
	<path class="st0" d="M615.5,19.9c2.2,0.7,4.5-0.1,5.9,1c2.7-3.3,3.2,1.9,6.4,0.3c1.1-1.3,1.8-0.2,3.2-1.2c0.7,0.6,0.1,1.2-0.2,1.2
		c0.7,0.9,2.6-1.4,2.5,1c-1.2-0.2-2.5-0.4-4-0.3l1.3,0.8l-2.4,0.2l0.9-0.3c-0.3-0.6-0.7-1.2-1.6-0.8c-0.6,0.1-2,1.7-3.3,0.9l1.1-0.7
		c-0.7-1.5-2.8-0.4-4-1.2l0.1,0.6l1.6,0.8c-2.2-0.4-7.2,0.6-9.3-2.2l1.7-1.3L615.5,19.9L615.5,19.9L615.5,19.9z"/>
	<polygon class="st0" points="618.2,19.4 617.5,18.8 618.2,18.8 618.2,19.4 	"/>
	<path class="st0" d="M594.9,22.9c0.6-0.3,1.5,0.2,1.7-0.7l6.1,0.7c-0.6,0.4-1.4,1-2.3,1.4l-0.1-1.5c-2.7,0.8-2.5-0.7-4.2,1
		c-1.9-1-6,0.2-5.9-2.2C592,21.7,594.7,21.4,594.9,22.9L594.9,22.9L594.9,22.9z"/>
	<polygon class="st0" points="627.3,19.8 625.8,19.6 627.3,19.5 627.3,19.8 	"/>
	<path class="st0" d="M644.9,23.1l0,0.3c-1.1,1.3-2.8-0.6-4.5,0.4c-1.3-1.4-4-0.5-6.2-1.3l1.7-0.4l-0.1-0.9
		C639.1,21.8,641.9,23.1,644.9,23.1L644.9,23.1L644.9,23.1z"/>
	<path class="st0" d="M641.5,21.9l-1.2,0.1c0.3,0,0.5-0.9,1.2-0.7L641.5,21.9L641.5,21.9z"/>
	<path class="st0" d="M604.4,25.1l0.1,0.6l-0.7-0.8C604.1,24.9,604.1,25.1,604.4,25.1L604.4,25.1L604.4,25.1z"/>
	<path class="st0" d="M646.6,21.7c-0.7,1.6-3-0.3-3.6-0.3L646.6,21.7L646.6,21.7L646.6,21.7z"/>
	<path class="st0" d="M611.7,24.5c0.1,0.6-0.5,1-0.8,0.7C610.5,24.9,611.4,24.5,611.7,24.5L611.7,24.5L611.7,24.5z"/>
	<path class="st0" d="M648.9,23.7l-3.1-0.1l-0.1-0.6C647,22.6,648,23.5,648.9,23.7L648.9,23.7L648.9,23.7z"/>
	<polygon class="st0" points="624,26.4 623,26.2 623.9,26.2 624,26.4 	"/>
	<path class="st0" d="M646,24.8l-1.2,0.1c0.3-0.6,0.5-0.6,1.2-0.7L646,24.8L646,24.8z"/>
	<path class="st0" d="M651.4,23.8c-0.3,0.3-1.8,0.7-1.2,0.1L651.4,23.8L651.4,23.8L651.4,23.8z"/>
	<polygon class="st0" points="660.1,23.3 660.4,23 662.3,23.7 660.1,23.3 	"/>
	<path class="st0" d="M669.4,25.5c-0.5,1-1.9-0.7-2.3,0.8l1,0.5c-0.9,0.3-3-3.4-3.7-0.3l-0.9-0.2l0.3,0c-2.9-1.9-8.1-2-11.9-1.1
		c1.9-2.6,5.4-1.1,8.1-0.7C663.2,24.2,666.3,24.9,669.4,25.5L669.4,25.5L669.4,25.5z"/>
	<polygon class="st0" points="656.1,25.8 655.2,25.5 656.1,25.5 656.1,25.8 	"/>
	<path class="st0" d="M669.9,24.3c-0.3,0.3,0,0.3,0,0.3l-0.6-0.3L669.9,24.3L669.9,24.3L669.9,24.3z"/>
	<path class="st0" d="M672.7,24.3c-0.3,0.3-0.6,0.6-0.2,1.2c0.4,0.9,0.9-0.7,0.9,0.2c-0.9,0.7-3.1-0.3-3.9,1
		C669.4,25.5,671.8,24.7,672.7,24.3L672.7,24.3L672.7,24.3z"/>
	<path class="st0" d="M675.4,24.4c-0.3,0.6-1.5,0.7-1.8,0.4C673.8,23.9,674.7,24.1,675.4,24.4L675.4,24.4L675.4,24.4z"/>
	<path class="st0" d="M676.1,25.8c-0.2,0.9-1.2,0.1-2.1,0.5l0.2-0.6C674.9,25.9,675.5,25.3,676.1,25.8L676.1,25.8L676.1,25.8z"/>
	<path class="st0" d="M679.1,25.6c-0.9,0.7-1.2,0.1-2.1,0.5l-0.1-0.6C677.6,25.7,678.5,25.3,679.1,25.6L679.1,25.6L679.1,25.6z"/>
	<path class="st0" d="M662.6,31.3L637.7,31l1.2-0.1l-3.5-1.5l0.3-0.3C644.6,30.4,654.1,30.5,662.6,31.3L662.6,31.3L662.6,31.3z"/>
	<path class="st0" d="M681.6,25.7l-1.5-0.2C680.3,25.2,681.2,24.8,681.6,25.7L681.6,25.7L681.6,25.7z"/>
	<polygon class="st0" points="648.8,28.8 649.3,28.2 650.9,28.4 648.8,28.8 	"/>
	<polygon class="st0" points="679.5,26.8 680.4,26.1 681.1,26.6 679.5,26.8 	"/>
	<path class="st0" d="M687.7,26c-1,2.8-4,0-5.7,0.5C683.7,25.5,686.3,28.3,687.7,26L687.7,26L687.7,26z"/>
	<path class="st0" d="M676.7,28.6c-0.6,0.3-0.4-0.9-0.4-1.5C677.2,27.3,676.6,28.2,676.7,28.6L676.7,28.6L676.7,28.6z"/>
	<polygon class="st0" points="678.1,28.1 678.1,27.5 679.6,27.7 678.1,28.1 	"/>
	<path class="st0" d="M690.8,27.3l-2.4-0.1C688.9,26.2,690.1,26.1,690.8,27.3L690.8,27.3L690.8,27.3z"/>
	<polygon class="st0" points="681.2,28.2 682.1,27.7 683.6,27.6 681.2,28.2 	"/>
	<polygon class="st0" points="638.8,32.4 638.7,31.9 640.2,31.7 638.8,32.4 	"/>
	<polygon class="st0" points="645.1,32.2 645.1,31.6 646.6,31.8 645.1,32.2 	"/>
	<path class="st0" d="M687.9,28.5c-0.3,0.6-1.5,0.4-1.9-0.2C686.6,28.2,687.5,27.9,687.9,28.5L687.9,28.5L687.9,28.5z"/>
	<polygon class="st0" points="690,28.9 689.1,28.4 690,28.3 690,28.9 	"/>
	<path class="st0" d="M652.2,33.1l-3.1-0.3C649.9,30.9,651,33.2,652.2,33.1L652.2,33.1L652.2,33.1z"/>
	<path class="st0" d="M666.3,31.3c-0.3,0-1.4,1.6-1.8,0.2C665,30.7,665.7,31.3,666.3,31.3L666.3,31.3L666.3,31.3z"/>
	<path class="st0" d="M659.2,33.4l-1.2,0.1l0.2-0.9C658.2,32.9,659.1,32.8,659.2,33.4L659.2,33.4L659.2,33.4z"/>
	<path class="st0" d="M637.5,34.7c-0.9,0.7-1.8,0.8-2.7,0.5C635.6,34.6,636.5,34.8,637.5,34.7L637.5,34.7L637.5,34.7z"/>
	<path class="st0" d="M691.4,30.9l-7.3,0.1c1.7-2,4.9,0.8,7.2-0.6L691.4,30.9L691.4,30.9z"/>
	<path class="st0" d="M663.2,33.7l-1.2,0.1l0.3-0.3l-1.3-0.8C661.8,32.6,663.1,32.8,663.2,33.7L663.2,33.7L663.2,33.7z"/>
	<path class="st0" d="M661.4,34.7c-0.3,0-1.3-0.5-1.5,0.4l7.4,1.5c-3,0.3-7.3-0.6-9.6-1.9L661.4,34.7L661.4,34.7L661.4,34.7z"/>
	<path class="st0" d="M670.7,37l-2.4,0.2l-0.1-0.6C668.9,36.8,670,36.4,670.7,37L670.7,37L670.7,37z"/>
	<path class="st0" d="M684.9,39.9l-6.7,0l-0.1-0.6C681.2,39.4,682.2,39.9,684.9,39.9L684.9,39.9L684.9,39.9z"/>
	<path class="st0" d="M710.1,40.2c-0.6,4,4.6,6.9,0.3,10.6c-3.5,1.8-4.4,5.5-7.9,7.1c0.2,2.1-1.6,2.9-3.3,3.3l-7.4-1.2
		c-3.3,3.6-6.9,7-10.3,10.3l0.4,0.6l-1.8,0.5c1.3,1.4-1.6,2.6-2.1,3.8c-2.1-0.1-0.4,2.5-2.5,2.6c0.3,0.3,0.6,0.2,1.2,0.2
		c-0.9,0.4-1.6,2-2.4,0.8c-1.4,1.1-0.3,3.4-3.1,2.4l0.1,0.6c-0.6-0.5-1.8,0.2-1.4,1c-0.2,0.6,0.7,0.6,0.7,0.9
		c0.3-0.6,1.5-0.7,2.1-0.8l-3.2,4.5l-0.4-1.2c-1-0.5-2,1.1-1.7,1.7c0.6,0.2,1.2-0.1,1.8-0.2l-1.9,2.3c-0.4-0.9-1.2-0.2-1.5,0.1
		l0.7,0.8l-3,0.6c2,1.3-0.6,3.4-1.8,3.8c-0.6,0.3-0.9,1-1.1,1.3l0.7,0.6l-0.3,0l0.1,0.6c-1.5,0.1-3.3,0.6-4.3,2.5l1.5,0.1l-1.8,0.8
		l1,0.5c-0.6,0.1-0.9,0.7-0.8,1.3c-0.6,0.1-2.4,0.5-3.3,1.2c0,0.3,0.4,0.6,0.4,0.9l-0.6,0.7c-0.4-0.9-1.3-0.5-1.9-0.4l1.3,1.4
		c-0.9,3.4-4.3-0.5-5.6,2.3c0.7,1.2,2.7-0.8,2.6,1.3c-1.2,0.4-1.3,2.5-2.9,1.7c-1-1.4-3.4,2.8-5.1-0.1c-0.9,0.1-2.6,1.7-1.1,1.9
		c-0.7-1.2-2,0.8-2.9,1.2l0.7,1.1l-2.6,2.1c1.9,0.5,2.3-1.4,3.5-2.1l-0.1-1.5c0.8,1.7,1.8-0.5,2.4-0.8c2.5,0.4,5-1.3,7.5-1.2
		l-0.9,0.4l0.7,0.5c-1.1,1.6-3.9-0.2-5,1.4c0.4,0.2,0.6,0.5,0.7,0.8c-0.6,0.1-1.8-0.5-2.2-1.3l-1.9,2l1.2,0.2l-1.4,0.7
		c0.4,0.9,1.8-0.2,2.7-0.2l0,0.3l2.1,0.1c-2.6,1.4-4,3.4-6.9,4.2l0.1-2.2c-1.5-0.2-1.6,2.6-3.2,2.1c-1.1,1-3.3,3.3-5.3,2.3
		c0.6-0.4,1.8-0.2,1.4-1.1c-1-0.8-1.8,0.5-2.9,0.9l0.1,0.6c-1.7-1.9-2.6,1.5-3.7,2.2c1.2,0.5,2.3-1.1,3.9-0.9l-2.8,2.7
		c0.5-0.6-0.7-1.4-1.6-1.4c-1.2,0.1-2.1,0.8-2.7-0.1l-3.2,2.1c1.3,1.4,2.1-0.8,3.6-0.3l-0.8,0.7l0.3,0.9l-0.6,0.4L620,130
		c-1.2,0.7-2.6,1.4-3.8,2.5l1.4,1.1c-2.8-0.7-5.2,2.6-7.6,4l-0.3-0.3c-0.9,3.4-4.6,2.5-5.8,5.7c-1.9-0.5-2.5,2.3-4.9,2.5
		c-3.5,4.9-10.3,4.3-13.5,9.4c0.3,0,0.4,0.6,0.1,0.6c-3.4-0.3-5.7,4.4-9.6,5.1c0.7-2.5,4.1-2.2,5.1-4.1c2.6-1.7,6.3-4.5,9.1-6.9
		c0.6-0.1,1.2-0.7,1.7-1.4c-0.4-1.2-1.8-0.1-2.4,0.5l0.5-1.2c10-7.6,18.7-18.7,28.4-26.2l1.4-1.9c-4.7,1.6-7.6,7.1-12.3,8.7
		c2.8-3,6.3-4.8,7.1-8.5l0.6,0.2l25.6-29.5l0.4,0.9l1.6-2.6l0.7,0.6c-0.5-2.1,1.7-1.4,2.5-3.2c4.8-7.4,11.5-14.1,16-21.1l0.6-0.1
		c0,0.3-0.3,0.3-0.5,0.7c3-0.3,4-5.8,7.4-5.5c3-3.3,6.1-6.6,9.6-8.7l-1.3-0.8c0.2-1.5,1.8-0.5,2.3-1.1l-0.4-1.2
		c8.7-1.1,14.4-8.9,23.9-8.2C705.3,37.2,708,40.1,710.1,40.2L710.1,40.2L710.1,40.2z"/>
	<path class="st0" d="M639.7,118.8c-0.3,0-1.1,1-1.2,0.1L639.7,118.8L639.7,118.8L639.7,118.8z"/>
	<path class="st0" d="M632.2,127.4l0.3,0.3l-3.5,2.1l-0.7-0.9c-1.4,1.3-3.2,1.2-4.6,2.6c0.4,0.5,0.9,0.2,1.2,0.2
		c-2.7,1.1-4,2.8-6.7,3.9l2.1,0.1l-3.9,1c0.1,1.2-2.7,0.2-1.3,1.9c1.5,0.2,3.2-1.2,4.7-1.3c-4.7,1.6-9.3,4.1-13.6,7.3l1,0.8
		c-1.1,1-1.8-0.2-3.3,0.6c0.7,1.5-1.8,0.8-2.3,2c-1.1,0.7-2.2,2.3-4.1,1.6c4.7-1.3,7-6.7,12-8.1l8.2-7.1l-0.2,0.7
		c2.4-0.5,4.2-3.4,5.9-5.1l0.4,0.6l5-5c2.2,1,3.2-0.9,5-1.4c-0.2-1.8,1.8-0.2,2.3-1.4C637.8,125.1,633.5,125.2,632.2,127.4
		L632.2,127.4L632.2,127.4z"/>
	<polygon class="st0" points="628.9,128 632.1,125.9 632.7,125.8 628.9,128 	"/>
	<path class="st0" d="M623.4,127.9c0.8,1.7-1.2,0.7-1.7,2l-0.4-0.6C622.7,129.4,622.3,128.3,623.4,127.9L623.4,127.9L623.4,127.9z"
		/>
	<polygon class="st0" points="630.7,127.8 630.7,127.5 631.3,127.5 631.3,127.8 630.7,127.8 	"/>
	<polygon class="st0" points="622.2,131 621.3,130.5 622.1,130.4 622.2,131 	"/>
	<path class="st0" d="M626.2,132.2c0.1,0.6-1.3,1.9-2.5,2.4C623.6,133,625.1,132.3,626.2,132.2L626.2,132.2L626.2,132.2z"/>
	<polygon class="st0" points="614.1,135.6 613.5,135.4 614.1,135.4 614.1,135.6 	"/>
	<path class="st0" d="M623.4,134.6c-0.5,0.9-1.4,1.6-2.3,1.7C621.1,135.4,622.5,134.9,623.4,134.6L623.4,134.6L623.4,134.6z"/>
	<path class="st0" d="M616.7,140.6l-0.3,0c-0.6-0.6,0.9-0.7,1.1-1.6C617.8,139.6,617.2,140.3,616.7,140.6L616.7,140.6L616.7,140.6z"
		/>
	<path class="st0" d="M615.8,141.3c-4.1,2.2-6.8,5.8-11.5,7.7C608.7,147.1,611.1,142.6,615.8,141.3L615.8,141.3L615.8,141.3z"/>
	<polygon class="st0" points="603.2,150 602.9,149.7 603.2,149.7 603.2,150 	"/>
	<path class="st0" d="M596.4,151.8l0.7,0.5c-0.8,1-3,0.3-3.5,1.8c-0.5-2.7,2.5-2.4,4.2-4L596.4,151.8L596.4,151.8z"/>
	<path class="st0" d="M596.9,154.2l4.6-3.4C601.7,152.8,598.4,153.4,596.9,154.2L596.9,154.2L596.9,154.2z"/>
	<polygon class="st0" points="588.3,153.4 588.9,152.4 589.5,152.4 588.3,153.4 	"/>
	<path class="st0" d="M589.6,157.2c-2.6,0.5-4.1,4.6-6.6,3.6l-0.1-0.9l0.6-0.1l-0.3,0.4c0.6,0.2,2.1-0.2,1.7-1.1
		c0.9,0.5,2.3-1.4,2.9-1.8l-0.6,0.1c0.2-0.9,1.8-0.8,2.3-1.1l3.1-2.7C593.4,156,589.3,154.5,589.6,157.2L589.6,157.2L589.6,157.2z"
		/>
	<path class="st0" d="M596.4,155.1L596.4,155.1l-0.7-0.5C596.1,154.5,596.4,154.8,596.4,155.1L596.4,155.1L596.4,155.1z"/>
	<path class="st0" d="M595.5,155.8c0.4,0.5-0.6,0.3-1.2,0.4l0.8-1L595.5,155.8L595.5,155.8L595.5,155.8z"/>
	<path class="st0" d="M593.8,156.9c0,0.3-0.2,0.6-0.2,0.6l-0.1-0.6L593.8,156.9L593.8,156.9L593.8,156.9z"/>
	<path class="st0" d="M592.7,157.6l-0.3,0.6l-0.4-0.6C592.1,157.6,592.6,157.3,592.7,157.6L592.7,157.6L592.7,157.6z"/>
	<polygon class="st0" points="574.8,162.2 575,160.9 576,160.9 574.8,162.2 	"/>
	<path class="st0" d="M583,161.7l0.1,0.6c-1.9-0.7-3.8,2.2-5.3,2.6l1.4-1.9c0-0.3-0.6,0.1-0.3-0.3l1.8-0.2l-1-0.5l0.3,0
		C580.5,163.8,582,160.6,583,161.7L583,161.7L583,161.7z"/>
	<polygon class="st0" points="577.7,163.7 578,163.1 578.3,163.1 577.7,163.7 	"/>
	<polygon class="st0" points="574.6,166.8 577.3,165.3 574.7,167.3 574.6,166.8 	"/>
	<path class="st0" d="M573.9,168.3c-0.6,0.1-1.2,0.4-1.8,0.4l1.4-1.6C573.8,167.4,573.8,168,573.9,168.3L573.9,168.3L573.9,168.3z"
		/>
	<path class="st0" d="M571.5,168.5l-0.6,0.1l0.3-0.6C571.7,167.6,571.4,168.2,571.5,168.5L571.5,168.5L571.5,168.5z"/>
	<path class="st0" d="M569.5,169.9l-0.6,0.1l0.3-0.9C569.4,169,569.4,169.6,569.5,169.9L569.5,169.9L569.5,169.9z"/>
	<polygon class="st0" points="411.3,68.4 411.6,68.1 412.5,68.3 411.3,68.4 	"/>
	<path class="st0" d="M390.5,73.9c-0.6,0.6-3-0.3-4.3-1.1l-0.4-0.9C387.3,71.7,389.2,72.5,390.5,73.9L390.5,73.9L390.5,73.9z"/>
	<polygon class="st0" points="415.7,70.2 416,69.9 419.4,71.4 419.1,71.7 415.7,70.2 	"/>
	<path class="st0" d="M595.8,61.4c0.1,0.6-1.2,0.4-1.5,0.4C593.6,61.3,595.1,60.8,595.8,61.4L595.8,61.4L595.8,61.4z"/>
	<path class="st0" d="M584.4,63.6c0,0.3-0.3,0.3-0.6,0.7l-0.3-0.3l0.2-0.9l2.2,0.4L584.4,63.6L584.4,63.6L584.4,63.6z"/>
	<path class="st0" d="M581.7,63.8l-0.3,0.3l-0.6-0.5C581.4,63.3,581.4,63.6,581.7,63.8L581.7,63.8L581.7,63.8z"/>
	<polygon class="st0" points="587.4,63.3 586.2,63.1 587.1,63.1 587.4,63.3 	"/>
	<polygon class="st0" points="578.4,64.1 578.4,63.8 579.9,64 579.9,64.3 578.4,64.1 	"/>
	<path class="st0" d="M575.4,64.7c0.1,0.9-1.4,1.1-2.4,1.1C573.6,64.8,574.5,64.5,575.4,64.7L575.4,64.7L575.4,64.7z"/>
	<path class="st0" d="M572.5,65.6c-0.2,0.9-1.2,0.1-1.5-0.2C571.5,65.3,572.1,65.3,572.5,65.6L572.5,65.6L572.5,65.6z"/>
	<path class="st0" d="M556.9,67.8l-0.9,0.1c-0.3-0.6,0.3-0.6,0.9-0.7L556.9,67.8L556.9,67.8z"/>
	<path class="st0" d="M566.8,66.6l0,0.3l-1.2-0.5C566.2,66.4,566.5,67,566.8,66.6L566.8,66.6L566.8,66.6z"/>
	<path class="st0" d="M555.4,68l-3.2,1.2C552.7,68.5,554.1,67.2,555.4,68L555.4,68L555.4,68z"/>
	<path class="st0" d="M562.6,67.3c0,0,0,0.3-0.3,0.3l-0.3,0l-0.1-0.6C562.3,67,562.6,67,562.6,67.3L562.6,67.3L562.6,67.3z"/>
	<polygon class="st0" points="565.3,67.1 563.8,66.9 565,66.8 565.3,67.1 	"/>
	<path class="st0" d="M549.8,69.7l-0.9,0.1c0-0.3,0.2-0.9,0.8-0.7L549.8,69.7L549.8,69.7z"/>
	<path class="st0" d="M549.3,70.9c-0.5-1.8-2.4-0.1-4-0.6C545.5,70,549.4,68.8,549.3,70.9L549.3,70.9L549.3,70.9z"/>
	<path class="st0" d="M557.9,68.7c-1.3,2-4.8,1-6.8,1.8C552.1,68.6,555.9,69.8,557.9,68.7L557.9,68.7L557.9,68.7z"/>
	<polygon class="st0" points="535.2,72.5 542,70.6 544.4,70.4 535.2,72.5 	"/>
	<polygon class="st0" points="533.7,73.2 533.6,72.3 534.5,72.2 533.7,73.2 	"/>
	<path class="st0" d="M545.1,71.6c-0.3,0.3-2,1.4-3,0.6c-3.7,2.8-9,1.4-13,3.6C533.7,73.2,539.4,72.7,545.1,71.6L545.1,71.6
		L545.1,71.6z"/>
	<polygon class="st0" points="526.8,74.4 529.8,73.5 531.6,73.4 526.8,74.4 	"/>
	<path class="st0" d="M515.7,75.7c0.1,0.6-1.7,0.8-1.5,0.1L515.7,75.7L515.7,75.7L515.7,75.7z"/>
	<path class="st0" d="M527.8,75.2c-0.5,0.7-1.7,0.8-2.3,1.1l-0.1-0.9C526,75.4,527.2,75.3,527.8,75.2L527.8,75.2L527.8,75.2z"/>
	<path class="st0" d="M524.3,76.5l-5,1.7C520.1,77.7,522.1,75.7,524.3,76.5L524.3,76.5L524.3,76.5z"/>
	<path class="st0" d="M546.7,75.7c0,0.6-0.2,0.6-0.5,1l-0.4-0.9L546.7,75.7L546.7,75.7L546.7,75.7z"/>
	<path class="st0" d="M538,77c-0.6,0.1-1.1,0.7-2.1,0.5C536.1,76.6,537.4,76.9,538,77L538,77L538,77z"/>
	<path class="st0" d="M541.6,77.1c0,0.3-1.5,0.7-2.4,0.8C539.8,77.2,540.7,76.8,541.6,77.1L541.6,77.1L541.6,77.1z"/>
	<path class="st0" d="M543.4,76.9c0,0.3-0.6,0.3-1.2,0.4C542.2,76.4,543.1,76.9,543.4,76.9L543.4,76.9L543.4,76.9z"/>
	<path class="st0" d="M546.8,77.2c-1.2,0.1-2.4,0.8-3.6,0.6C544.1,77.1,545.6,77.3,546.8,77.2L546.8,77.2L546.8,77.2z"/>
	<path class="st0" d="M525.8,80c-0.6,0.7-2.1,0.8-2.9,1.2C523.1,79.9,524.9,80.4,525.8,80L525.8,80L525.8,80z"/>
	<path class="st0" d="M488.6,84.7c-5.4,3.5-12.7,3.6-18.9,5.9C474.8,87.1,482.4,87.4,488.6,84.7L488.6,84.7L488.6,84.7z"/>
	<polygon class="st0" points="500.4,84.9 498.9,84.5 500.1,84.9 500.4,84.9 	"/>
	<path class="st0" d="M466.1,91.5c-0.5,1-1.5,0.7-2.1,0.8l1.4-1.6L466.1,91.5L466.1,91.5L466.1,91.5z"/>
	<path class="st0" d="M454.9,94.7c1.7-1.7,5.6-2,8-2.5L454.9,94.7L454.9,94.7L454.9,94.7z"/>
	<path class="st0" d="M452.4,94.9c0.1,0.9-1.2,0.7-1.8,0.8C450.9,95,451.8,94.9,452.4,94.9L452.4,94.9L452.4,94.9z"/>
	<polygon class="st0" points="421.2,101.9 421.4,101.2 422.7,101.4 421.2,101.9 	"/>
	<polygon class="st0" points="423.4,102.9 423.3,102.3 424.6,102.2 423.4,102.9 	"/>
	<polygon class="st0" points="415.9,103.6 415.8,102.9 417,103.1 415.9,103.6 	"/>
	<path class="st0" d="M422.8,102.9l-0.9,0.3l-0.3-0.6C422.2,102.7,422.4,102.4,422.8,102.9L422.8,102.9L422.8,102.9z"/>
	<path class="st0" d="M421,103.4l-2.3,0.8C419.3,104.2,419.8,102.9,421,103.4L421,103.4L421,103.4z"/>
	<path class="st0" d="M416.3,105.3l0.9-0.1c-0.5,0.7-1.4,1.3-2.6,1.1L416.3,105.3c-0.3-0.3-0.6,0.1-0.6,0.1c0.2-0.9,1.8-0.5,2.3-1.4
		L416.3,105.3L416.3,105.3z"/>
	<path class="st0" d="M412.7,105c0.3,0.3,0.3,0.6,0.4,1.2l1.2,0.2c-1.6,2.2-3.1-0.9-4.1,1.6c-0.1-0.9-0.5-2.1,0.7-2.5l-4.5,1
		c1.4-1.3,3.5-1.5,5.1-0.7C411.4,104.8,412.4,105.4,412.7,105L412.7,105L412.7,105z"/>
	<path class="st0" d="M425,103.7c0.4,0.9-0.6,0.6-0.8,1l-0.1-0.9L425,103.7L425,103.7L425,103.7z"/>
	<path class="st0" d="M252.5,119.7l-2.4,0.2l-0.1-0.6C250.9,118.9,251.6,119.4,252.5,119.7L252.5,119.7L252.5,119.7z"/>
	<path class="st0" d="M418,106.7c0.8-1,3.5-2.1,5.6-2L418,106.7L418,106.7L418,106.7z"/>
	<polygon class="st0" points="403.4,107.1 404.3,106.7 405.2,106.6 403.4,107.1 	"/>
	<path class="st0" d="M407.5,107.9l0.1,1.5l5.6-1.7c-2.3,1.1-5.3,2.3-7.9,3.4l2-1.7c-0.3-0.3-0.6,0.1-0.9-0.3c0,0,0.8-0.7,0.8-1
		l-5.9,2C403.3,109.5,405.4,105.7,407.5,107.9L407.5,107.9L407.5,107.9z"/>
	<path class="st0" d="M403.5,108c-0.2,0.9-2.7,0.9-3.8,1.5C400.4,107,402.7,109.2,403.5,108L403.5,108L403.5,108z"/>
	<polygon class="st0" points="399,108.4 399.3,108.6 398.8,109.3 398.8,109 399,108.4 	"/>
	<path class="st0" d="M411.1,111.2c3.5-1.5,7.9-3.4,12.1-3.8L411.1,111.2L411.1,111.2L411.1,111.2z"/>
	<polygon class="st0" points="415.1,111.5 427.4,107.4 428,107.3 415.1,111.5 	"/>
	<polygon class="st0" points="395.8,110.1 396.1,110.5 395.3,110.8 395,110.8 395.8,110.1 	"/>
	<polygon class="st0" points="390.8,111.5 391.3,111.1 390.8,111.5 	"/>
	<path class="st0" d="M385.5,113.8l-0.3,0l1.4-1.3C387,113.4,386.1,113.7,385.5,113.8L385.5,113.8L385.5,113.8z"/>
	<path class="st0" d="M273.2,123.9l-2.8-1C271.6,122.8,272.8,123,273.2,123.9L273.2,123.9L273.2,123.9z"/>
	<polygon class="st0" points="428,110.7 431,109.5 429.8,110.2 428,110.7 	"/>
	<polygon class="st0" points="274.7,123.8 273.7,123.3 274.6,123.2 274.7,123.8 	"/>
	<polygon class="st0" points="404,113.4 404.3,113.3 403.4,114 403.1,114 404,113.4 	"/>
	<path class="st0" d="M433.5,110.8c-0.8,0.7-1.4,1.4-2.6,1.2C431.4,111.6,432.6,110.9,433.5,110.8L433.5,110.8L433.5,110.8z"/>
	<polygon class="st0" points="409.8,113.8 410,113.4 410.4,113.4 409.8,113.8 	"/>
	<path class="st0" d="M430.2,111.7c-3.4,2.4-9.2,2.9-13.5,4.9l0.1,0.6c-3.6,0.9-8.9,2.6-10.9,3.1
		C413.4,117.4,421.9,113.6,430.2,111.7L430.2,111.7L430.2,111.7z"/>
	<path class="st0" d="M389.2,117.4l-0.9,0.1C388.2,116.9,388.8,117.1,389.2,117.4L389.2,117.4L389.2,117.4z"/>
	<polygon class="st0" points="400.6,119.8 408.5,116 409.4,116.5 400.6,119.8 	"/>
	<path class="st0" d="M418.9,117.5c-1.5,0.4-0.7,1.9-2.9,1.8C416.5,117.8,417.8,118.2,418.9,117.5L418.9,117.5L418.9,117.5z"/>
	<path class="st0" d="M408.7,122.4l0.2-0.9l-1.2-0.2c2.4-0.8,4.8-0.7,7.2-1.8L408.7,122.4L408.7,122.4z"/>
	<polygon class="st0" points="305,129.9 303.7,129.4 304.6,129.4 305,129.9 	"/>
	<polygon class="st0" points="361.7,125.9 362,125.8 362,125.6 361.7,125.6 361.7,125.9 	"/>
	<path class="st0" d="M408.4,122.1c-0.3,0.3-1.2,0.4-1.7,0.7C406.9,122.3,407.5,121.9,408.4,122.1L408.4,122.1L408.4,122.1z"/>
	<polygon class="st0" points="393.2,125.8 393.2,125.6 395,125.7 393.2,125.8 	"/>
	<path class="st0" d="M388,128.4c0.5-1.2,2.4-0.5,2.9-2.1l0.7,0.6L388,128.4L388,128.4L388,128.4z"/>
	<path class="st0" d="M300.9,145.8c6.7-3,10.8-5.8,17.5-7.9C313.5,140.7,307.1,143.7,300.9,145.8L300.9,145.8L300.9,145.8z"/>
	<path class="st0" d="M271.2,156.9c-0.6,0.6-1.8,0.7-2.3,1.1C269.1,157.4,270.4,157.2,271.2,156.9L271.2,156.9L271.2,156.9z"/>
	<path class="st0" d="M268,158.1c-0.6,0.3-1.1,1.3-1.7,1.1C266.2,158.8,267.3,157.8,268,158.1L268,158.1L268,158.1z"/>
	<path class="st0" d="M321,157.4c-1.3-0.8-1.2,0.4-2.1,0.2c-1.1,1.3-3.1,2.4-5.9,2.6c-0.6,0.1-1.5-0.2-1.3-1.1
		c3.3-0.9,5.8-2.6,9.4-4.1C322.4,155.1,321,156.8,321,157.4L321,157.4L321,157.4z"/>
	<polygon class="st0" points="285.4,159.3 285.4,159.6 284.8,159.9 284.5,159.6 285.4,159.3 	"/>
	<path class="st0" d="M249.6,166.6l-0.3,0l0.8-1.3C250.2,165.7,250.5,166.5,249.6,166.6L249.6,166.6L249.6,166.6z"/>
	<polygon class="st0" points="247,167.8 247.6,167.1 247.8,167.1 247,167.8 	"/>
	<path class="st0" d="M246.4,167.5c0.4,0.6-0.6,0.6-0.8,1C245.5,167.9,245.7,167.6,246.4,167.5L246.4,167.5L246.4,167.5z"/>
	<path class="st0" d="M243.5,169.3c0,0.3-1.2,0.4-0.9-0.2C242.9,169,243.4,168.7,243.5,169.3L243.5,169.3L243.5,169.3z"/>
	<path class="st0" d="M240.9,170.4c0.1,0.6-0.6,0.4-1.2,0.4C239.6,170.3,240.6,170.5,240.9,170.4L240.9,170.4L240.9,170.4z"/>
	<polygon class="st0" points="238.2,171.6 238.2,171.6 234.7,173.4 238.2,171.6 	"/>
	<path class="st0" d="M298.5,166.9c-0.3,0-0.6,0.6-0.9,0.4l-0.1-0.6C297.9,166.7,298.2,166.3,298.5,166.9L298.5,166.9L298.5,166.9z"
		/>
	<polygon class="st0" points="295.6,168.7 295.3,167.8 296.1,167.7 295.6,168.7 	"/>
	<path class="st0" d="M232.4,174.2c0.6,0.6-0.6,0.3-1.2,0.7C230.9,174.4,232.1,174.2,232.4,174.2L232.4,174.2L232.4,174.2z"/>
	<path class="st0" d="M229.8,175.7c0,0.3-0.3,0.3-0.6,0.3l0.5-0.9C230,175,230.1,175.7,229.8,175.7L229.8,175.7L229.8,175.7z"/>
	<path class="st0" d="M228.3,176.1c0.1,0.6-1.7,1.1-1.5-0.1L228.3,176.1L228.3,176.1L228.3,176.1z"/>
	<polygon class="st0" points="225.7,177.2 224.4,176.7 225.3,176.6 225.7,177.2 	"/>
	<polygon class="st0" points="226.3,177.2 225.9,176.9 226.8,176.8 226.3,177.2 	"/>
	<path class="st0" d="M220.4,179.5c0.1,0.6-0.9,1-1.8,0.8C218.9,180,219.8,179.9,220.4,179.5L220.4,179.5L220.4,179.5z"/>
	<path class="st0" d="M215.5,182.1c0.6,0.3-0.3,0.3-0.3,0.6l-0.4-0.6L215.5,182.1L215.5,182.1L215.5,182.1z"/>
	<polygon class="st0" points="211.1,184 211,183.4 212.6,183.6 211.1,184 	"/>
	<path class="st0" d="M205.8,186.2c0.3,0.6-0.3,0.3-0.5,1C204.7,187,205.5,186,205.8,186.2L205.8,186.2L205.8,186.2z"/>
	<path class="st0" d="M202.7,188.7l-0.6,0.1l0.3-0.6C202.7,188.4,202.7,188.7,202.7,188.7L202.7,188.7L202.7,188.7z"/>
	<polygon class="st0" points="200.4,189.8 200.3,188.9 200.9,188.8 200.4,189.8 	"/>
	<polygon class="st0" points="196,191.7 194.7,190.9 195.3,191.1 196,191.7 	"/>
	<path class="st0" d="M192.5,193.5l-0.9,0.1l0.2-0.9C192.1,192.6,192.2,193.2,192.5,193.5L192.5,193.5L192.5,193.5z"/>
	<path class="st0" d="M464.2,174.3l-0.2-2.4C464.4,172.1,464.5,173.3,464.2,174.3L464.2,174.3L464.2,174.3z"/>
	<path class="st0" d="M174.8,202.3l-0.6,0.1c0-0.3,0.3-0.6,0.6-0.4L174.8,202.3L174.8,202.3z"/>
	<path class="st0" d="M411.2,195.6l0.1,0.6l-1-1.1C410.8,194.7,411.2,195.3,411.2,195.6L411.2,195.6L411.2,195.6z"/>
	<path class="st0" d="M421.3,200.5l0.1,0.6c-0.3-0.2-1.5,0.1-1-0.8C420.7,200.2,421,200.2,421.3,200.5L421.3,200.5L421.3,200.5z"/>
	<path class="st0" d="M314.3,212.6l-2.6-1.6C312.7,211.5,313.9,211.4,314.3,212.6L314.3,212.6L314.3,212.6z"/>
	<polygon class="st0" points="422.4,202.2 421.7,201.4 422,201.3 422.4,202.2 	"/>
	<path class="st0" d="M423,206.4l-1-1.5C422.9,204.9,422.7,205.8,423,206.4L423,206.4L423,206.4z"/>
	<polygon class="st0" points="324.3,218.7 324.6,218.6 331.6,223.2 331.7,223.5 324.3,218.7 	"/>
	<path class="st0" d="M246.8,228.2l0.1,0.6c-0.3-0.3-1.5-0.2-0.7-0.9C246.2,228.3,246.5,228.2,246.8,228.2L246.8,228.2L246.8,228.2z
		"/>
	<polygon class="st0" points="223.7,230.5 222.1,230.4 223.3,230.5 223.7,230.5 	"/>
	<path class="st0" d="M233.6,229.6c-0.5,0.9-2.1,0.5-2.7,0.2C230.9,229.6,232.6,229.1,233.6,229.6L233.6,229.6L233.6,229.6z"/>
	<polygon class="st0" points="225.2,230.7 224.6,230.4 225.2,230.4 225.2,230.7 	"/>
	<path class="st0" d="M229.4,230l-1.8,0.5l0-0.3C228.1,229.8,228.8,230.4,229.4,230L229.4,230L229.4,230z"/>
	<path class="st0" d="M217.6,231c-0.9,0.4-2.3,1.4-3.2,1.2C214.6,231.3,216.8,232,217.6,231L217.6,231L217.6,231z"/>
	<path class="st0" d="M471.7,210.3l-0.3,0l-0.7-0.6C470.9,209.5,471.3,210.1,471.7,210.3L471.7,210.3L471.7,210.3z"/>
	<polygon class="st0" points="479.5,209.6 478.2,209.5 479.2,209.4 479.5,209.6 	"/>
	<polygon class="st0" points="335.2,225.3 332.3,223.5 335.1,224.7 335.2,225.3 	"/>
	<path class="st0" d="M517.5,210.9l-0.8,1l0.3,0.3l0.6-0.3c3.5,1.8,9.7,3.1,11.6,7.8c0.8,2.1,2.5,4,4.4,5.4c-1.4,1.4,2.2,1,1.2,2.6
		l-2.8-0.7l0.1,0.6c-1.3-1.1-3.1-0.7-4.3-0.8c-1.6-1.1-3.4-3.7-5.1-2.6c1.6,0.5,0.5,1.8,1.5,2.9c-0.3-0.3-0.6,0.1-0.9-0.2l-0.3,0.4
		c0.3,0.2,1,0.8,0.7,1.4c-0.9,0.1-1.9-1.1-2.4-0.1c-2-1.6-2-5.3-3.9-6.3c-0.3-0.3,0.3-0.3,0.2-0.6c-0.9-0.2-1.6-0.8-2-1.6l0.6-0.7
		l-0.6-0.3l-0.3,0.3c-2.5-1.3-6.8-4.9-4.4-9l-0.1-0.9C514.1,209.7,514.4,210,517.5,210.9L517.5,210.9L517.5,210.9z"/>
	<path class="st0" d="M229.2,290.7l-1.9-0.8C228,290.2,229.1,289.5,229.2,290.7L229.2,290.7L229.2,290.7z"/>
	<polygon class="st0" points="290.1,286 290.1,285.7 291.7,286.2 290.1,286 	"/>
	<path class="st0" d="M295.3,286.2l0.1,0.6l-0.9,0.1l-0.1-0.9C294.7,285.9,295,286.5,295.3,286.2L295.3,286.2L295.3,286.2z"/>
	<path class="st0" d="M238.6,293.5c-0.9,0.4-3,0-4-0.9C236.1,293.2,237.6,293,238.6,293.5L238.6,293.5L238.6,293.5z"/>
	<path class="st0" d="M301.7,286.8c-0.3,0.4,0.7,0.6,0.1,0.9l-0.9,0.1C300.2,287.3,301.4,286.8,301.7,286.8L301.7,286.8L301.7,286.8
		z"/>
	<path class="st0" d="M306.1,287.9l0,0.3l-0.9-0.5C305.4,287.7,306,287.4,306.1,287.9L306.1,287.9L306.1,287.9z"/>
	<path class="st0" d="M308.5,287.7c0.4,0.9-1.5,0.1-1.8,0.2L308.5,287.7L308.5,287.7L308.5,287.7z"/>
	<polygon class="st0" points="312.2,288.3 309.4,288.3 311.9,288.3 312.2,288.3 	"/>
	<path class="st0" d="M259.1,299.3c-0.3,0.3-0.6,0.6-0.9,0.7l-0.3,0C257.9,299.5,258.8,299.1,259.1,299.3L259.1,299.3L259.1,299.3z"
		/>
	<path class="st0" d="M397.3,349.8c-0.9,0.4-1.7,1-2.3,1.1C395.6,350.2,396.1,349.6,397.3,349.8L397.3,349.8L397.3,349.8z"/>
	<path class="st0" d="M391.4,350.9c0,0.3-0.6,0.3-0.9,0.4C390.8,350.9,391,350.6,391.4,350.9L391.4,350.9L391.4,350.9z"/>
	<path class="st0" d="M394,356.7l-0.2,0.6l-0.4-0.6C393.7,356.8,394,356.7,394,356.7L394,356.7L394,356.7z"/>
	<polygon class="st0" points="387.5,359.1 387.2,358.5 388.1,358.5 387.5,359.1 	"/>
	<path class="st0" d="M383.4,360.4c-0.2,0.6-1.2,0.4-1.7,0.8C381.9,360.5,382.5,360.5,383.4,360.4L383.4,360.4L383.4,360.4z"/>
	<path class="st0" d="M378.1,362.1c-0.3,1-1.5,0.7-2.3,1.1C376.3,362.8,377.2,362.5,378.1,362.1L378.1,362.1L378.1,362.1z"/>
	<polygon class="st0" points="386.6,362.2 386,362 386.9,361.9 386.6,362.2 	"/>
	<path class="st0" d="M385.4,362.4c-0.5,0.9-1.2,0.4-2.1,0.2L385.4,362.4L385.4,362.4L385.4,362.4z"/>
	<path class="st0" d="M382.7,363.2c-0.5,1.3-3.2,1.8-4.6,2.8C378.6,364.2,381.7,364.5,382.7,363.2L382.7,363.2L382.7,363.2z"/>
	<path class="st0" d="M377.2,366.1l-0.6,0.1c-0.6-0.3,0.5-1,0.8-0.7L377.2,366.1L377.2,366.1z"/>
	<path class="st0" d="M375.4,366.3c0,0.3-0.5,0.6-0.8,1C374.3,367.2,374.5,366.3,375.4,366.3L375.4,366.3L375.4,366.3z"/>
	<polygon class="st0" points="255.4,382.2 254.8,381.7 255.4,381.6 255.4,382.2 	"/>
	<path class="st0" d="M302.9,394.4c0,0.3-0.3,0.6-0.6,0.7l-0.3,0C302.1,394.8,302.3,394.5,302.9,394.4L302.9,394.4L302.9,394.4z"/>
	<path class="st0" d="M299.1,395.7c-0.8,0.7-2,1.1-3.3,0.9C296.7,396.2,297.9,395.8,299.1,395.7L299.1,395.7L299.1,395.7z"/>
	<path class="st0" d="M368.5,119.7l-6.9,2.3C365.5,122,367.6,121.1,368.5,119.7L368.5,119.7z M346.5,144.7c-0.7,0.2-1.4,0.3-2.2,0.6
		C344.9,145,346.2,145,346.5,144.7L346.5,144.7z M279.8,161.6c0,0-0.1,0-0.1,0c0,0-0.1,0-0.1,0C279.7,161.7,279.8,161.6,279.8,161.6
		L279.8,161.6z M278.7,161.9c-0.3,0.1-0.7,0.2-1,0.3c0.5-0.1,1.1-0.2,1.6-0.4C279.1,161.8,278.9,161.8,278.7,161.9L278.7,161.9z
		 M280,161.5c-0.1,0-0.1,0.1-0.2,0.1c0.5-0.1,1-0.2,1.5-0.1C280.9,161.3,280.4,161.3,280,161.5L280,161.5z M389.4,113.1l0,0.2
		c0.6-0.3,1.3-0.6,1.9-0.8L389.4,113.1L389.4,113.1z M398.2,120l-1.5,0.6l0,0.5L398.2,120L398.2,120z M391.3,112.5l8.4-2.7
		C396.2,110.7,393.7,111.6,391.3,112.5L391.3,112.5z M364.6,357.2L364.6,357.2c0.2,0,0.2,0,0.3,0L364.6,357.2L364.6,357.2z
		 M315.1,149.1L315.1,149.1L315.1,149.1L315.1,149.1z M546.5,130c0.3,0.3,0.3-0.3,0.9-0.4c-1.4-5.6-2-12.3-4-18.2
		c-6-10.4-15.1-19.6-23.4-28.6l22.6-5c-7.3,0-15.5,2.9-23.8,5.1c-1.3-0.5-0.5-1.8-0.7-1.4l-0.6,0.1c-0.7-0.9-2-1.7-2.7-2.5
		c0.6-0.3,2.5,0.4,2.3-1.1c-0.6-0.2-1.2,0.4-1.8,0.5c-0.9,0.4-2.4,0.2-2.2-0.7l12.5-3.2l-4.2,0.9c-3.3,0.6-7.3,2.8-9.9,1.2
		c-1.6-0.5-4.2-3-5.8-0.4c1.6,4.7-5.8,3.5-8.3,5.6c2.7-0.6,5.9-2,8.1-1.6l-15.1,4.3c5.5,0.2,10.1-2.7,14.6-2.8l-2.2,2.9l-0.4-0.9
		l-2.5,3l-48.3,13.6l-4.1-4.8c16.2-5.4,32.6-8.9,48.9-13.4c-15.8,3.2-33,7.8-48.9,13.1c-5.7-6.8-12.3-12.6-19.5-18l0.6-0.4
		c-1.8-0.1-2.8-1-2.7-3.1c-1.3,3.1-3.7-1.2-5.3-0.8l3.6,2.5c-1.4,1.3-3-0.1-4.5,0.1c-12.2-8-24.7-16.1-39.4-17.2
		c0.4-2.5,1.1-4.6,0.2-7.6c-5.5,0.2-7.1,5.8-8.6,9.8c-1.5,0.1-4.3-0.2-4.7,1.6c0.7,1.2,0.6,3.3,2.4,3.1c-2.9,11.8-4.9,23.5-3.6,35.2
		c-2,5.4,5.1,14.7,2.4,19l0.5-0.2l0.7,0.8l-8.5,3.1l-0.1-0.9l-0.2,0.9l-7.6,3.1c-2,1.4-5.7,0.8-6.5,2.1l-1-0.8l12.6-5l-13.5,5.1
		c-2.5-1.3-6.8-1.2-8.5-2.9c-4.9-0.5-10-3.1-15.2-3.8l-0.7-0.8l-0.6,0.3c-2.3-1.6-4.9-0.4-6.8-2.1c-6.2-1.6-13-2.8-19.4-3.4
		c-15.7-2.6-33.4-3.2-48.3-1c-2.1-2.8,3.4-6.1-1.9-7.1c-2.7-0.1-4.6,3.1-5.6,5c0.5,19.4,6.9,37,14.4,54l-2.9,1.8l2.1-0.8
		c-0.2,0.9-2,1.4-2.9,2.1c-2.5-1.3-5.9,1.7-8.3,2.6c1.2,0.2,2.6-1.5,3.9-0.7c-1.5,0.4-3.5,1.5-4.8,0.7c-1.2,0.7-4.1,1.9-3.7,2.7
		c-6.9,1.2-12.3,5.3-18.4,7.7l1.5-0.1l-0.6,0.7c-0.8,1.6-2.5,2-3.6,0.9l-13.4,6.3l0.1,0.6c-0.5,0.9-2.1,0.2-1.8-0.1l-11.9,5.9
		l0.5-1.3c-0.6,0.7-1.7,1.1-1.4,1.9l-36,18l-3.3,0.9l0.3,0.3l-1.1,0.7c-5,1.4-7.8,4.9-11.9,6.2l0.3,0.3l-4.4,1.6
		C87.4,248.2,44,272.3,3.8,302c-0.4,2.1,2,2.6,3.3,3.3l-4.3,5.8c2.6-1.5,5.3,1.1,7.9,0.2l16.8-9.7c42.9-23.2,85.5-46.6,129.8-66.6
		c4.2,9.3,10.3,17.3,19.7,23.5c2.4,3.1,6.7,4.6,10,7.3c7.3,7.6,16.3,13.2,25.7,16.6l-0.6,0.7c2.5,1.6,4.6,0.2,6.6,3.1
		c5.5,0.1,9.8,4,15,5.1c1.5-0.1,3-0.6,3.7,0.6l-0.3,0l3.1,1l-0.8,1c1.4-1.3,3.1,0.6,4.9,0.2l0.5-1.3c0.3,0,0.4,0.3,0.7,0.5l-0.3,0
		l2.5,0.4l-2.7,0.8c0.9-0.1,1.6,0.2,2.2,1c-1.1,1.3-2.6-1.6-4.5-0.2c5,1.4,9.9,2.7,15.1,2.3c-0.2,0.6-1.2,0.1-0.9,0.7
		c0.7,0.5,1.2-0.1,1.5-0.7l0.4,1.2l0.5-1c0.8-0.7,2.4,0.1,2.5,1l-2.4,0.5c1.2,0.2,3-0.3,4.5-0.4c0.7,0.5,1.6,1.1,1.7,1.6
		c-54.9,14.8-106.3,36.6-153.1,66.8l-0.6-0.2c0,0.3,0,0.6-0.3,0.6c-9.5-1.3-9.3,11.5-17,13.3l2.4-0.5c-0.7,2.2-3.3,3.6-2.8,5.7
		c-2.4,0.5,1.8,3.5-1.5,4.1c1.2,0.2,1.4,1.7,2.1,2.8c-2.6,1.7,1.9,3.8,2.6,5.2l-2.4,0.2c13.1,7.7,27.7,11.3,43,12.6
		c18.9,1.1,39.4,2.9,58.4,1.2c34.8-1.5,67.2-5.5,98.2-15.6l1.7-1.4c4.2-0.7,8.8-2.9,12.8-3.2l-0.3,0.3l3.2-1.2l-0.4-0.6
		c8-2.5,16.3-4.1,23.6-8.1l0.4,0.9c2.9-2.1,6.1-2.7,9.4-3.9c1.6-2.9,5.4-0.5,7-3.1c7.3-2.8,14.9-6.4,22-9.2
		c-0.6-0.2-1.5,0.1-2.4-0.1c-1.6,2.6-5,1.1-7.6,2.8c-1.3,2.3-3.3,0.3-4.1,2.2l-10.9,3.4c13.7-6.6,29.7-11.1,43.9-18.1l-12.4,4.4
		c-1.4,1-3.8,2.1-5.3,1.7l-0.1-0.6c-1.1,1-3,0.3-2.5,2c-2.8-0.4-7.7,2.8-10.5,2.1c11.5-7.1,24.9-10.1,36.1-16.9
		c-2.6,0.8-5.2,2.6-8.2,2.6l0.8-0.7c-3,0.6-5.5,2.6-8,2.2c4-6.1,12.6-5.4,18-9.5c-1-0.8-3.2,1.8-4.5,0.7c-9.3,4.7-19.8,6-29.4,10.4
		l-0.5,1.3l-1.5-0.4c-6.5,1.2-14.2,5.8-21.7,6.7c10.8-5.2,23.3-7.5,34.1-13c-9.8,2.9-19.1,6.8-28.9,10.1
		c-20.3,7.2-42.2,13.4-62.6,17c-7.5,0.7-15.7,4.1-22.2,3.2l-0.2,0.9c-3.4-0.6-6.6,0.6-9.9,1.2c-3.1-1.2-7.2,0.6-10,0
		c-2.8,3-5.6-1.3-8.4,1.4l-24.9,0.1c-1.5-0.2-2.8,2.1-3.9,0.3c-29.3-2-61-0.1-87.7-14.5l0.5-0.7l0.3,0.3l-0.1-0.9
		c3.3-0.9,7.1-2.4,9.9-4.8c9.9-5.4,21-10.3,31-16.6c33.5-12.7,65.9-30.4,101.7-38.1l-0.7-0.5l3.2-0.8c-0.5,0-1.1-0.2-0.9-0.6
		l23.2-5.4l2.8,0.7l-0.1-0.9l0.3,0c0.3,0.3,1.2,0.5,0.4,0.9c1.1-1,2.2,1.6,2.7-0.2c0.1,0.6,2.2,0.4,2.5,0.7l-1.9-1l0.3,0
		c0,0.3,0.3,0,0.6-0.1c0.9-0.1,2.1-0.2,2.2,0.7l-0.9,0.1c2.1,3.7,7.6,0.2,11.1,2.1c0.8-1.3,2.9,1.6,3-0.9l2.8,1.3l0.5-1.2
		c0.3,0.3,1.2,0.2,0.6,0.5c2.6,1.9,3.8-1.6,6.7,0l-0.3,0.3c2.2,0.7,5-1.4,7.3,0l-3.2,1.2c3.1,0.6,8.2-0.4,11.6,0.2l-0.1-0.9
		c0.3-0.3,0.6-0.1,0.9,0.2c-0.3,0.3-0.2,0.7-0.2,0.7l1.7-1.1c3.4,0.9,7.9,0.2,11.5-0.1c-4-0.3-10.3,0-13.8-1.9
		c7.6-0.4,15.5-0.1,22.7-1.1c0,0.3-0.3,0.3-0.2,0.6c0.6-0.1,0.9-0.4,1.2-0.7c2.7,0.1,5.6-1.1,8.7-0.8c0.7-1.9,3.3-0.3,4.9-0.1
		c5-1.6,10.8-1.5,15.9-2c-5.1-2.3-10-3-15.7-2.5c-1.1-1.5,1.1-1.6,1.3-2.9c-0.7-0.5-1.6-1.1-2.6-1.6c-13.4-3.7-27.8-2.7-42-2.1
		c-58.3-3.1-117.8-10.3-161-53.6c5.9-1.1,13.2-2.1,19.4-3.2c4,0.6,8.2,0.2,11.4-1.3l0,0.3c0-0.3,1.1-1.3,1.8-0.2
		c7.3,0,15.8-2.9,23.1-2.6c4.6,0.5,8.9-2.3,11.8-0.4c-0.6,0.1-1.2-0.2-2.1-0.1c1.6,1,4.3,0.2,5.8-0.2l-2.8-0.3l2.9-1.2
		c10.3-0.3,24.8-0.7,34.7-1.5c0.3,0.6,1,0.5,1,1.1c6.6-0.6,13.8,1.5,20.3,0l0.1,1.5c8.2-0.1,16.1,0.1,23.6,2.8l-1.6-1.4
		c4,0.6,9.1,3.2,12.5,1.1l19.3,8.6l0.6-0.6c1,0.5,0.7,1.4,0.8,1.7c1.7-1.4,3.8,1.2,5.1-0.2c-2.5-1-3.6-3.3-6.4-4
		c0.5-1.8,1.8-0.2,2.6-1.1c-4.9-0.8-8.6-4.7-13.6-5.8l0.2-0.6c-2.1-0.4-4.4-2-6-3.1l0.2-0.6l-3.5-1.8l-0.8,0.6
		c-0.3-0.3-0.7-0.8-1.3-0.8c-0.1-0.6,0.6-0.7,0.5-1.3c-1.9-0.7-4.1-1.5-5.5-3.5l0.9-0.3c-3.2-2.2-6.5-4.3-9.6-5.2l1.3,0.8
		c-3,0.3-2.2-1.3-5.1-2.3l0.6-0.6c-2.9-2.2-5-5.3-8.7-6.2l2.6,1.9c-2.5,2-2.3-2.2-3.8-2.4l0.6-0.1c-2.1-2.8-3.7-4.5-7.2-5.8
		c-5.2-6.8-15.1-12.9-20-20.7l10.2-5.1l-0.7-0.6c0.3,0,0.6-0.3,0.9-0.4c0.6,0.2,0.1,0.9,0.4,1.2l5.2-2.9l2.9-1.2
		c0-2.7,4.6-2.5,6.9-4.2l0.7,0.9c2.3-1.7,5-2,6.9-4l-0.6-0.2c5.1-4.4,14.6-7,21.8-10.4l-3.1,2.1l1,0.2c6.4-3.6,12.4-6.9,19.5-9
		c0.1,0.2,0,0.3-0.1,0.4c0.2-0.1,0.5-0.1,0.7-0.2c3.8,2.4,9.6,5.3,13.5,8.2c2.8,0.4,3.5,1.8,5.4,2.9c4,3.6,9.5,4.9,12.3,9.2
		c5.5,4.1,10.2,9.1,15.5,14.4c1.6,4.7,6.3,8.8,9.3,12.8c1.5,0.2,2.8,0.1,3.6-1.2c1.4-1,1.6,1.4,2.3,2.5c0-0.6,0.9-0.4,1.2-0.1
		c-0.3,0-0.3,0.3-0.9,0.4c0.7,0.6,1.2,0.5,1.9,0.8c-0.8,1,2,1.6,0.2,2.4c4.4,1.7,4.7,8.4,9.9,8.5l-2.7-3.7l1.1,0.1
		c-0.6-0.2-1-0.7-1.4,0c0.5-1.9-2.4-3.7-1.6-4.4l-0.8,0.7l-1.3-1.4l1.4-0.8l-1-0.8l-0.2,0.9c-0.8-2.4-3.1-4.6-3.9-6.6
		c0.3,0,0.6-0.3,0.6-0.1l-0.4-1.5l0.9-0.1c-0.7-0.6-1.3-1.1-1.7-2l-0.6,0.4c-1-1.1-2-2-1.8-3.5c0.7-2.2-4-4.2-1.7-6.2l-1.6-1.4
		c0.2-0.3,0.6-0.7,0.8-0.7c-3.3-6.1-7.2-12.7-10.4-18.8l0.5-0.9c-4.5-7.2-7.5-16.1-10.3-23.7l0.6,0.3l-0.7-0.6l20.9-7.9
		c-0.4-0.6-2.8-0.4-3.6,0.6l0.3,0.6c-2.4,0.2-3.8,1.3-6,1.1c-0.6,0.4-1.8,0.5-1.1,1.3l-10,3.6l-0.3-0.6l2.1-0.8
		c-1.3-0.5-2,1.4-3,0.3c6.6-3.9,13.2-5.4,20.8-7.9l-0.6-0.5l0.5-0.7c-6.2,1.8-12.4,3.8-17.9,6.4c-1.2,0.4-3.5,1.5-3.7-0.3
		c3.5-1.5,8.3-2.8,11.7-4.6l1.5-0.6l0-0.2c2.9-1.5,4.8-4.3,8.1-4.9c0.1,0.6-0.5,0.6-0.5,1c1.4-1.4,3.8-1.2,4.6-2.5
		c-1.6-0.5-3.3,0-4.6,0.1l5.5-2.6c-4.5,0.7-7.2,4-11,6.1l-0.7-0.5c-1.4,1-3.3,0.3-5,1.3c-0.4,0-0.8-0.1-1.1-0.4
		c-1.9,0.7-6,0.2-6.6,2.6c-1.3-1.1-2.2-1.6-3.7-1.2c2.3-1.7,8-2.7,10.4-4.1l0.2,2l2-0.2c1.7-1.7,2.7-0.2,4.4-1.6
		c-1.2-3.2,3.8-1.9,4.9-3.5l-0.6-0.6l1.4-0.7c-3.2,1.8-7,3.1-10.5,4.3l-0.4-0.9c1.5-0.7,3.9-0.9,4.6-2.5c-1.5,0.4-5.9,1.7-8.8,3.5
		l0.1-1.6c-2.6,1.2-5.3,2.5-9,4.3l-0.8-1.8l4.1-1.6c-1.5-0.2-2.7,0.5-3.8,1.2c-1.1-2.6-1.6-5-2.8-7.6c-0.2-13-2.2-25.6,0.9-38.3
		c2.3-1.1,4.1,2.1,6.5,1.3l-0.2,1l0.9,0.2c-0.1-0.6-0.4-0.6-0.7-0.8c0.6-0.6,1.1-1,2.1-0.8c0.8,2.6,4.3,0.2,5.9,2.2
		c0.8,1.8-1.9,2.9-2.4,3.6c0.1,0.9,1,1.1,1.6,0.8c1.3,4.7,5.9,5.3,9.7,7c3.5,2.4,6.5,4.6,10.3,6.1c4.1,5.1,10.8,8.8,14.8,13.6
		l-0.3,0.3c2.6-1.2,3,3.1,4.8,3.2c-5,2.3-12.7,3.8-17.6,6.4c-2.7,0.8-0.6,0.6-2.2,2.3l15.9-5.1c-0.2-2.1,3.2-1.8,4.9-2.6
		c2.2,4.1,6.1,4,7.4,7.8l-0.3,0.4c9.3,12.8,19.5,25.6,23.6,40.7l-1.1,1.3l1.2-0.1c0.1,0.6-0.2,1-0.2,1.2c2.3,5,1.2,9.9,3.4,15.2
		c-1.5,4.1,1.4,9,1.5,13.5c-1.7,2,1.4,2,0.9,3.9c-31.7,9.1-59.6,33.1-64.2,67.2c0.5,6,2.3,12.9,4.9,18.1c2.2,1,3.1,4,5.3,5.3
		c-0.6,4,6,6.8,3.5,8.8l1.1-0.7c15,15.4,38.8,16.3,57.5,8.3c1,1.1,2.5,0.7,3.6,0l-0.4-0.6l8.5-3.5c1.4-1.3,4.9,0.2,5.3-1.9
		c8.5-2.9,16.4-7.2,23.5-12.7c0.3-0.3,1-1.9,2-1.1c7.3-9.4,17.6-16.7,19.6-28.4c-4,2.5,1.2-4.1-2.7-3.1l0.5-1.6
		c-1.8,0.2-3.2-2.1-2.5-3.7l-0.8,0.7c-1-0.8,0.4-2.1-0.3-3c-1.2,0.1-2.7,0.2-2.8-1.2c-0.6,0.7-0.8,1.3-1.4,1.6
		c-3.9-2.4-1.5-7.1-4.5-10.2l-0.1,2.2c-2.4,0.2-3.2-1.9-5.3-2c-0.9-3.9-3.9-6.4-6-9.8l-0.6,0.1l-0.2,1.5c3,2.5,5.4,6.2,6,9.8
		l-0.9,0.1c0.6,3.6-1.8,6.8-3.7,9.7c-0.6,0.1-0.6-0.5-1-0.8c-2.9,1.1-1.6-3.8-3.4-4c-0.3,3.1-0.1,6.4-1,9.2c-4-0.9-3.5-5.5-7.2-6.4
		c0-0.3,0-0.3,0.2-0.6c-0.8,0.7-2.6,1.1-3.3,0c-1.4,1.6-4.2,0.7-6.2,1.7l0-0.3c-2.6,1.2-5.4,0.5-8.2,0.7l1.1-1.6
		c-1.4-2,1.3-2.5,1.7-4.7l-1.6-0.5c-0.5-1.8,3.7-2.4,1.2-3.4l0.9-0.1l-1.4-2.6c-1.4-1.7,1.7-2,2.2-2.9l-0.7-1.1
		c2.4-0.5-0.2-2.7,0.6-3.7c-0.4-0.6-1-1.1-1.6-0.8c-0.4-0.8-1.7-2.2-0.2-2.7c-0.8-2.4-2.6,1.4-3.5-0.9l0.3-0.6l0.3,0.3l1-2.5
		c-1.3-1.1-1.9-4.4-3.6-3l0.3,0.3l-0.9,0.4c-1.5-0.4-3.9,0.3-3.9-2.4l-0.6,0.1c-1.6-0.2-1.4,1.3-2.2,2.3c-3-0.1-7.5,1.5-8.7-2.3
		l1.8-0.5l-0.3-0.3c-1.1,1-4-0.8-3.8,1.5c-2.1,0.2-2.2,2.3-4,2.8l0.7,0.5l-1.7,1.4l-0.7-0.9l-0.5,0.7l-0.4-0.6
		c-1,1.9-3.5,1.5-4.9,2.6c-0.3-0.5-1.2-0.5-1.5,0.1c-5.1,0.8-10.3,3.3-12.6,8.1c-1.3-0.5-2.8,3-3.9,0.3
		c11.7-15.3,30.8-29.7,51.1-23.3c-0.9-0.5-1.7-1.7-2.9-2.2c3.6-0.3,7.2,2.4,10.4,4.9l0.5-1l7,3.3l-2.3-2.2l0.5-0.7
		c-4.2-3.9-8.1-6.6-12.9-9.8l0.9-0.4l-3.1-0.9l0.6,0.6c-2.8-0.4-6.9,0.6-8.9-0.8c1.9-2,1.4-5.3,0.8-7.9c2.2-6-0.2-13,1.7-18.7
		c0.6,0.2,1.7,1.7,2.2,0.7c1.6,3.5,0.6,9.7,5.7,9.8c0.8-1.3-0.5-2.7-1.2-3.5l0.6-17.1l0.9-0.7c1-12.8,7.9-23.8,12.7-35.7l-0.8-2
		c1.9-5.6,4.2-11.3,5.8-17.2c2.3-1.7,1-6.2,3.7-6.7l-0.7-0.6l1.4-1.6c0.2-0.6-0.1-0.9-0.7-1.4l0.6-0.7c6.8,5.5,16.2,11.6,20.2,19.8
		c-5.3-5.3-10.7-11.5-17.7-14.5l-0.4,1.8c2.7,2.5,6.5,4.6,7.6,6.9c-3.1-1-4.3-4.2-7.4-5.1l4.3,4.5l-5.1-3.2l-0.5,1.2
		c4.1,4.8,11.1,8.7,13.7,14.6c-4.4-2.3-6.3-6.7-10.7-8.2c-1.3-1.4-4.4-5.1-6.3-2.5c0.3,0.2,0.6,0.2,0.9,0.5l-0.6,0.3l5.2,4.7
		l-0.3,0.4l10.5,9.4l-1.2-0.2c6.5,5.5,11.1,12.3,14.5,20c6.7,14,0.3,30.3-1.2,45c2.2,1,0.1,4.3,1.7,5.3c1.5-0.7,1-2.2,1.6-3.1
		c8.1-15.3,12.8-30.6,13.1-47.9C546.5,136.4,548.3,132.6,546.5,130L546.5,130z M347.2,376.6l0.9-0.1
		C347.8,376.8,347,377.5,347.2,376.6L347.2,376.6z M338.6,365.5l-12.7,4.2C330.1,368.1,334.5,367.1,338.6,365.5L338.6,365.5z
		 M322.7,370.3l1.5-0.1l-4.2,0.6L322.7,370.3L322.7,370.3z M324,381.7l-4.4,1.3C320.1,382.3,322.5,381.8,324,381.7L324,381.7z
		 M307.4,386.2l0.3,0.5l-3.9,0.9L307.4,386.2L307.4,386.2z M290.7,393.1c8.9-1.7,18.4-4.3,27.2-7.6c0,0.2,0.2,0.4,0.4,0.5
		c0.8-0.3,1.6-0.6,2.4-0.9c1.1-0.6,2.2-1.2,3.4-1.3c-1.1,0.5-2.3,0.9-3.4,1.3c-0.7,0.4-1.4,0.8-2.2,1c-0.1,0-0.1,0-0.2-0.1
		c-10.1,3.7-20.2,5.9-30.8,9.2l-0.7-0.5c-4.7,2.2-11,3.1-16.6,4.5l-0.7-0.5C276.4,396.8,283.8,394.3,290.7,393.1L290.7,393.1z
		 M187.7,409.4l16.4,0.1c-5.1,0.4-11.5-0.2-16.6,0.6L187.7,409.4L187.7,409.4z M327.9,305.1l2.1,0.1l0.6-0.1l0,0.3l-2.7-0.1
		L327.9,305.1L327.9,305.1z M252.1,296c-1.1,1-2.1-0.1-3-0.4C249.4,295.3,251.2,295.2,252.1,296L252.1,296z M338.5,141.6
		c-6.8,2.1-13.4,6.9-20.8,8.2c4.6-2.8,7.7-2.2,11.7-5.3c0.2-0.6-0.7-0.9-0.7-0.6c-2.7-0.1-3.9,3.4-6.5,2.4l-7,2.7c0.1,0,0.2,0,0.3,0
		c0,0,0,0-0.1,0.1c0.2,0,0.5-0.1,0.7-0.1c-0.2,0.3-0.6,0.4-1.1,0.4c0.2,0,0.3-0.1,0.5-0.3c-0.1,0-0.1,0-0.2,0c-0.9,0-2,1-2.4,0.2
		c7.3-2.7,14.5-4.6,21.7-8.6L338.5,141.6L338.5,141.6z M317.8,151.3l-1.2,0.1l0.9-0.4L317.8,151.3L317.8,151.3z M314.1,147.1
		l0.6-0.4l0.3,0l-0.5,0.6L314.1,147.1L314.1,147.1z M317.8,144.3l0.3,0.6C317.8,144.6,316.9,145,317.8,144.3L317.8,144.3z
		 M333.8,140.2l-5.9,1.7C329.2,139.6,331.6,139.7,333.8,140.2L333.8,140.2z M328.3,140c-0.3,0-0.5,0.7-0.8,1l0.9-0.1
		c-0.5,0.3-0.5,0.3-1.2,0.1L328.3,140L328.3,140z M325.3,143.6l-2.3,0.8l2.3-1.1L325.3,143.6L325.3,143.6z M321.9,143l0-0.3l0.9-0.1
		l0,0.3L321.9,143L321.9,143z M323.1,143.5l0.9-0.7l0.9-0.1L323.1,143.5L323.1,143.5z M278.9,123.1l0.3,0l0,0.3l-0.3,0L278.9,123.1
		L278.9,123.1z M198.7,191.7c0.1,0.6-0.8,1-1.2,0.4C197.8,192.1,198.1,191.5,198.7,191.7L198.7,191.7z M301,212.8l0.1,0.9
		c1.8-0.2,1.7,2.6,4.4,1.8c-0.7,2.2,2.6,1.6,3.9,2.7c-37.8-2.5-78.6-3.8-118.4,5.8c-2.3,1.7-5.7,1.4-8.3,2.2l-17.4,5.8l-0.3-0.6
		c22.1-11.1,45.1-22.2,67.5-33l-0.7-0.5l2.4-0.2c9.3-4.8,18.5-10.1,28.2-14.3c2.7-0.2,4.2,3.3,6,3.4c-0.2,0.6,0.7,1.1,1.4,1.7
		l0.2-0.9C280.5,196.1,290.2,207.4,301,212.8L301,212.8z M271.1,158.7l2.3-1.1l-0.7-0.6l-7.6,3.7c0,0.3,0.3,0.3,0.6,0.3
		c-0.9,0.4-2.4,0.5-2.3,1.7l-0.6-0.2c-0.3-0.3,2-0.8,1.4-1.9l-2,1.1c-8.8-14.1-14.7-28.8-16.7-45.3c1.7,2,4.7,1.4,6.9,2.7l0.7,1.2
		c6.2,1.6,12.2,0.8,18.9,1.1c-0.2,1.2,1,1.4,1.6,1.3c1.2-0.4,1.6,0.5,2.2,1c7.1,1.2,13.3,2.8,20.6,3.1c8.2,3.2,17.3,3.9,24.9,7.8
		l-0.3,0.3l1.2,0.5c-0.8,1.3-3.1,2.1-3.7,2.2c-0.1,2.1,2.4-0.5,3.9,0l-0.5,0.7l0.3,0.3c-1.8,0.2-4.1,1.9-6.5,2.4l0.2,2.4
		c1.4-1.3,3.2-1.5,4.7-2.2c-0.8,1-2.9,1.5-2.6,2.1c1.8,0.1,3.5-1.8,5.2-2.6l1.5,0.1c-2.1,0.3-4,3.4-6.7,2.8l-1.4,1l0.5-0.9l-2.5-0.1
		c0.9-0.1,1.4-1.3,0.4-1.9c-4.5,0.4-9.1,3.2-13.8,4.9c-3.3,0.3-7.4,1.5-10.6,3.4c-4.1,1-8.9,2.3-12.3,5.3c5.9-2,12-5,18.3-6.4
		c0,0,0.5,1.7,1.9,0.7l-2.3,1.7l1.6,0.5l-0.6,0.1l0.7,0.5l-0.3,0c0,0.4,0,0.5,0,0.6l0.1,0c0,0,0,0-0.1,0l0,0
		c-1.5,0.1-4.5,0.4-4.9,2.3l-1-0.2l0.8-1.3c-3.3,0.9-5.6,2.3-9.1,3.2c4.3-3.1,7.7-1.9,11.4-5c-1.9-1.4-5.3,1-7.5,1.2
		c0.8-0.6,2.4-0.2,2.3-1.4c-5.1-0.2-9.6,4.2-14.1,4.9c0-0.3-0.4-0.3-0.4-0.6C275.1,157.7,273,158,271.1,158.7L271.1,158.7z
		 M305,147.2c0-0.3-0.3-0.3-0.6-0.3c1.5-0.1,2.6-1.4,4.4-1.6c-2,1.4-3.7,3.4-6.7,3.3L305,147.2L305,147.2z M301.2,149.1l-0.3-0.3
		l0.9-0.7l0.3,0L301.2,149.1L301.2,149.1z M311.7,147.3c-1.4,1.6-5.3,2.2-7.3,3.1C307,149.5,308.9,147.5,311.7,147.3L311.7,147.3z
		 M312.7,151.7c-0.5,0.9-3,3.9-4.7,1.9C309.1,152.3,311.3,153.7,312.7,151.7L312.7,151.7z M291.1,154.5l-0.8,1.3l-0.6-0.2
		L291.1,154.5L291.1,154.5z M288.4,156l-0.5,0.9l-0.3,0L288.4,156L288.4,156z M287.4,157.3c0.4,0.9-2.4,0.2-2,1.1
		C284.4,158.1,286.7,157,287.4,157.3L287.4,157.3z M282.6,155.3l0.9,0.2C283.3,155.8,281.5,156.3,282.6,155.3L282.6,155.3z
		 M279.5,164.6c1-2.5,3.4-3,5.1-4.1c0-0.3-0.3-0.3-0.6-0.3l0.5-0.6c-0.8,0.7-2.7,0.5-3.2,1.8c0,0-0.8,0.1-1.8,0.3
		c-1.1,0.7-2.2,1.9-3.5,1.4c-1.5,0.5-0.2-0.3,1.7-0.9c-0.6,0.1-1.2,0.2-1.8,0.3c0-0.1,1.4-0.4,2.7-0.6c0.3-0.1,0.7-0.2,1-0.2
		c0.1-0.1,0.2-0.1,0.3-0.2c0.3-0.2,0.7-0.3,1-0.6l-3.3,0.3c1.7-1.1,5.3-1.7,6.7-3l0.1,0.9c1.5-0.1,2.2,1,3.9-0.3
		c-0.4,1.9-2.6,1.8-3.7,3.1l1.2,0.2C283.9,162.7,281.9,164.1,279.5,164.6L279.5,164.6z M288.6,161.4l0.6-0.3l1.2-0.1L288.6,161.4
		L288.6,161.4z M292.3,159c-1.5-0.5-2.9,1.5-4.7,2c0-3.7,6.1-2.7,9-4.8c4.4-2.2,9.1-4.1,13.8-5.5C305,154.2,298.1,155.7,292.3,159
		L292.3,159z M293.3,159.8l4.1-1.9l0.3,0L293.3,159.8L293.3,159.8z M296.8,164.9c2.1-0.8,3-3.3,5.2-3.2
		C300.9,163,298,164.2,296.8,164.9L296.8,164.9z M302.3,155.4c1,1.1,2.1-0.8,3-0.3c-0.3,0-0.3,0.3-0.3,0.3c0.6,0.6,2.1,0.1,3-0.3
		l-2.9,1.8l-0.7-1.2l-2.1,1.1C302.7,155.9,302.7,155.9,302.3,155.4L302.3,155.4z M303.4,161c6.1-3.6,12.8-6.9,19.5-9.3L303.4,161
		L303.4,161z M322.5,149.6c5.9-2.6,12-5.6,17.9-7.3C334.3,145.6,328.4,147.3,322.5,149.6L322.5,149.6z M372.2,127.7l0.3,0.6
		l-0.6,0.4L372.2,127.7L372.2,127.7z M373,131l-2.6,1.1l2.3-1.1L373,131L373,131z M354.2,127.1l-1.2,0.1
		C353.3,127.2,353.6,126.9,354.2,127.1L354.2,127.1z M352.5,131.5l1.6-0.6c0.3-0.6,0.9-0.6,1.5-0.6l-1.5,0.6c0,0.1-0.1,0.1-0.1,0.2
		c3.6-0.6,7.4-2.1,9.6-4.5c-1.8-0.4-5,2.2-6.3,0.8c-1.6,2-5,1.7-5.7,3.5c-0.4-1.2-1.5,0.1-2.2-0.4c5.8-2.7,11.6-6.2,17.9-7l-3.8,1.8
		c1.6,0.1,4.8-1,6.5-2.4l0.7,0.9l-1.7,1.1l0.6,0.6l-2.1,0.4c-0.1,0.2,0,0.4,0.1,0.4c-0.7,0-1.5,0.2-3,0.7c0.4,0.9,1.8-0.2,3,0
		c-3.8,1.6-9.8,2.7-13.6,4.5C353.5,132.4,352.8,131.8,352.5,131.5L352.5,131.5z M357.7,129c0.9-0.1,1.1-0.7,2.1-0.5
		C359.2,128.8,358.6,128.9,357.7,129L357.7,129z M369.6,129.1c0.4,0.9-1.1,1-1.7,1.3l-0.3-0.3C368.1,129.9,368.6,128.9,369.6,129.1
		L369.6,129.1z M362.3,130.1l-0.6,0.4l0.3-0.3L362.3,130.1L362.3,130.1z M360.9,130.8l-0.6,0.3l-0.9,0.1L360.9,130.8L360.9,130.8z
		 M357.1,132.9l-1.2,0.4c0-0.3,1.7-1,2.6-1.4l-1.1,1.3L357.1,132.9L357.1,132.9z M358.8,134.3c2.6-1.5,5.2-2.9,8.2-3.8l-0.6,0.7
		c1.8-0.2,4.4-1.3,6.3-0.9C368,131.7,363.7,134.8,358.8,134.3L358.8,134.3z M377.9,144.5l-0.5,1.6c-4.3-0.2-6.5-4.6-10.2-5.8l0-0.3
		l-2.6-2.2l9.1-3.2c1.8,3.2,4,6.9,4.9,10.5L377.9,144.5L377.9,144.5z M396.6,119.2l0.3,0l-1.5,0.5L396.6,119.2L396.6,119.2z
		 M393.2,118.9l0.3,0c-1.2,0.4,0.1,0.9-0.8,0.6L393.2,118.9L393.2,118.9z M384.3,124.5c1.7-1.3,3.8-1.8,5.5-2.9
		C388.8,123.5,386,123.1,384.3,124.5L384.3,124.5z M390.4,120.1l1.1-1.8c0.6-0.4,0.3,2.5,0.2,1.6C391.5,119.9,391,120,390.4,120.1
		l-0.4,0.6l-6,2.4C384.2,122.1,388,120.5,390.4,120.1L390.4,120.1z M383,123.7l0.6-0.1l-1.2,0.7L383,123.7L383,123.7z M388.3,114.5
		c0.4,0.6-0.6,0.3-0.6,0.7C387.7,114.8,388,114.5,388.3,114.5L388.3,114.5z M490.9,90c-2,1.1-3.9,1-6.2,1.7
		C486.1,90.7,488.8,90.8,490.9,90L490.9,90z M483.5,92.2l0.6,0l-24.9,7L483.5,92.2L483.5,92.2z M494,94.6l1,0.5
		c-0.3,0.4-0.3,0.6-0.2,0.9c-1.6-0.5-2,1.4-2.5,2.6c0.1,1.5-2.7,3.6-3.3,6.4c-5.8,13.3-11.6,27.1-10.9,42.2l-0.8,1
		c-4.8-17.2-12.9-33.1-23.8-46.8l44.4-12.1C497.3,90.9,495.7,93.5,494,94.6L494,94.6z M510.8,92.2c-1.6-1.4-4.5-2-4.7-5.1l6.9,5.5
		C512.4,93,511.3,91.5,510.8,92.2L510.8,92.2z M527.1,108.7l3.8,4.8C529.3,112.7,527.6,110.8,527.1,108.7L527.1,108.7z"/>
	<polygon class="st0" points="287.9,288.2 302.9,459.2 819.6,414 804.6,243 287.9,288.2 	"/>
	<g>
		<path class="st1" d="M394.9,422.4l-45.7,4l-39.2-111.3l38.4-3.4l16.8,59.4c1.8,6.4,3,12.9,3.3,16.5l1.9-0.2
			c-0.3-3.6-0.4-10.1,0.3-16.8l6.2-61.4l37.3-3.3L394.9,422.4z"/>
		<path class="st1" d="M435.5,418.8l-10-113.9l76.9-6.7l2.7,31.1l-39.6,3.5l0.9,10.3l36.5-3.2l2.7,30.9l-36.5,3.2l0.9,10.6l40.9-3.6
			l4.3,30.9L435.5,418.8z"/>
		<path class="st1" d="M621.1,402.6c-3.7,0.8-9.1,1.7-12.2,2c-15.4,1.3-22.2-3.2-29.2-15.8l-11.5-20.4l-4,0.4l3.4,38.5l-36.2,3.2
			l-10-113.9l48.9-4.3c23.6-2.1,40.9,5.8,43.1,31.1c1.3,14.4-3.6,25.2-12.4,32.4l8.6,12.9c1.4,2.2,2.1,2.8,4.9,2.5
			c1.2-0.1,2.6-0.4,3.7-0.6L621.1,402.6z M569.5,320.9l-9.5,0.8l1.8,20.5l9-0.8c5-0.4,6.8-3.1,6.1-11.3
			C576.2,322.5,574,320.5,569.5,320.9z"/>
		<path class="st1" d="M684.2,397.1l-46.3,4.1l-10-113.9l45.8-4c30.5-2.7,52.9,11,56.4,50.2C733.5,371.3,717.3,394.2,684.2,397.1z
			 M676.2,312.9l-8.7,0.8l4.7,54.1l8.5-0.7c12.4-1.1,12.7-4.9,10.6-29.6C689.3,314.1,686,312.1,676.2,312.9z"/>
		<path class="st1" d="M750.5,391.3l-10-113.9l37.3-3.3l10,113.9L750.5,391.3z"/>
	</g>
	<polygon class="st2" points="304.1,473.5 310.4,544.7 620.2,517.6 613.9,446.4 304.1,473.5 	"/>
	<g>
		<path class="st1" d="M346,529.9l-13.3,1.2l-17.8-46.7l11.5-1l10.5,30.2c0.5,1.6,1.2,4.6,1.3,5.9l0.6-0.1c-0.1-1.2,0-4.3,0.3-6
			l5.1-31.6l11.2-1L346,529.9z"/>
		<path class="st1" d="M365.2,528.2l-4.2-47.9l29.5-2.6l0.8,9.3l-18.3,1.6l0.9,9.7l17.1-1.5l0.8,9.3l-17.1,1.5l0.9,10.3l18.6-1.6
			l1.5,9.2L365.2,528.2z"/>
		<path class="st1" d="M438.3,521.8c-1.2,0.3-3,0.6-4.1,0.7c-4.8,0.4-7.1-0.9-9.9-5.6l-6.7-11.2l-4.8,0.4l1.6,17.8l-10.9,1
			l-4.2-47.9l17.7-1.5c9.5-0.8,16.3,2.5,17.2,12.8c0.6,6.5-1.9,11-6.5,13.7l5.8,8.9c0.8,1.3,1.2,1.5,2.6,1.4
			c0.6-0.1,0.9-0.1,1.4-0.3L438.3,521.8z M417,484.1l-6.1,0.5l1.1,13.1l5.6-0.5c3.9-0.3,5.8-2.7,5.3-7.5
			C422.7,485.7,420.9,483.7,417,484.1z"/>
		<path class="st1" d="M462.3,519.7l-17,1.5l-4.2-47.9l16.8-1.5c12.4-1.1,21.8,4,23.3,21.1C482.6,509.5,475.8,518.5,462.3,519.7z
			 M458.7,480.9l-5.8,0.5l2.6,29.7l5.7-0.5c7.1-0.6,9.2-3.6,8.1-16.3C468.3,481.9,464.8,480.3,458.7,480.9z"/>
		<path class="st1" d="M491,517.2l-4.2-47.9l11.2-1l4.2,47.9L491,517.2z"/>
		<path class="st1" d="M516.4,515.6c-3.7,0.3-6.2-1.6-6.5-5.3c-0.3-3.7,1.9-5.9,5.6-6.2c3.5-0.3,6.3,1.3,6.6,5.1
			C522.4,512.8,520.3,515.2,516.4,515.6z"/>
		<path class="st1" d="M548.3,512.8c-14.6,1.3-20.9-6.5-22.4-22.9c-1.6-18.1,5.4-25.2,17.7-26.3c3.5-0.3,6.8-0.1,13.7,1.4l-1.5,10
			c-5.7-1.6-8.2-2-10.6-1.8c-5.8,0.5-8.5,2.6-7.4,15.6c1.2,13.7,4.3,14.9,10.2,14.4c2.5-0.2,5.3-1.3,10.9-4.5l3.1,9.6
			C555.6,511.6,551.9,512.5,548.3,512.8z"/>
	</g>
	<g>
		<path class="st1" d="M593.8,508.2l-1.7-19.8l-14.2,1.2l1.7,19.8l-11.2,1l-4.2-47.9l11.2-1l1.6,18.6l14.2-1.2l-1.6-18.6l11.2-1
			l4.2,47.9L593.8,508.2z"/>
	</g>
</g>
</svg>
